<svg xmlns="http://www.w3.org/2000/svg" version="1.1" xmlns:xlink="http://www.w3.org/1999/xlink" xmlns:svgjs="http://svgjs.com/svgjs" width="3072" height="1920" preserveAspectRatio="none" viewBox="0 0 3072 1920"><g mask="url(&quot;#SvgjsMask1348&quot;)" fill="none"><rect width="3072" height="1920" x="0" y="0" fill="rgba(243, 240, 255, 1)"></rect><path d="M0,844.709C156.25,860.389,283.846,731.701,420.381,654.125C565.361,571.75,740.799,520.79,824.216,376.407C909.95,228.013,886.732,45.444,870.622,-125.177C853.801,-303.326,851.419,-501.168,729.031,-631.709C607.535,-761.299,407.894,-759.123,235.627,-802.472C70.607,-843.997,-95.901,-930.536,-258.449,-880.198C-420.418,-830.039,-503.514,-660.426,-620.228,-537.431C-743.335,-407.7,-932.944,-314.776,-962.395,-138.372C-991.884,38.26,-883.03,213.28,-768.549,350.985C-669.019,470.706,-500.434,490.718,-369.444,574.867C-238.486,658.996,-154.874,829.167,0,844.709" fill="#6843ff"></path><path d="M3072 2803.237C3243.391 2791.206 3403.852 2749.1459999999997 3562.553 2683.316 3752.0860000000002 2604.697 4017.1459999999997 2576.32 4085.482 2382.842 4155.264 2185.271 3950.728 1999.37 3872.823 1804.859 3814.998 1660.481 3789.327 1504.22 3686.757 1387.31 3584.568 1270.835 3449.206 1184.308 3298.141 1149.835 3151.977 1116.481 3006.954 1168.016 2860.205 1198.692 2700.077 1232.165 2537.578 1249.2820000000002 2399.881 1337.605 2228.775 1447.357 2035.437 1567.368 1980.364 1763.046 1924.175 1962.689 2011.463 2177.08 2112.659 2358.116 2208.93 2530.341 2356.118 2672.3940000000002 2535.0969999999998 2755.438 2701.452 2832.624 2889.06 2816.078 3072 2803.237" fill="#6843ff"></path></g><defs><mask id="SvgjsMask1348"><rect width="3072" height="1920" fill="#ffffff"></rect></mask></defs></svg>