<svg xmlns="http://www.w3.org/2000/svg" version="1.1" xmlns:xlink="http://www.w3.org/1999/xlink" xmlns:svgjs="http://svgjs.com/svgjs" width="3072" height="1920" preserveAspectRatio="none" viewBox="0 0 3072 1920"><g mask="url(&quot;#SvgjsMask1269&quot;)" fill="none"><rect width="3072" height="1920" x="0" y="0" fill="#000"></rect><path d="M0,914.453C168.047,935.511,327.288,815.519,447.312,696.031C555.168,588.656,556.732,421.134,629.691,287.57C710.527,139.585,883.838,38.905,898.046,-129.119C912.933,-305.174,837.3,-493.599,705.715,-611.506C577.738,-726.18,386.503,-710.606,217.078,-739.301C68.148,-764.525,-80.155,-809.035,-225.883,-769.288C-373.118,-729.13,-489.691,-625.823,-596.962,-517.27C-710.535,-402.34,-813.853,-277.93,-863.415,-124.14C-919.147,48.795,-996.988,258.264,-895.452,408.939C-791.55,563.126,-542.546,500.879,-380.637,592.282C-232.892,675.689,-168.345,893.358,0,914.453" fill="#ff4a57"></path><path d="M3072 2730.423C3222.31 2723.633 3338.963 2612.302 3473.069 2544.076 3624.723 2466.923 3818.965 2446.186 3911.444 2303.361 4006.36 2156.772 3983.092 1965.4279999999999 3959.812 1792.352 3936.366 1618.042 3921.351 1409.952 3777.6369999999997 1308.562 3632.408 1206.103 3425.721 1346.192 3255.402 1295.3899999999999 3083.84 1244.217 2979.781 970.499 2807.499 1019.193 2635.934 1067.685 2681.828 1346.453 2573.569 1488.107 2475.6040000000003 1616.29 2237.072 1636.966 2213.4 1796.552 2189.755 1955.954 2390.709 2054.495 2468.629 2195.55 2538.555 2322.134 2538.734 2485.462 2646.949 2581.392 2761.622 2683.047 2918.912 2737.3379999999997 3072 2730.423" fill="#ff4a57"></path></g><defs><mask id="SvgjsMask1269"><rect width="3072" height="1920" fill="#ffffff"></rect></mask></defs></svg>