<svg xmlns="http://www.w3.org/2000/svg" xmlns:xlink="http://www.w3.org/1999/xlink" style="margin:auto;background:#202335;display:block;z-index:1;position:relative" preserveAspectRatio="xMidYMid" viewBox="0 0 1792 1009"><g transform="translate(896,504.5) scale(1,1) translate(-896,-504.5)"><path id="path0" d="M 201.87466386309424 358.20780651631617&#10;c 0 21.584832466728646 -5.281395178029349 6.199898687251846 -11.481293865281195 6.199898687251846&#10;S 178.91207613253184 379.7926389830448 178.91207613253184 358.20780651631617&#10;s 5.281395178029349 -6.199898687251846 11.481293865281195 -6.199898687251846&#10;S 201.87466386309424 336.6229740495875 201.87466386309424 358.20780651631617&#10;z" fill="none" stroke="none"/><circle cx="0" cy="0" r="2.3257677189435286" fill="#4a6985"><animateMotion begin="-1.252878460239888s" dur="20s" repeatCount="indefinite"><mpath xlink:href="#path0"/></animateMotion></circle><path id="path1" d="M 479.80112931502697 861.0010071238042&#10;c 0 37.005837016788384 -9.054619695597157 10.629336164396664 -19.68395585999382 10.629336164396664&#10;S 440.4332175950393 898.0068441405926 440.4332175950393 861.0010071238042&#10;s 9.054619695597157 -10.629336164396664 19.68395585999382 -10.629336164396664&#10;S 479.80112931502697 823.9951701070158 479.80112931502697 861.0010071238042&#10;z" fill="none" stroke="none"/><circle cx="0" cy="0" r="3.8231634218805097" fill="#813513"><animateMotion begin="-14.80106151803151s" dur="20s" repeatCount="indefinite"><mpath xlink:href="#path1"/></animateMotion></circle><path id="path2" d="M 217.21587691477453 448.05910950080863&#10;c 0 21.251261694176605 -5.199776797511297 6.104085805774131 -11.303862603285427 6.104085805774131&#10;S 194.60815170820365 469.31037119498524 194.60815170820365 448.05910950080863&#10;s 5.199776797511297 -6.104085805774131 11.303862603285427 -6.104085805774131&#10;S 217.21587691477453 426.807847806632 217.21587691477453 448.05910950080863&#10;z" fill="none" stroke="none"/><circle cx="0" cy="0" r="3.90991681508148" fill="#221a1a"><animateMotion begin="-10.099911505158797s" dur="20s" repeatCount="indefinite"><mpath xlink:href="#path2"/></animateMotion></circle><path id="path3" d="M 1376.7686646350492 910.1650018018922&#10;c 0 33.66689476067 -8.237644462717126 9.670278282320107 -17.907922745037233 9.670278282320107&#10;S 1340.9528191449747 943.8318965625622 1340.9528191449747 910.1650018018922&#10;s 8.237644462717126 -9.670278282320107 17.907922745037233 -9.670278282320107&#10;S 1376.7686646350492 876.4981070412223 1376.7686646350492 910.1650018018922&#10;z" fill="none" stroke="none"/><circle cx="0" cy="0" r="2.9627556237614305" fill="#fad96d"><animateMotion begin="-10.134789090595868s" dur="20s" repeatCount="indefinite"><mpath xlink:href="#path3"/></animateMotion></circle><path id="path4" d="M 1103.5782282617786 662.539407871825&#10;c 0 28.108720545108486 -6.8776656652925015 8.07378143316946 -14.95144709846196 8.07378143316946&#10;S 1073.6753340648545 690.6481284169334 1073.6753340648545 662.539407871825&#10;s 6.8776656652925015 -8.07378143316946 14.95144709846196 -8.07378143316946&#10;S 1103.5782282617786 634.4306873267166 1103.5782282617786 662.539407871825&#10;z" fill="none" stroke="none"/><circle cx="0" cy="0" r="3.215155478820143" fill="#813513"><animateMotion begin="-1.8031982035644845s" dur="20s" repeatCount="indefinite"><mpath xlink:href="#path4"/></animateMotion></circle><path id="path5" d="M 410.7695070585017 976.5801868667561&#10;c 0 26.723328739349128 -6.538686819202445 7.675849744281132 -14.214536563483577 7.675849744281132&#10;S 382.3404339315345 1003.3035156061052 382.3404339315345 976.5801868667561&#10;s 6.538686819202445 -7.675849744281132 14.214536563483577 -7.675849744281132&#10;S 410.7695070585017 949.856858127407 410.7695070585017 976.5801868667561&#10;z" fill="none" stroke="none"/><circle cx="0" cy="0" r="3.080442013767273" fill="#fad96d"><animateMotion begin="-15.183136488677071s" dur="20s" repeatCount="indefinite"><mpath xlink:href="#path5"/></animateMotion></circle><path id="path6" d="M 1237.616820083701 881.7021017519571&#10;c 0 33.31259484746406 -8.150954058422057 9.56851128597372 -17.71946534439578 9.56851128597372&#10;S 1202.1778893949095 915.0146965994212 1202.1778893949095 881.7021017519571&#10;s 8.150954058422057 -9.56851128597372 17.71946534439578 -9.56851128597372&#10;S 1237.616820083701 848.389506904493 1237.616820083701 881.7021017519571&#10;z" fill="none" stroke="none"/><circle cx="0" cy="0" r="3.4805095165384947" fill="#fad96d"><animateMotion begin="-5.987849259155982s" dur="20s" repeatCount="indefinite"><mpath xlink:href="#path6"/></animateMotion></circle><path id="path7" d="M 226.0294173839367 31.737269912590808&#10;c 0 31.408724031810642 -7.68511332693239 9.021654775094547 -16.706768102026935 9.021654775094547&#10;S 192.61588117988285 63.145993944401454 192.61588117988285 31.737269912590808&#10;s 7.68511332693239 -9.021654775094547 16.706768102026935 -9.021654775094547&#10;S 226.0294173839367 0.32854588078016533 226.0294173839367 31.737269912590808&#10;z" fill="none" stroke="none"/><circle cx="0" cy="0" r="2.434120144103418" fill="#fdfdfd"><animateMotion begin="-11.604179277303208s" dur="20s" repeatCount="indefinite"><mpath xlink:href="#path7"/></animateMotion></circle><path id="path8" d="M 164.6531550717232 721.5752200576477&#10;c 0 25.607736190204456 -6.265722684837259 7.355413586548089 -13.621136271385348 7.355413586548089&#10;S 137.4108825289525 747.1829562478522 137.4108825289525 721.5752200576477&#10;s 6.265722684837259 -7.355413586548089 13.621136271385348 -7.355413586548089&#10;S 164.6531550717232 695.9674838674432 164.6531550717232 721.5752200576477&#10;z" fill="none" stroke="none"/><circle cx="0" cy="0" r="2.600679162348693" fill="#e8e1d6"><animateMotion begin="-16.311064835755925s" dur="20s" repeatCount="indefinite"><mpath xlink:href="#path8"/></animateMotion></circle><path id="path9" d="M 1406.1125356740865 71.03921962053337&#10;c 0 22.557253915712536 -5.51932808575945 6.479211231108921 -11.99853931686837 6.479211231108921&#10;S 1382.1154570403498 93.59647353624591 1382.1154570403498 71.03921962053337&#10;s 5.51932808575945 -6.479211231108921 11.99853931686837 -6.479211231108921&#10;S 1406.1125356740865 48.48196570482084 1406.1125356740865 71.03921962053337&#10;z" fill="none" stroke="none"/><circle cx="0" cy="0" r="3.7658957152161063" fill="#221a1a"><animateMotion begin="-17.150068411240174s" dur="20s" repeatCount="indefinite"><mpath xlink:href="#path9"/></animateMotion></circle><path id="path10" d="M 1034.5069450844921 777.3020912881908&#10;c 0 30.36945972892564 -7.43082525282223 8.723142688095663 -16.153967940917894 8.723142688095663&#10;S 1002.1990092026563 807.6715510171165 1002.1990092026563 777.3020912881908&#10;s 7.43082525282223 -8.723142688095663 16.153967940917894 -8.723142688095663&#10;S 1034.5069450844921 746.9326315592651 1034.5069450844921 777.3020912881908&#10;z" fill="none" stroke="none"/><circle cx="0" cy="0" r="3.165172581475341" fill="#fad96d"><animateMotion begin="-16.065155505743146s" dur="20s" repeatCount="indefinite"><mpath xlink:href="#path10"/></animateMotion></circle><path id="path11" d="M 249.82785603533935 987.9645458450916&#10;c 0 19.295286839066737 -4.721187205303563 5.5422632410085315 -10.263450446312095 5.5422632410085315&#10;S 229.30095514271514 1007.2598326841584 229.30095514271514 987.9645458450916&#10;s 4.721187205303563 -5.5422632410085315 10.263450446312095 -5.5422632410085315&#10;S 249.82785603533935 968.6692590060248 249.82785603533935 987.9645458450916&#10;z" fill="none" stroke="none"/><circle cx="0" cy="0" r="3.2608573628471653" fill="#4a6985"><animateMotion begin="-2.097243669553026s" dur="20s" repeatCount="indefinite"><mpath xlink:href="#path11"/></animateMotion></circle><path id="path12" d="M 209.06550421333665 845.2922877033652&#10;c 0 30.312776185377544 -7.416955875145568 8.706861244736103 -16.12381711988167 8.706861244736103&#10;S 176.81786997357332 875.6050638887427 176.81786997357332 845.2922877033652&#10;s 7.416955875145568 -8.706861244736103 16.12381711988167 -8.706861244736103&#10;S 209.06550421333665 814.9795115179877 209.06550421333665 845.2922877033652&#10;z" fill="none" stroke="none"/><circle cx="0" cy="0" r="2.440152974813743" fill="#3e444e"><animateMotion begin="-16.141991645163962s" dur="20s" repeatCount="indefinite"><mpath xlink:href="#path12"/></animateMotion></circle><path id="path13" d="M 1362.488936310832 998.8285679138385&#10;c 0 34.092784292649455 -8.341851475861036 9.792608254271652 -18.13445973013269 9.792608254271652&#10;S 1326.2200168505667 1032.9213522064879 1326.2200168505667 998.8285679138385&#10;s 8.341851475861036 -9.792608254271652 18.13445973013269 -9.792608254271652&#10;S 1362.488936310832 964.7357836211891 1362.488936310832 998.8285679138385&#10;z" fill="none" stroke="none"/><circle cx="0" cy="0" r="3.924089215705374" fill="#3e444e"><animateMotion begin="-15.566162998336504s" dur="20s" repeatCount="indefinite"><mpath xlink:href="#path13"/></animateMotion></circle><path id="path14" d="M 1109.4818497829542 317.17575059948314&#10;c 0 35.9567755142464 -8.797934434336884 10.328009988134605 -19.125944422471488 10.328009988134605&#10;S 1071.2299609380111 353.13252611372957 1071.2299609380111 317.17575059948314&#10;s 8.797934434336884 -10.328009988134605 19.125944422471488 -10.328009988134605&#10;S 1109.4818497829542 281.2189750852367 1109.4818497829542 317.17575059948314&#10;z" fill="none" stroke="none"/><circle cx="0" cy="0" r="3.112042468956181" fill="#fad96d"><animateMotion begin="-19.897175332237182s" dur="20s" repeatCount="indefinite"><mpath xlink:href="#path14"/></animateMotion></circle><path id="path15" d="M 461.06762922560125 182.9964710733532&#10;c 0 27.19442894865529 -6.653956019351825 7.811165761847796 -14.46512178119962 7.811165761847796&#10;S 432.137385663202 210.1909000220085 432.137385663202 182.9964710733532&#10;s 6.653956019351825 -7.811165761847796 14.46512178119962 -7.811165761847796&#10;S 461.06762922560125 155.80204212469792 461.06762922560125 182.9964710733532&#10;z" fill="none" stroke="none"/><circle cx="0" cy="0" r="3.3444071665932755" fill="#4a6985"><animateMotion begin="-14.018179485687474s" dur="20s" repeatCount="indefinite"><mpath xlink:href="#path15"/></animateMotion></circle><path id="path16" d="M 1660.3482334407202 133.8806917482369&#10;c 0 27.441034394238986 -6.714295649654219 7.881999240898433 -14.596294890552652 7.881999240898433&#10;S 1631.155643659615 161.32172614247588 1631.155643659615 133.8806917482369&#10;s 6.714295649654219 -7.881999240898433 14.596294890552652 -7.881999240898433&#10;S 1660.3482334407202 106.43965735399792 1660.3482334407202 133.8806917482369&#10;z" fill="none" stroke="none"/><circle cx="0" cy="0" r="3.198862920747339" fill="#221a1a"><animateMotion begin="-9.85912729118735s" dur="20s" repeatCount="indefinite"><mpath xlink:href="#path16"/></animateMotion></circle><path id="path17" d="M 883.7910990203068 767.6294124889114&#10;c 0 36.91771145384906 -9.033057057856684 10.604023502701326 -19.637080560558008 10.604023502701326&#10;S 844.5169378991907 804.5471239427604 844.5169378991907 767.6294124889114&#10;s 9.033057057856684 -10.604023502701326 19.637080560558008 -10.604023502701326&#10;S 883.7910990203068 730.7117010350623 883.7910990203068 767.6294124889114&#10;z" fill="none" stroke="none"/><circle cx="0" cy="0" r="3.458824723413768" fill="#4a6985"><animateMotion begin="-11.155547882036831s" dur="20s" repeatCount="indefinite"><mpath xlink:href="#path17"/></animateMotion></circle><path id="path18" d="M 833.7992018386743 486.14671096924843&#10;c 0 24.887701247694785 -6.089543922308297 7.1485950392314805 -13.238138961539779 7.1485950392314805&#10;S 807.3229239155947 511.0344122169432 807.3229239155947 486.14671096924843&#10;s 6.089543922308297 -7.1485950392314805 13.238138961539779 -7.1485950392314805&#10;S 833.7992018386743 461.25900972155364 833.7992018386743 486.14671096924843&#10;z" fill="none" stroke="none"/><circle cx="0" cy="0" r="2.11613383494972" fill="#959795"><animateMotion begin="-15.350584481954517s" dur="20s" repeatCount="indefinite"><mpath xlink:href="#path18"/></animateMotion></circle><path id="path19" d="M 766.3499706907463 994.9821242450186&#10;c 0 36.07803968605046 -8.827605455097451 10.36284118641875 -19.1904466415162 10.36284118641875&#10;S 727.9690774077138 1031.060163931069 727.9690774077138 994.9821242450186&#10;s 8.827605455097451 -10.36284118641875 19.1904466415162 -10.36284118641875&#10;S 766.3499706907463 958.9040845589681 766.3499706907463 994.9821242450186&#10;z" fill="none" stroke="none"/><circle cx="0" cy="0" r="2.1850493002545623" fill="#813513"><animateMotion begin="-4.666847418389333s" dur="20s" repeatCount="indefinite"><mpath xlink:href="#path19"/></animateMotion></circle><path id="path20" d="M 233.67339950546 163.4671649229649&#10;c 0 26.79253484963613 -6.555620229166287 7.695728095108251 -14.251348324274538 7.695728095108251&#10;S 205.1707028569109 190.25969977260104 205.1707028569109 163.4671649229649&#10;s 6.555620229166287 -7.695728095108251 14.251348324274538 -7.695728095108251&#10;S 233.67339950546 136.67463007332879 233.67339950546 163.4671649229649&#10;z" fill="none" stroke="none"/><circle cx="0" cy="0" r="3.671645524243456" fill="#fdfdfd"><animateMotion begin="-17.632639031779604s" dur="20s" repeatCount="indefinite"><mpath xlink:href="#path20"/></animateMotion></circle><path id="path21" d="M 207.37234335711645 243.41265732346486&#10;c 0 34.91908904577617 -8.544032426094168 10.029951108893156 -18.573983534987324 10.029951108893156&#10;S 170.2243762871418 278.33174636924105 170.2243762871418 243.41265732346486&#10;s 8.544032426094168 -10.029951108893156 18.573983534987324 -10.029951108893156&#10;S 207.37234335711645 208.4935682776887 207.37234335711645 243.41265732346486&#10;z" fill="none" stroke="none"/><circle cx="0" cy="0" r="2.9536232794343955" fill="#fad96d"><animateMotion begin="-5.609832705937885s" dur="20s" repeatCount="indefinite"><mpath xlink:href="#path21"/></animateMotion></circle><path id="path22" d="M 679.205423386434 363.859457964423&#10;c 0 25.388233277429475 -6.212014525328488 7.29236487755953 -13.504379402888018 7.29236487755953&#10;S 652.1966645806579 389.24769124185246 652.1966645806579 363.859457964423&#10;s 6.212014525328488 -7.29236487755953 13.504379402888018 -7.29236487755953&#10;S 679.205423386434 338.4712246869935 679.205423386434 363.859457964423&#10;z" fill="none" stroke="none"/><circle cx="0" cy="0" r="3.695916221623172" fill="#eab145"><animateMotion begin="-15.126218231401065s" dur="20s" repeatCount="indefinite"><mpath xlink:href="#path22"/></animateMotion></circle><path id="path23" d="M 1522.622944213793 190.4482975685961&#10;c 0 33.260202946726665 -8.138134763560778 9.553462548527872 -17.69159731208865 9.553462548527872&#10;S 1487.239749589616 223.70850051532278 1487.239749589616 190.4482975685961&#10;s 8.138134763560778 -9.553462548527872 17.69159731208865 -9.553462548527872&#10;S 1522.622944213793 157.18809462186942 1522.622944213793 190.4482975685961&#10;z" fill="none" stroke="none"/><circle cx="0" cy="0" r="2.535483128856326" fill="#813513"><animateMotion begin="-1.2109016595754518s" dur="20s" repeatCount="indefinite"><mpath xlink:href="#path23"/></animateMotion></circle><path id="path24" d="M 177.61873511063087 125.31652390811475&#10;c 0 34.17696503166777 -8.36244889072722 9.816787828244998 -18.17923671897222 9.816787828244998&#10;S 141.26026167268643 159.4934889397825 141.26026167268643 125.31652390811475&#10;s 8.36244889072722 -9.816787828244998 18.17923671897222 -9.816787828244998&#10;S 177.61873511063087 91.13955887644698 177.61873511063087 125.31652390811475&#10;z" fill="none" stroke="none"/><circle cx="0" cy="0" r="2.8668098682128234" fill="#813513"><animateMotion begin="-1.9799591610037037s" dur="20s" repeatCount="indefinite"><mpath xlink:href="#path24"/></animateMotion></circle><path id="path25" d="M 1273.318790891561 416.0015215993388&#10;c 0 36.50314224083493 -8.931619909991523 10.484945111729182 -19.416565021720707 10.484945111729182&#10;S 1234.4856608481196 452.50466384017375 1234.4856608481196 416.0015215993388&#10;s 8.931619909991523 -10.484945111729182 19.416565021720707 -10.484945111729182&#10;S 1273.318790891561 379.4983793585038 1273.318790891561 416.0015215993388&#10;z" fill="none" stroke="none"/><circle cx="0" cy="0" r="2.0228135781730208" fill="#fdfdfd"><animateMotion begin="-7.261878314658539s" dur="20s" repeatCount="indefinite"><mpath xlink:href="#path25"/></animateMotion></circle><path id="path26" d="M 46.16221263443172 959.6359785156973&#10;c 0 27.10320884199129 -6.631636206019144 7.784964241848562 -14.416600447867706 7.784964241848562&#10;S 17.329011738696302 986.7391873576886 17.329011738696302 959.6359785156973&#10;s 6.631636206019144 -7.784964241848562 14.416600447867706 -7.784964241848562&#10;S 46.16221263443172 932.532769673706 46.16221263443172 959.6359785156973&#10;z" fill="none" stroke="none"/><circle cx="0" cy="0" r="3.771556848904662" fill="#4a6985"><animateMotion begin="-16.77858150212846s" dur="20s" repeatCount="indefinite"><mpath xlink:href="#path26"/></animateMotion></circle><path id="path27" d="M 297.29037657164565 230.68373225729016&#10;c 0 22.553054745728428 -5.518300629273977 6.478005086539017 -11.996305715812994 6.478005086539017&#10;S 273.2977651400197 253.23678700301858 273.2977651400197 230.68373225729016&#10;s 5.518300629273977 -6.478005086539017 11.996305715812994 -6.478005086539017&#10;S 297.29037657164565 208.13067751156174 297.29037657164565 230.68373225729016&#10;z" fill="none" stroke="none"/><circle cx="0" cy="0" r="3.9117374106430964" fill="#959795"><animateMotion begin="-11.405090097099059s" dur="20s" repeatCount="indefinite"><mpath xlink:href="#path27"/></animateMotion></circle><path id="path28" d="M 1796.6556856588866 181.0342340809181&#10;c 0 24.882793545342654 -6.088343101520011 7.147185380045231 -13.235528481565241 7.147185380045231&#10;S 1770.184628695756 205.91702762626076 1770.184628695756 181.0342340809181&#10;s 6.088343101520011 -7.147185380045231 13.235528481565241 -7.147185380045231&#10;S 1796.6556856588866 156.15144053557546 1796.6556856588866 181.0342340809181&#10;z" fill="none" stroke="none"/><circle cx="0" cy="0" r="3.6310429132410094" fill="#fdfdfd"><animateMotion begin="-13.248401838657538s" dur="20s" repeatCount="indefinite"><mpath xlink:href="#path28"/></animateMotion></circle><path id="path29" d="M 1227.6259261338546 235.00818582650544&#10;c 0 23.30771178947078 -5.702950756998169 6.694768279954372 -12.397719036952541 6.694768279954372&#10;S 1202.8304880599494 258.3158976159762 1202.8304880599494 235.00818582650544&#10;s 5.702950756998169 -6.694768279954372 12.397719036952541 -6.694768279954372&#10;S 1227.6259261338546 211.70047403703467 1227.6259261338546 235.00818582650544&#10;z" fill="none" stroke="none"/><circle cx="0" cy="0" r="2.260153184144661" fill="#959795"><animateMotion begin="-10.284822185512255s" dur="20s" repeatCount="indefinite"><mpath xlink:href="#path29"/></animateMotion></circle><path id="path30" d="M 125.47483575719248 834.7867814791695&#10;c 0 24.731926302611495 -6.051428776170897 7.1038511720267055 -13.155279948197602 7.1038511720267055&#10;S 99.16427586079728 859.5187077817809 99.16427586079728 834.7867814791695&#10;s 6.051428776170897 -7.1038511720267055 13.155279948197602 -7.1038511720267055&#10;S 125.47483575719248 810.054855176558 125.47483575719248 834.7867814791695&#10;z" fill="none" stroke="none"/><circle cx="0" cy="0" r="2.9957123982963494" fill="#e8e1d6"><animateMotion begin="-2.797353194656278s" dur="20s" repeatCount="indefinite"><mpath xlink:href="#path30"/></animateMotion></circle><path id="path31" d="M 1631.215803730146 336.26931947547405&#10;c 0 31.49837024192703 -7.707048037918316 9.04740421842585 -16.754452256344166 9.04740421842585&#10;S 1597.7068992174577 367.7676897174011 1597.7068992174577 336.26931947547405&#10;s 7.707048037918316 -9.04740421842585 16.754452256344166 -9.04740421842585&#10;S 1631.215803730146 304.770949233547 1631.215803730146 336.26931947547405&#10;z" fill="none" stroke="none"/><circle cx="0" cy="0" r="3.3347053828377122" fill="#4a6985"><animateMotion begin="-19.453480942624356s" dur="20s" repeatCount="indefinite"><mpath xlink:href="#path31"/></animateMotion></circle><path id="path32" d="M 480.08939692000143 242.08289139569726&#10;c 0 30.20104697120764 -7.389617875933783 8.67476881087879 -16.064386686812572 8.67476881087879&#10;S 447.9606235463763 272.2839383669049 447.9606235463763 242.08289139569726&#10;s 7.389617875933783 -8.67476881087879 16.064386686812572 -8.67476881087879&#10;S 480.08939692000143 211.88184442448963 480.08939692000143 242.08289139569726&#10;z" fill="none" stroke="none"/><circle cx="0" cy="0" r="2.952674323559488" fill="#4a6985"><animateMotion begin="-14.017145153840037s" dur="20s" repeatCount="indefinite"><mpath xlink:href="#path32"/></animateMotion></circle><path id="path33" d="M 922.2052077477646 868.5109692735064&#10;c 0 21.986050884940617 -5.379565642059938 6.3151422754616675 -11.694707917521605 6.3151422754616675&#10;S 898.8157919127215 890.497020158447 898.8157919127215 868.5109692735064&#10;s 5.379565642059938 -6.3151422754616675 11.694707917521605 -6.3151422754616675&#10;S 922.2052077477646 846.5249183885658 922.2052077477646 868.5109692735064&#10;z" fill="none" stroke="none"/><circle cx="0" cy="0" r="2.7293576399784993" fill="#fad96d"><animateMotion begin="-0.38787210568378416s" dur="20s" repeatCount="indefinite"><mpath xlink:href="#path33"/></animateMotion></circle><path id="path34" d="M 166.04570394975917 766.9640853686676&#10;c 0 29.2554021249388 -7.158236690144599 8.4031474188654 -15.56138410901 8.4031474188654&#10;S 134.9229357317392 796.2194874936064 134.9229357317392 766.9640853686676&#10;s 7.158236690144599 -8.4031474188654 15.56138410901 -8.4031474188654&#10;S 166.04570394975917 737.7086832437288 166.04570394975917 766.9640853686676&#10;z" fill="none" stroke="none"/><circle cx="0" cy="0" r="2.704104979344297" fill="#959795"><animateMotion begin="-16.428463511076075s" dur="20s" repeatCount="indefinite"><mpath xlink:href="#path34"/></animateMotion></circle><path id="path35" d="M 520.3364712590563 285.7378562650388&#10;c 0 25.136451712593182 -6.150408397762161 7.220044640851234 -13.370453038613395 7.220044640851234&#10;S 493.59556518182956 310.87430797763193 493.59556518182956 285.7378562650388&#10;s 6.150408397762161 -7.220044640851234 13.370453038613395 -7.220044640851234&#10;S 520.3364712590563 260.6014045524456 520.3364712590563 285.7378562650388&#10;z" fill="none" stroke="none"/><circle cx="0" cy="0" r="2.9656011376044837" fill="#959795"><animateMotion begin="-10.09827972695839s" dur="20s" repeatCount="indefinite"><mpath xlink:href="#path35"/></animateMotion></circle><path id="path36" d="M 1767.3373600517455 418.58874648790703&#10;c 0 26.144236696844175 -6.396994085398042 7.50951479590205 -13.906508881300093 7.50951479590205&#10;S 1739.5243422891451 444.7329831847512 1739.5243422891451 418.58874648790703&#10;s 6.396994085398042 -7.50951479590205 13.906508881300093 -7.50951479590205&#10;S 1767.3373600517455 392.44450979106284 1767.3373600517455 418.58874648790703&#10;z" fill="none" stroke="none"/><circle cx="0" cy="0" r="2.2996786327160703" fill="#3e444e"><animateMotion begin="-15.333748651378674s" dur="20s" repeatCount="indefinite"><mpath xlink:href="#path36"/></animateMotion></circle><path id="path37" d="M 795.1431977498239 922.8038900971349&#10;c 0 31.190986184999176 -7.631837045265755 8.959113053138061 -16.590950098403816 8.959113053138061&#10;S 761.9612975530163 953.994876282134 761.9612975530163 922.8038900971349&#10;s 7.631837045265755 -8.959113053138061 16.590950098403816 -8.959113053138061&#10;S 795.1431977498239 891.6129039121357 795.1431977498239 922.8038900971349&#10;z" fill="none" stroke="none"/><circle cx="0" cy="0" r="2.972202198933078" fill="#fad96d"><animateMotion begin="-3.318318571591381s" dur="20s" repeatCount="indefinite"><mpath xlink:href="#path37"/></animateMotion></circle><path id="path38" d="M 591.6272636289798 840.491646414773&#10;c 0 35.6185780124956 -8.715183981780836 10.230868152525332 -18.946052134306168 10.230868152525332&#10;S 553.7351593603676 876.1102244272686 553.7351593603676 840.491646414773&#10;s 8.715183981780836 -10.230868152525332 18.946052134306168 -10.230868152525332&#10;S 591.6272636289798 804.8730684022773 591.6272636289798 840.491646414773&#10;z" fill="none" stroke="none"/><circle cx="0" cy="0" r="3.26669076483648" fill="#3e444e"><animateMotion begin="-12.889433210567166s" dur="20s" repeatCount="indefinite"><mpath xlink:href="#path38"/></animateMotion></circle><path id="path39" d="M 57.79424948256186 673.6755206983617&#10;c 0 28.481530576286946 -6.96888514100638 8.18086516552923 -15.14975030653561 8.18086516552923&#10;S 27.494748869490643 702.1570512746486 27.494748869490643 673.6755206983617&#10;s 6.96888514100638 -8.18086516552923 15.14975030653561 -8.18086516552923&#10;S 57.79424948256186 645.1939901220748 57.79424948256186 673.6755206983617&#10;z" fill="none" stroke="none"/><circle cx="0" cy="0" r="3.7633274657143336" fill="#eab145"><animateMotion begin="-3.9999189751527586s" dur="20s" repeatCount="indefinite"><mpath xlink:href="#path39"/></animateMotion></circle><path id="path40" d="M 495.2730463351522 341.4989788807452&#10;c 0 32.02106334408962 -7.83494103100065 9.197539471174677 -17.032480502175325 9.197539471174677&#10;S 461.20808533080157 373.5200422248348 461.20808533080157 341.4989788807452&#10;s 7.83494103100065 -9.197539471174677 17.032480502175325 -9.197539471174677&#10;S 495.2730463351522 309.4779155366556 495.2730463351522 341.4989788807452&#10;z" fill="none" stroke="none"/><circle cx="0" cy="0" r="2.6107718538678593" fill="#fdfdfd"><animateMotion begin="-8.262969213996655s" dur="20s" repeatCount="indefinite"><mpath xlink:href="#path40"/></animateMotion></circle><path id="path41" d="M 1130.2069507174062 343.98553329388017&#10;c 0 34.54671947560678 -8.452920722754849 9.922993891929607 -18.375914614684458 9.922993891929607&#10;S 1093.4551214880373 378.53225276948694 1093.4551214880373 343.98553329388017&#10;s 8.452920722754849 -9.922993891929607 18.375914614684458 -9.922993891929607&#10;S 1130.2069507174062 309.4388138182734 1130.2069507174062 343.98553329388017&#10;z" fill="none" stroke="none"/><circle cx="0" cy="0" r="2.9315202596336207" fill="#4a6985"><animateMotion begin="-16.7411568731511s" dur="20s" repeatCount="indefinite"><mpath xlink:href="#path41"/></animateMotion></circle><path id="path42" d="M 800.5424050179622 371.50301544447876&#10;c 0 37.312152763047706 -9.12956929308614 10.717320474492427 -19.846889767578567 10.717320474492427&#10;S 760.8486254828051 408.8151682075265 760.8486254828051 371.50301544447876&#10;s 9.12956929308614 -10.717320474492427 19.846889767578567 -10.717320474492427&#10;S 800.5424050179622 334.19086268143104 800.5424050179622 371.50301544447876&#10;z" fill="none" stroke="none"/><circle cx="0" cy="0" r="3.7488680841879223" fill="#fad96d"><animateMotion begin="-3.777310859184655s" dur="20s" repeatCount="indefinite"><mpath xlink:href="#path42"/></animateMotion></circle><path id="path43" d="M 32.87044764834619 378.0400922665467&#10;c 0 34.38498821213672 -8.413348179565366 9.876539167315867 -18.289887346881233 9.876539167315867&#10;S -3.7093270454162734 412.4250804786834 -3.7093270454162734 378.0400922665467&#10;s 8.413348179565366 -9.876539167315867 18.289887346881233 -9.876539167315867&#10;S 32.87044764834619 343.65510405441 32.87044764834619 378.0400922665467&#10;z" fill="none" stroke="none"/><circle cx="0" cy="0" r="2.853039635918118" fill="#4a6985"><animateMotion begin="-4.919784971744234s" dur="20s" repeatCount="indefinite"><mpath xlink:href="#path43"/></animateMotion></circle><path id="path44" d="M 1375.5829917273613 36.625706593531575&#10;c 0 22.595083462578852 -5.528584251482059 6.490077164783287 -12.018661416265346 6.490077164783287&#10;S 1351.5456688948307 59.22079005611043 1351.5456688948307 36.625706593531575&#10;s 5.528584251482059 -6.490077164783287 12.018661416265346 -6.490077164783287&#10;S 1375.5829917273613 14.030623130952723 1375.5829917273613 36.625706593531575&#10;z" fill="none" stroke="none"/><circle cx="0" cy="0" r="3.918240848404065" fill="#e8e1d6"><animateMotion begin="-4.737486763922609s" dur="20s" repeatCount="indefinite"><mpath xlink:href="#path44"/></animateMotion></circle><path id="path45" d="M 1637.660097170222 85.31807124475809&#10;c 0 25.95415893644181 -6.350485697214484 7.454917992382223 -13.805403689596707 7.454917992382223&#10;S 1610.0492897910285 111.2722301811999 1610.0492897910285 85.31807124475809&#10;s 6.350485697214484 -7.454917992382223 13.805403689596707 -7.454917992382223&#10;S 1637.660097170222 59.36391230831627 1637.660097170222 85.31807124475809&#10;z" fill="none" stroke="none"/><circle cx="0" cy="0" r="3.727125182325596" fill="#4a6985"><animateMotion begin="-15.407128869753475s" dur="20s" repeatCount="indefinite"><mpath xlink:href="#path45"/></animateMotion></circle><path id="path46" d="M 1006.3698362984956 899.5175626104466&#10;c 0 30.430114799815428 -7.44566638718888 8.740564889308686 -16.186231276497566 8.740564889308686&#10;S 973.9973737455005 929.947677410262 973.9973737455005 899.5175626104466&#10;s 7.44566638718888 -8.740564889308686 16.186231276497566 -8.740564889308686&#10;S 1006.3698362984956 869.0874478106311 1006.3698362984956 899.5175626104466&#10;z" fill="none" stroke="none"/><circle cx="0" cy="0" r="2.910246679596087" fill="#4a6985"><animateMotion begin="-3.195708406490696s" dur="20s" repeatCount="indefinite"><mpath xlink:href="#path46"/></animateMotion></circle><path id="path47" d="M 779.7787385638295 370.87196993897965&#10;c 0 28.113820340378318 -6.878913487539375 8.075246267981006 -14.954159755520383 8.075246267981006&#10;S 749.8704190527886 398.98579027935796 749.8704190527886 370.87196993897965&#10;s 6.878913487539375 -8.075246267981006 14.954159755520383 -8.075246267981006&#10;S 779.7787385638295 342.75814959860134 779.7787385638295 370.87196993897965&#10;z" fill="none" stroke="none"/><circle cx="0" cy="0" r="3.9038482175153275" fill="#eab145"><animateMotion begin="-0.11830852814278092s" dur="20s" repeatCount="indefinite"><mpath xlink:href="#path47"/></animateMotion></circle><path id="path48" d="M 1595.605021068797 676.6055352954443&#10;c 0 26.07545145915969 -6.380163654900774 7.489757334013953 -13.869920988914728 7.489757334013953&#10;S 1567.8651790909673 702.680986754604 1567.8651790909673 676.6055352954443&#10;s 6.380163654900774 -7.489757334013953 13.869920988914728 -7.489757334013953&#10;S 1595.605021068797 650.5300838362846 1595.605021068797 676.6055352954443&#10;z" fill="none" stroke="none"/><circle cx="0" cy="0" r="2.295149875980559" fill="#3e444e"><animateMotion begin="-1.5671238106784502s" dur="20s" repeatCount="indefinite"><mpath xlink:href="#path48"/></animateMotion></circle><path id="path49" d="M 1118.9522970762202 324.0263310115075&#10;c 0 36.36979808957486 -8.898993149576826 10.446644132111928 -19.345637281688756 10.446644132111928&#10;S 1080.2610225128426 360.39612910108235 1080.2610225128426 324.0263310115075&#10;s 8.898993149576826 -10.446644132111928 19.345637281688756 -10.446644132111928&#10;S 1118.9522970762202 287.6565329219327 1118.9522970762202 324.0263310115075&#10;z" fill="none" stroke="none"/><circle cx="0" cy="0" r="3.2292658212310057" fill="#e8e1d6"><animateMotion begin="-19.432249066956423s" dur="20s" repeatCount="indefinite"><mpath xlink:href="#path49"/></animateMotion></circle><path id="path50" d="M 277.3920868589229 468.200351480083&#10;c 0 32.699860161835886 -8.001029614066228 9.392513025208181 -17.393542639274408 9.392513025208181&#10;S 242.60500158037405 500.9002116419189 242.60500158037405 468.200351480083&#10;s 8.001029614066228 -9.392513025208181 17.393542639274408 -9.392513025208181&#10;S 277.3920868589229 435.5004913182471 277.3920868589229 468.200351480083&#10;z" fill="none" stroke="none"/><circle cx="0" cy="0" r="2.7885411605997423" fill="#221a1a"><animateMotion begin="-0.21952704212604868s" dur="20s" repeatCount="indefinite"><mpath xlink:href="#path50"/></animateMotion></circle><path id="path51" d="M 1708.5745456269408 607.5328320931893&#10;c 0 23.08476966244811 -5.6484010876202815 6.630731711554245 -12.279132799174526 6.630731711554245&#10;S 1684.0162800285918 630.6176017556375 1684.0162800285918 607.5328320931893&#10;s 5.6484010876202815 -6.630731711554245 12.279132799174526 -6.630731711554245&#10;S 1708.5745456269408 584.4480624307412 1708.5745456269408 607.5328320931893&#10;z" fill="none" stroke="none"/><circle cx="0" cy="0" r="2.079076319048298" fill="#221a1a"><animateMotion begin="-14.173032918982287s" dur="20s" repeatCount="indefinite"><mpath xlink:href="#path51"/></animateMotion></circle><path id="path52" d="M 375.0673631488815 963.4040233646267&#10;c 0 20.439442230239102 -5.001140120164886 5.870903619323998 -10.872043739488884 5.870903619323998&#10;S 353.3232756699037 983.8434655948658 353.3232756699037 963.4040233646267&#10;s 5.001140120164886 -5.870903619323998 10.872043739488884 -5.870903619323998&#10;S 375.0673631488815 942.9645811343876 375.0673631488815 963.4040233646267&#10;z" fill="none" stroke="none"/><circle cx="0" cy="0" r="3.8472839452492447" fill="#221a1a"><animateMotion begin="-15.798912168002172s" dur="20s" repeatCount="indefinite"><mpath xlink:href="#path52"/></animateMotion></circle><path id="path53" d="M 639.9550901502427 814.5952044182535&#10;c 0 22.435111879735366 -5.489442268445887 6.44412788034952 -11.933570148795408 6.44412788034952&#10;S 616.0879498526518 837.0303162979889 616.0879498526518 814.5952044182535&#10;s 5.489442268445887 -6.44412788034952 11.933570148795408 -6.44412788034952&#10;S 639.9550901502427 792.1600925385181 639.9550901502427 814.5952044182535&#10;z" fill="none" stroke="none"/><circle cx="0" cy="0" r="2.2819696974212045" fill="#fdfdfd"><animateMotion begin="-18.516181666332475s" dur="20s" repeatCount="indefinite"><mpath xlink:href="#path53"/></animateMotion></circle><path id="path54" d="M 237.7752514526093 494.31949830705054&#10;c 0 23.475585564824293 -5.744026255222965 6.7429873430878295 -12.487013598310794 6.7429873430878295&#10;S 212.8012242559877 517.7950838718748 212.8012242559877 494.31949830705054&#10;s 5.744026255222965 -6.7429873430878295 12.487013598310794 -6.7429873430878295&#10;S 237.7752514526093 470.8439127422262 237.7752514526093 494.31949830705054&#10;z" fill="none" stroke="none"/><circle cx="0" cy="0" r="2.634523048617662" fill="#3e444e"><animateMotion begin="-9.87453487604824s" dur="20s" repeatCount="indefinite"><mpath xlink:href="#path54"/></animateMotion></circle><path id="path55" d="M 109.07755965300025 525.8168778904201&#10;c 0 24.736443737194968 -6.052534105909406 7.105148733024087 -13.157682838933493 7.105148733024087&#10;S 82.76219397513326 550.553321627615 82.76219397513326 525.8168778904201&#10;s 6.052534105909406 -7.105148733024087 13.157682838933493 -7.105148733024087&#10;S 109.07755965300025 501.0804341532251 109.07755965300025 525.8168778904201&#10;z" fill="none" stroke="none"/><circle cx="0" cy="0" r="2.8871624996635097" fill="#fdfdfd"><animateMotion begin="-18.666132453681076s" dur="20s" repeatCount="indefinite"><mpath xlink:href="#path55"/></animateMotion></circle><path id="path56" d="M 1020.1125292450417 811.9375736673596&#10;c 0 23.2249501219336 -5.68270056174971 6.670996311619225 -12.353696873368936 6.670996311619225&#10;S 995.4051354983039 835.1625237892932 995.4051354983039 811.9375736673596&#10;s 5.68270056174971 -6.670996311619225 12.353696873368936 -6.670996311619225&#10;S 1020.1125292450417 788.712623545426 1020.1125292450417 811.9375736673596&#10;z" fill="none" stroke="none"/><circle cx="0" cy="0" r="3.8728803055135668" fill="#3e444e"><animateMotion begin="-14.76367684472784s" dur="20s" repeatCount="indefinite"><mpath xlink:href="#path56"/></animateMotion></circle><path id="path57" d="M 1255.7451984479226 77.12937228309144&#10;c 0 24.807973691761056 -6.070036116069193 7.12569457103775 -13.195730687106943 7.12569457103775&#10;S 1229.3537370737085 101.93734597485249 1229.3537370737085 77.12937228309144&#10;s 6.070036116069193 -7.12569457103775 13.195730687106943 -7.12569457103775&#10;S 1255.7451984479226 52.321398591330386 1255.7451984479226 77.12937228309144&#10;z" fill="none" stroke="none"/><circle cx="0" cy="0" r="2.309413568733217" fill="#e8e1d6"><animateMotion begin="-14.323625768573315s" dur="20s" repeatCount="indefinite"><mpath xlink:href="#path57"/></animateMotion></circle><path id="path58" d="M 1734.9737376616176 911.0052147730775&#10;c 0 31.205371317449288 -7.635356811716314 8.96324495288437 -16.598601764600684 8.96324495288437&#10;S 1701.7765341324161 942.2105860905267 1701.7765341324161 911.0052147730775&#10;s 7.635356811716314 -8.96324495288437 16.598601764600684 -8.96324495288437&#10;S 1734.9737376616176 879.7998434556282 1734.9737376616176 911.0052147730775&#10;z" fill="none" stroke="none"/><circle cx="0" cy="0" r="2.9434921713190283" fill="#fdfdfd"><animateMotion begin="-0.6652906061407737s" dur="20s" repeatCount="indefinite"><mpath xlink:href="#path58"/></animateMotion></circle><path id="path59" d="M 1291.2285653567574 566.9858489872794&#10;c 0 35.51998298600329 -8.691059666788039 10.202548304490307 -18.893607971278346 10.202548304490307&#10;S 1253.4413494142009 602.5058319732826 1253.4413494142009 566.9858489872794&#10;s 8.691059666788039 -10.202548304490307 18.893607971278346 -10.202548304490307&#10;S 1291.2285653567574 531.4658660012761 1291.2285653567574 566.9858489872794&#10;z" fill="none" stroke="none"/><circle cx="0" cy="0" r="2.110501613739547" fill="#fdfdfd"><animateMotion begin="-1.0463624393979387s" dur="20s" repeatCount="indefinite"><mpath xlink:href="#path59"/></animateMotion></circle><path id="path60" d="M 1563.1142059335677 384.8639831436954&#10;c 0 20.206271495903724 -4.944087706444528 5.803929046695751 -10.748016753140279 5.803929046695751&#10;S 1541.6181724272872 405.0702546395991 1541.6181724272872 384.8639831436954&#10;s 4.944087706444528 -5.803929046695751 10.748016753140279 -5.803929046695751&#10;S 1563.1142059335677 364.6577116477917 1563.1142059335677 384.8639831436954&#10;z" fill="none" stroke="none"/><circle cx="0" cy="0" r="2.9013868355309467" fill="#813513"><animateMotion begin="-4.860290301615193s" dur="20s" repeatCount="indefinite"><mpath xlink:href="#path60"/></animateMotion></circle><path id="path61" d="M 710.8161892063492 183.3094967721693&#10;c 0 30.824120865691167 -7.542072126711668 8.853736844400654 -16.395808971112324 8.853736844400654&#10;S 678.0245712641247 214.13361763786045 678.0245712641247 183.3094967721693&#10;s 7.542072126711668 -8.853736844400654 16.395808971112324 -8.853736844400654&#10;S 710.8161892063492 152.48537590647814 710.8161892063492 183.3094967721693&#10;z" fill="none" stroke="none"/><circle cx="0" cy="0" r="2.2197908875543413" fill="#959795"><animateMotion begin="-10.508102881993207s" dur="20s" repeatCount="indefinite"><mpath xlink:href="#path61"/></animateMotion></circle><path id="path62" d="M 1744.525765021015 663.6629966261048&#10;c 0 34.42293197252311 -8.42263229114927 9.887437907001319 -18.31007019815059 9.887437907001319&#10;S 1707.9056246247137 698.0859285986279 1707.9056246247137 663.6629966261048&#10;s 8.42263229114927 -9.887437907001319 18.31007019815059 -9.887437907001319&#10;S 1744.525765021015 629.2400646535817 1744.525765021015 663.6629966261048&#10;z" fill="none" stroke="none"/><circle cx="0" cy="0" r="3.002401687964403" fill="#813513"><animateMotion begin="-7.148001239447406s" dur="20s" repeatCount="indefinite"><mpath xlink:href="#path62"/></animateMotion></circle><path id="path63" d="M 1772.04088081845 721.3438086793205&#10;c 0 32.75742348442602 -8.015114256827644 9.409047171058539 -17.424161427886183 9.409047171058539&#10;S 1737.1925579626775 754.1012321637465 1737.1925579626775 721.3438086793205&#10;s 8.015114256827644 -9.409047171058539 17.424161427886183 -9.409047171058539&#10;S 1772.04088081845 688.5863851948945 1772.04088081845 721.3438086793205&#10;z" fill="none" stroke="none"/><circle cx="0" cy="0" r="2.7588093506180718" fill="#3e444e"><animateMotion begin="-4.476026194869882s" dur="20s" repeatCount="indefinite"><mpath xlink:href="#path63"/></animateMotion></circle><path id="path64" d="M 809.9834459232395 516.5613391025315&#10;c 0 23.61663032703327 -5.778537207678353 6.783500200318067 -12.56203740799642 6.783500200318067&#10;S 784.8593711072467 540.1779694295648 784.8593711072467 516.5613391025315&#10;s 5.778537207678353 -6.783500200318067 12.56203740799642 -6.783500200318067&#10;S 809.9834459232395 492.94470877549827 809.9834459232395 516.5613391025315&#10;z" fill="none" stroke="none"/><circle cx="0" cy="0" r="3.219707813064637" fill="#813513"><animateMotion begin="-4.613401384738247s" dur="20s" repeatCount="indefinite"><mpath xlink:href="#path64"/></animateMotion></circle><path id="path65" d="M 736.9629854206349 552.095234534702&#10;c 0 25.186592874439143 -6.162676979915959 7.234446889466562 -13.397123869382522 7.234446889466562&#10;S 710.1687376818699 577.2818274091411 710.1687376818699 552.095234534702&#10;s 6.162676979915959 -7.234446889466562 13.397123869382522 -7.234446889466562&#10;S 736.9629854206349 526.9086416602628 736.9629854206349 552.095234534702&#10;z" fill="none" stroke="none"/><circle cx="0" cy="0" r="3.096772917089651" fill="#4a6985"><animateMotion begin="-0.05418520247869818s" dur="20s" repeatCount="indefinite"><mpath xlink:href="#path65"/></animateMotion></circle><path id="path66" d="M 551.3727556213593 826.34006606755&#10;c 0 37.550148857628905 -9.187802380058134 10.785681054850855 -19.97348343490899 10.785681054850855&#10;S 511.4257887515413 863.8902149251788 511.4257887515413 826.34006606755&#10;s 9.187802380058134 -10.785681054850855 19.97348343490899 -10.785681054850855&#10;S 551.3727556213593 788.7899172099211 551.3727556213593 826.34006606755&#10;z" fill="none" stroke="none"/><circle cx="0" cy="0" r="3.512456605969782" fill="#fad96d"><animateMotion begin="-13.433843129143611s" dur="20s" repeatCount="indefinite"><mpath xlink:href="#path66"/></animateMotion></circle><path id="path67" d="M 579.4432109110622 466.38818622505835&#10;c 0 34.5722970700536 -8.459179070332263 9.930340647781353 -18.389519718113615 9.930340647781353&#10;S 542.6641714748349 500.96048329511194 542.6641714748349 466.38818622505835&#10;s 8.459179070332263 -9.930340647781353 18.389519718113615 -9.930340647781353&#10;S 579.4432109110622 431.81588915500475 579.4432109110622 466.38818622505835&#10;z" fill="none" stroke="none"/><circle cx="0" cy="0" r="3.9836283000844066" fill="#221a1a"><animateMotion begin="-9.953997794306604s" dur="20s" repeatCount="indefinite"><mpath xlink:href="#path67"/></animateMotion></circle><path id="path68" d="M 581.6248528710914 460.37123415842564&#10;c 0 31.449993464475163 -7.695211166839667 9.033508761072653 -16.728719927912323 9.033508761072653&#10;S 548.1674130152669 491.8212276229008 548.1674130152669 460.37123415842564&#10;s 7.695211166839667 -9.033508761072653 16.728719927912323 -9.033508761072653&#10;S 581.6248528710914 428.9212406939505 581.6248528710914 460.37123415842564&#10;z" fill="none" stroke="none"/><circle cx="0" cy="0" r="2.2298296344742994" fill="#4a6985"><animateMotion begin="-14.841379166391029s" dur="20s" repeatCount="indefinite"><mpath xlink:href="#path68"/></animateMotion></circle><path id="path69" d="M 1283.3747155973992 513.2136096893088&#10;c 0 34.353094573090296 -8.405544416819966 9.867378228440831 -18.272922645260795 9.867378228440831&#10;S 1246.8288703068774 547.5667042623991 1246.8288703068774 513.2136096893088&#10;s 8.405544416819966 -9.867378228440831 18.272922645260795 -9.867378228440831&#10;S 1283.3747155973992 478.8605151162185 1283.3747155973992 513.2136096893088&#10;z" fill="none" stroke="none"/><circle cx="0" cy="0" r="3.3382660066822227" fill="#959795"><animateMotion begin="-2.4785570188059936s" dur="20s" repeatCount="indefinite"><mpath xlink:href="#path69"/></animateMotion></circle><path id="path70" d="M 348.9824533725625 1002.0092180562435&#10;c 0 21.37516661828178 -5.23009395979235 6.139675518017107 -11.369769477809458 6.139675518017107&#10;S 326.2429144169435 1023.3843846745253 326.2429144169435 1002.0092180562435&#10;s 5.23009395979235 -6.139675518017107 11.369769477809458 -6.139675518017107&#10;S 348.9824533725625 980.6340514379617 348.9824533725625 1002.0092180562435&#10;z" fill="none" stroke="none"/><circle cx="0" cy="0" r="3.8490172487019367" fill="#221a1a"><animateMotion begin="-6.762718020500671s" dur="20s" repeatCount="indefinite"><mpath xlink:href="#path70"/></animateMotion></circle><path id="path71" d="M 59.45139862639275 875.448231224198&#10;c 0 33.177763762021314 -8.117963473686064 9.529783208240165 -17.64774668192623 9.529783208240165&#10;S 24.155905262540294 908.6259949862193 24.155905262540294 875.448231224198&#10;s 8.117963473686064 -9.529783208240165 17.64774668192623 -9.529783208240165&#10;S 59.45139862639275 842.2704674621767 59.45139862639275 875.448231224198&#10;z" fill="none" stroke="none"/><circle cx="0" cy="0" r="3.9733498809450207" fill="#eab145"><animateMotion begin="-3.624467755053611s" dur="20s" repeatCount="indefinite"><mpath xlink:href="#path71"/></animateMotion></circle><path id="path72" d="M 353.61009898347737 185.70065784770057&#10;c 0 18.979791501533136 -4.64399153760917 5.451642239802071 -10.09563377741124 5.451642239802071&#10;S 333.41883142865487 204.6804493492337 333.41883142865487 185.70065784770057&#10;s 4.64399153760917 -5.451642239802071 10.09563377741124 -5.451642239802071&#10;S 353.61009898347737 166.72086634616744 353.61009898347737 185.70065784770057&#10;z" fill="none" stroke="none"/><circle cx="0" cy="0" r="3.1683951296727266" fill="#fad96d"><animateMotion begin="-8.905950632715491s" dur="20s" repeatCount="indefinite"><mpath xlink:href="#path72"/></animateMotion></circle><path id="path73" d="M 511.8737068064069 237.31036299122846&#10;c 0 36.55281365756616 -8.943773554510868 10.499212433556238 -19.442985988067104 10.499212433556238&#10;S 472.9877348302727 273.8631766487946 472.9877348302727 237.31036299122846&#10;s 8.943773554510868 -10.499212433556238 19.442985988067104 -10.499212433556238&#10;S 511.8737068064069 200.7575493336623 511.8737068064069 237.31036299122846&#10;z" fill="none" stroke="none"/><circle cx="0" cy="0" r="3.6249296249119944" fill="#fdfdfd"><animateMotion begin="-15.82152537212945s" dur="20s" repeatCount="indefinite"><mpath xlink:href="#path73"/></animateMotion></circle><path id="path74" d="M 1694.799556761079 936.1775632361474&#10;c 0 32.02104132643647 -7.834935643702539 9.197533146955156 -17.032468790657695 9.197533146955156&#10;S 1660.7346191797635 968.1986045625839 1660.7346191797635 936.1775632361474&#10;s 7.834935643702539 -9.197533146955156 17.032468790657695 -9.197533146955156&#10;S 1694.799556761079 904.1565219097109 1694.799556761079 936.1775632361474&#10;z" fill="none" stroke="none"/><circle cx="0" cy="0" r="3.0391372519291067" fill="#eab145"><animateMotion begin="-16.75594516354217s" dur="20s" repeatCount="indefinite"><mpath xlink:href="#path74"/></animateMotion></circle><path id="path75" d="M 544.3461447213868 860.4761284697669&#10;c 0 31.794817165690887 -7.77958292352011 9.132553866741 -16.91213679026111 9.132553866741&#10;S 510.5218711408646 892.2709456354578 510.5218711408646 860.4761284697669&#10;s 7.77958292352011 -9.132553866741 16.91213679026111 -9.132553866741&#10;S 544.3461447213868 828.681311304076 544.3461447213868 860.4761284697669&#10;z" fill="none" stroke="none"/><circle cx="0" cy="0" r="2.2942534895817936" fill="#221a1a"><animateMotion begin="-14.149608952633397s" dur="20s" repeatCount="indefinite"><mpath xlink:href="#path75"/></animateMotion></circle><path id="path76" d="M 477.50530097027786 489.2767139522857&#10;c 0 28.903864059346283 -7.0722220570740895 8.302173719173933 -15.374395776248022 8.302173719173933&#10;S 446.7565094177818 518.180578011632 446.7565094177818 489.2767139522857&#10;s 7.0722220570740895 -8.302173719173933 15.374395776248022 -8.302173719173933&#10;S 477.50530097027786 460.3728498929394 477.50530097027786 489.2767139522857&#10;z" fill="none" stroke="none"/><circle cx="0" cy="0" r="3.027719898537346" fill="#3e444e"><animateMotion begin="-1.0359291785123093s" dur="20s" repeatCount="indefinite"><mpath xlink:href="#path76"/></animateMotion></circle><path id="path77" d="M 586.5448099410111 751.0249021443428&#10;c 0 23.006482268397054 -5.6292456614163005 6.608244906880005 -12.237490568296305 6.608244906880005&#10;S 562.0698288044185 774.0313844127398 562.0698288044185 751.0249021443428&#10;s 5.6292456614163005 -6.608244906880005 12.237490568296305 -6.608244906880005&#10;S 586.5448099410111 728.0184198759458 586.5448099410111 751.0249021443428&#10;z" fill="none" stroke="none"/><circle cx="0" cy="0" r="3.605115220453162" fill="#fdfdfd"><animateMotion begin="-19.304683434209533s" dur="20s" repeatCount="indefinite"><mpath xlink:href="#path77"/></animateMotion></circle><path id="path78" d="M 1709.604530584168 271.0480629370391&#10;c 0 32.56674801432529 -7.9684596205264 9.354278684965776 -17.322738305492177 9.354278684965776&#10;S 1674.959053973184 303.6148109513644 1674.959053973184 271.0480629370391&#10;s 7.9684596205264 -9.354278684965776 17.322738305492177 -9.354278684965776&#10;S 1709.604530584168 238.4813149227138 1709.604530584168 271.0480629370391&#10;z" fill="none" stroke="none"/><circle cx="0" cy="0" r="2.3083917951902753" fill="#fdfdfd"><animateMotion begin="-6.170689990372598s" dur="20s" repeatCount="indefinite"><mpath xlink:href="#path78"/></animateMotion></circle><path id="path79" d="M 1057.5562734728749 82.89842343300612&#10;c 0 21.6088335543389 -5.2872677845722835 6.2067926166718115 -11.494060401244095 6.2067926166718115&#10;S 1034.5681526703868 104.50725698734502 1034.5681526703868 82.89842343300612&#10;s 5.2872677845722835 -6.2067926166718115 11.494060401244095 -6.2067926166718115&#10;S 1057.5562734728749 61.289589878667215 1057.5562734728749 82.89842343300612&#10;z" fill="none" stroke="none"/><circle cx="0" cy="0" r="3.2053973155576223" fill="#e8e1d6"><animateMotion begin="-5.01531543125s" dur="20s" repeatCount="indefinite"><mpath xlink:href="#path79"/></animateMotion></circle><path id="path80" d="M 952.3568229467625 33.447937580491505&#10;c 0 35.90567357096585 -8.785430767363984 10.31333177038381 -19.098762537747792 10.31333177038381&#10;S 914.1592978712669 69.35361115145736 914.1592978712669 33.447937580491505&#10;s 8.785430767363984 -10.31333177038381 19.098762537747792 -10.31333177038381&#10;S 952.3568229467625 -2.4577359904743474 952.3568229467625 33.447937580491505&#10;z" fill="none" stroke="none"/><circle cx="0" cy="0" r="3.4992161502602372" fill="#eab145"><animateMotion begin="-15.106833611478653s" dur="20s" repeatCount="indefinite"><mpath xlink:href="#path80"/></animateMotion></circle><path id="path81" d="M 428.47670521463954 723.18222401685&#10;c 0 32.91235086665871 -8.053022020565427 9.453547589359417 -17.506569609924846 9.453547589359417&#10;S 393.46356599478986 756.0945748835087 393.46356599478986 723.18222401685&#10;s 8.053022020565427 -9.453547589359417 17.506569609924846 -9.453547589359417&#10;S 428.47670521463954 690.2698731501913 428.47670521463954 723.18222401685&#10;z" fill="none" stroke="none"/><circle cx="0" cy="0" r="2.257866584639752" fill="#221a1a"><animateMotion begin="-12.831341125026356s" dur="20s" repeatCount="indefinite"><mpath xlink:href="#path81"/></animateMotion></circle><path id="path82" d="M 422.62659433372517 509.2722055883397&#10;c 0 24.86377752719962 -6.0836902460169275 7.141723332280741 -13.225413578297669 7.141723332280741&#10;S 396.17576717712984 534.1359831155394 396.17576717712984 509.2722055883397&#10;s 6.0836902460169275 -7.141723332280741 13.225413578297669 -7.141723332280741&#10;S 422.62659433372517 484.4084280611401 422.62659433372517 509.2722055883397&#10;z" fill="none" stroke="none"/><circle cx="0" cy="0" r="2.1599982499401467" fill="#fad96d"><animateMotion begin="-8.068735265472732s" dur="20s" repeatCount="indefinite"><mpath xlink:href="#path82"/></animateMotion></circle><path id="path83" d="M 1207.0963449910735 353.72577842135667&#10;c 0 24.729597758301736 -6.050859025967446 7.1031823348313505 -13.154041360798796 7.1031823348313505&#10;S 1180.7882622694758 378.4553761796584 1180.7882622694758 353.72577842135667&#10;s 6.050859025967446 -7.1031823348313505 13.154041360798796 -7.1031823348313505&#10;S 1207.0963449910735 328.99618066305493 1207.0963449910735 353.72577842135667&#10;z" fill="none" stroke="none"/><circle cx="0" cy="0" r="2.4316013639589102" fill="#fad96d"><animateMotion begin="-16.271536679875254s" dur="20s" repeatCount="indefinite"><mpath xlink:href="#path83"/></animateMotion></circle><path id="path84" d="M 1139.642422972401 249.5696180421288&#10;c 0 29.86902378197143 -7.30837815941854 8.57940044801307 -15.88777860743161 8.57940044801307&#10;S 1107.8668657575379 279.4386418241002 1107.8668657575379 249.5696180421288&#10;s 7.30837815941854 -8.57940044801307 15.88777860743161 -8.57940044801307&#10;S 1139.642422972401 219.70059426015737 1139.642422972401 249.5696180421288&#10;z" fill="none" stroke="none"/><circle cx="0" cy="0" r="2.425338818260327" fill="#3e444e"><animateMotion begin="-6.063601542390802s" dur="20s" repeatCount="indefinite"><mpath xlink:href="#path84"/></animateMotion></circle><path id="path85" d="M 1762.6462240144049 334.05673278832455&#10;c 0 28.774331121580364 -7.040527827620727 8.264967449815636 -15.305495277436362 8.264967449815636&#10;S 1732.035233459532 362.8310639099049 1732.035233459532 334.05673278832455&#10;s 7.040527827620727 -8.264967449815636 15.305495277436362 -8.264967449815636&#10;S 1762.6462240144049 305.2824016667442 1762.6462240144049 334.05673278832455&#10;z" fill="none" stroke="none"/><circle cx="0" cy="0" r="2.851494682139794" fill="#813513"><animateMotion begin="-3.20610887870314s" dur="20s" repeatCount="indefinite"><mpath xlink:href="#path85"/></animateMotion></circle><path id="path86" d="M 670.9337565143268 599.2174282957039&#10;c 0 35.19836114535206 -8.612364961096779 10.110167563026655 -18.722532524123434 10.110167563026655&#10;S 633.48869146608 634.415789441056 633.48869146608 599.2174282957039&#10;s 8.612364961096779 -10.110167563026655 18.722532524123434 -10.110167563026655&#10;S 670.9337565143268 564.0190671503519 670.9337565143268 599.2174282957039&#10;z" fill="none" stroke="none"/><circle cx="0" cy="0" r="3.173692640362899" fill="#3e444e"><animateMotion begin="-15.920543809568608s" dur="20s" repeatCount="indefinite"><mpath xlink:href="#path86"/></animateMotion></circle><path id="path87" d="M 82.51200948844325 132.76254560901745&#10;c 0 29.491120354042494 -7.21591242705295 8.470853718714334 -15.686766145767283 8.470853718714334&#10;S 51.138477196908696 162.25366596305994 51.138477196908696 132.76254560901745&#10;s 7.21591242705295 -8.470853718714334 15.686766145767283 -8.470853718714334&#10;S 82.51200948844325 103.27142525497496 82.51200948844325 132.76254560901745&#10;z" fill="none" stroke="none"/><circle cx="0" cy="0" r="3.7829577210646903" fill="#959795"><animateMotion begin="-12.454993041444649s" dur="20s" repeatCount="indefinite"><mpath xlink:href="#path87"/></animateMotion></circle><path id="path88" d="M 293.595695711529 237.7851081463194&#10;c 0 24.60236015029997 -6.019726419754247 7.066635362320205 -13.086361782074452 7.066635362320205&#10;S 267.4229721473801 262.3874682966194 267.4229721473801 237.7851081463194&#10;s 6.019726419754247 -7.066635362320205 13.086361782074452 -7.066635362320205&#10;S 293.595695711529 213.18274799601943 293.595695711529 237.7851081463194&#10;z" fill="none" stroke="none"/><circle cx="0" cy="0" r="3.722113953725219" fill="#e8e1d6"><animateMotion begin="-8.33375087746468s" dur="20s" repeatCount="indefinite"><mpath xlink:href="#path88"/></animateMotion></circle><path id="path89" d="M 193.6346661511695 269.6762562685433&#10;c 0 29.552304763318368 -7.230883080386408 8.488427963931873 -15.71931104431828 8.488427963931873&#10;S 162.19604406253293 299.22856103186166 162.19604406253293 269.6762562685433&#10;s 7.230883080386408 -8.488427963931873 15.71931104431828 -8.488427963931873&#10;S 193.6346661511695 240.1239515052249 193.6346661511695 269.6762562685433&#10;z" fill="none" stroke="none"/><circle cx="0" cy="0" r="2.223874002616105" fill="#e8e1d6"><animateMotion begin="-11.010036039390787s" dur="20s" repeatCount="indefinite"><mpath xlink:href="#path89"/></animateMotion></circle><path id="path90" d="M 1221.4982330627074 957.0119880050567&#10;c 0 20.41801775521263 -4.9958979613818135 5.864749780752564 -10.860647742134377 5.864749780752564&#10;S 1199.7769375784385 977.4300057602693 1199.7769375784385 957.0119880050567&#10;s 4.9958979613818135 -5.864749780752564 10.860647742134377 -5.864749780752564&#10;S 1221.4982330627074 936.593970249844 1221.4982330627074 957.0119880050567&#10;z" fill="none" stroke="none"/><circle cx="0" cy="0" r="3.4909980043027735" fill="#221a1a"><animateMotion begin="-3.296831740916746s" dur="20s" repeatCount="indefinite"><mpath xlink:href="#path90"/></animateMotion></circle><path id="path91" d="M 1429.4934152793655 385.81137804798834&#10;c 0 25.527536777105656 -6.2460994241854255 7.332377584913327 -13.578477009098753 7.332377584913327&#10;S 1402.3364612611679 411.338914825094 1402.3364612611679 385.81137804798834&#10;s 6.2460994241854255 -7.332377584913327 13.578477009098753 -7.332377584913327&#10;S 1429.4934152793655 360.2838412708827 1429.4934152793655 385.81137804798834&#10;z" fill="none" stroke="none"/><circle cx="0" cy="0" r="2.7664098584807086" fill="#221a1a"><animateMotion begin="-16.495078728615283s" dur="20s" repeatCount="indefinite"><mpath xlink:href="#path91"/></animateMotion></circle><path id="path92" d="M 1188.832227261573 622.8509068443232&#10;c 0 30.80380613313811 -7.537101500661452 8.847901761646053 -16.385003262307507 8.847901761646053&#10;S 1156.0622207369581 653.6547129774613 1156.0622207369581 622.8509068443232&#10;s 7.537101500661452 -8.847901761646053 16.385003262307507 -8.847901761646053&#10;S 1188.832227261573 592.0471007111851 1188.832227261573 622.8509068443232&#10;z" fill="none" stroke="none"/><circle cx="0" cy="0" r="2.129219841127268" fill="#959795"><animateMotion begin="-1.7566613834657163s" dur="20s" repeatCount="indefinite"><mpath xlink:href="#path92"/></animateMotion></circle><path id="path93" d="M 1374.7866462669049 133.2228429634784&#10;c 0 25.337919993682338 -6.1997038282414225 7.277913189674714 -13.477617017916137 7.277913189674714&#10;S 1347.8314122310726 158.56076295716073 1347.8314122310726 133.2228429634784&#10;s 6.1997038282414225 -7.277913189674714 13.477617017916137 -7.277913189674714&#10;S 1374.7866462669049 107.88492296979607 1374.7866462669049 133.2228429634784&#10;z" fill="none" stroke="none"/><circle cx="0" cy="0" r="3.909863967305478" fill="#e8e1d6"><animateMotion begin="-2.1459078103713214s" dur="20s" repeatCount="indefinite"><mpath xlink:href="#path93"/></animateMotion></circle><path id="path94" d="M 777.8024660731602 729.9385207172602&#10;c 0 18.98114885811761 -4.644323656773457 5.452032118821015 -10.096355775594471 5.452032118821015&#10;S 757.6097545219712 748.9196695753778 757.6097545219712 729.9385207172602&#10;s 4.644323656773457 -5.452032118821015 10.096355775594471 -5.452032118821015&#10;S 777.8024660731602 710.9573718591425 777.8024660731602 729.9385207172602&#10;z" fill="none" stroke="none"/><circle cx="0" cy="0" r="3.4826696377715045" fill="#4a6985"><animateMotion begin="-9.487272924091696s" dur="20s" repeatCount="indefinite"><mpath xlink:href="#path94"/></animateMotion></circle><path id="path95" d="M 57.669261559761296 243.23244711873144&#10;c 0 34.54126147955234 -8.451585255635147 9.921426169658652 -18.373011425293797 9.921426169658652&#10;S 20.923238709173702 277.7737085982838 20.923238709173702 243.23244711873144&#10;s 8.451585255635147 -9.921426169658652 18.373011425293797 -9.921426169658652&#10;S 57.669261559761296 208.6911856391791 57.669261559761296 243.23244711873144&#10;z" fill="none" stroke="none"/><circle cx="0" cy="0" r="2.1477926957686524" fill="#fad96d"><animateMotion begin="-19.13188886709292s" dur="20s" repeatCount="indefinite"><mpath xlink:href="#path95"/></animateMotion></circle><path id="path96" d="M 831.4386707631221 757.7143892544128&#10;c 0 33.08696467952826 -8.095746676905849 9.503702620715563 -17.599449297621412 9.503702620715563&#10;S 796.2397721678793 790.8013539339411 796.2397721678793 757.7143892544128&#10;s 8.095746676905849 -9.503702620715563 17.599449297621412 -9.503702620715563&#10;S 831.4386707631221 724.6274245748846 831.4386707631221 757.7143892544128&#10;z" fill="none" stroke="none"/><circle cx="0" cy="0" r="3.7055111514852386" fill="#221a1a"><animateMotion begin="-9.147416964134415s" dur="20s" repeatCount="indefinite"><mpath xlink:href="#path96"/></animateMotion></circle><path id="path97" d="M 1326.078068013785 134.4846385896735&#10;c 0 30.36687950419524 -7.43019392123926 8.722401559715655 -16.152595480954915 8.722401559715655&#10;S 1293.7728770518752 164.85151809386872 1293.7728770518752 134.4846385896735&#10;s 7.43019392123926 -8.722401559715655 16.152595480954915 -8.722401559715655&#10;S 1326.078068013785 104.11775908547826 1326.078068013785 134.4846385896735&#10;z" fill="none" stroke="none"/><circle cx="0" cy="0" r="3.7113529891392836" fill="#221a1a"><animateMotion begin="-3.1618015696872215s" dur="20s" repeatCount="indefinite"><mpath xlink:href="#path97"/></animateMotion></circle><path id="path98" d="M 944.4985562582332 970.347141225542&#10;c 0 31.026234220476482 -7.591525394371904 8.911790680349629 -16.503316074721532 8.911790680349629&#10;S 911.4919241087902 1001.3733754460185 911.4919241087902 970.347141225542&#10;s 7.591525394371904 -8.911790680349629 16.503316074721532 -8.911790680349629&#10;S 944.4985562582332 939.3209070050656 944.4985562582332 970.347141225542&#10;z" fill="none" stroke="none"/><circle cx="0" cy="0" r="2.350380463926063" fill="#fad96d"><animateMotion begin="-9.473035441884562s" dur="20s" repeatCount="indefinite"><mpath xlink:href="#path98"/></animateMotion></circle><path id="path99" d="M 55.818478131875025 968.8626028463063&#10;c 0 23.29681803393316 -5.700285263621943 6.691639222512717 -12.39192448613466 6.691639222512717&#10;S 31.03462915960571 992.1594208802395 31.03462915960571 968.8626028463063&#10;s 5.700285263621943 -6.691639222512717 12.39192448613466 -6.691639222512717&#10;S 55.818478131875025 945.5657848123732 55.818478131875025 968.8626028463063&#10;z" fill="none" stroke="none"/><circle cx="0" cy="0" r="2.9884843631481255" fill="#fdfdfd"><animateMotion begin="-8.10692210259135s" dur="20s" repeatCount="indefinite"><mpath xlink:href="#path99"/></animateMotion></circle></g></svg>