<svg xmlns="http://www.w3.org/2000/svg" xmlns:xlink="http://www.w3.org/1999/xlink" style="margin:auto;background:#f1f2f3;display:block;z-index:1;position:relative" preserveAspectRatio="xMidYMid" viewBox="0 0 1792 1009"><g transform="translate(896,504.5) scale(1,1) translate(-896,-504.5)"><path id="path0" d="M 825.7441145513744 436.8102727973936&#10;c 0 27.602621048992145 -6.753832809859779 7.928412428965829 -14.682245238825608 7.928412428965829&#10;S 796.3796240737231 464.41289384638577 796.3796240737231 436.8102727973936&#10;s 6.753832809859779 -7.928412428965829 14.682245238825608 -7.928412428965829&#10;S 825.7441145513744 409.2076517484015 825.7441145513744 436.8102727973936&#10;z" fill="none" stroke="none"/><circle cx="0" cy="0" r="3.2100585583199983" fill="#a3d9ef"><animateMotion begin="-7.214814080609551s" dur="10s" repeatCount="indefinite"><mpath xlink:href="#path0"/></animateMotion></circle><path id="path1" d="M 49.6176638746734 908.4747436000082&#10;c 0 36.32724908923154 -8.88858222396091 10.434422610736721 -19.32300483469763 10.434422610736721&#10;S 10.971654205278139 944.8019926892398 10.971654205278139 908.4747436000082&#10;s 8.88858222396091 -10.434422610736721 19.32300483469763 -10.434422610736721&#10;S 49.6176638746734 872.1474945107766 49.6176638746734 908.4747436000082&#10;z" fill="none" stroke="none"/><circle cx="0" cy="0" r="2.626993436669466" fill="#82bbe4"><animateMotion begin="-6.84563552846583s" dur="10s" repeatCount="indefinite"><mpath xlink:href="#path1"/></animateMotion></circle><path id="path2" d="M 600.027890016203 69.51273124709223&#10;c 0 35.31593573699 -8.641133212242233 10.143938988284361 -18.785072200526592 10.143938988284361&#10;S 562.4577456151499 104.82866698408223 562.4577456151499 69.51273124709223&#10;s 8.641133212242233 -10.143938988284361 18.785072200526592 -10.143938988284361&#10;S 600.027890016203 34.196795510102234 600.027890016203 69.51273124709223&#10;z" fill="none" stroke="none"/><circle cx="0" cy="0" r="2.2189724375457427" fill="#a66156"><animateMotion begin="-6.4484499714809695s" dur="10s" repeatCount="indefinite"><mpath xlink:href="#path2"/></animateMotion></circle><path id="path3" d="M 1095.9320579180342 474.6786764528795&#10;c 0 32.81592403680668 -8.029428221771845 9.425850521210428 -17.455278742982273 9.425850521210428&#10;S 1061.0215004320696 507.49460048968615 1061.0215004320696 474.6786764528795&#10;s 8.029428221771845 -9.425850521210428 17.455278742982273 -9.425850521210428&#10;S 1095.9320579180342 441.8627524160728 1095.9320579180342 474.6786764528795&#10;z" fill="none" stroke="none"/><circle cx="0" cy="0" r="3.3627611946315166" fill="#a3d9ef"><animateMotion begin="-7.947315169648473s" dur="10s" repeatCount="indefinite"><mpath xlink:href="#path3"/></animateMotion></circle><path id="path4" d="M 1606.5635196271255 31.17456065782528&#10;c 0 25.137685845158078 -6.150710366368465 7.220399125736895 -13.37110949210536 7.220399125736895&#10;S 1579.8213006429146 56.312246502983356 1579.8213006429146 31.17456065782528&#10;s 6.150710366368465 -7.220399125736895 13.37110949210536 -7.220399125736895&#10;S 1606.5635196271255 6.0368748126672 1606.5635196271255 31.17456065782528&#10;z" fill="none" stroke="none"/><circle cx="0" cy="0" r="3.7253787522405664" fill="#a66156"><animateMotion begin="-2.0109234028017875s" dur="10s" repeatCount="indefinite"><mpath xlink:href="#path4"/></animateMotion></circle><path id="path5" d="M 1716.4029840078708 574.3593995293213&#10;c 0 35.553312811288905 -8.699214836804732 10.212121764944687 -18.91133660174942 10.212121764944687&#10;S 1678.5803108043722 609.9127123406103 1678.5803108043722 574.3593995293213&#10;s 8.699214836804732 -10.212121764944687 18.91133660174942 -10.212121764944687&#10;S 1716.4029840078708 538.8060867180324 1716.4029840078708 574.3593995293213&#10;z" fill="none" stroke="none"/><circle cx="0" cy="0" r="3.973443349004737" fill="#82bbe4"><animateMotion begin="-1.2497097120119505s" dur="10s" repeatCount="indefinite"><mpath xlink:href="#path5"/></animateMotion></circle><path id="path6" d="M 352.00170804232016 24.480773066188334&#10;c 0 28.776114677675626 -7.040964229644035 8.265479747842999 -15.306443977487035 8.265479747842999&#10;S 321.38882008734606 53.256887743863956 321.38882008734606 24.480773066188334&#10;s 7.040964229644035 -8.265479747842999 15.306443977487035 -8.265479747842999&#10;S 352.00170804232016 -4.2953416114872915 352.00170804232016 24.480773066188334&#10;z" fill="none" stroke="none"/><circle cx="0" cy="0" r="3.9099877112763672" fill="#f0ccb4"><animateMotion begin="-6.007555365618476s" dur="10s" repeatCount="indefinite"><mpath xlink:href="#path6"/></animateMotion></circle><path id="path7" d="M 124.96600441290849 690.5300718311369&#10;c 0 35.068724316522804 -8.580645311489622 10.072931452618253 -18.653576764107875 10.072931452618253&#10;S 87.65885088469275 725.5987961476596 87.65885088469275 690.5300718311369&#10;s 8.580645311489622 -10.072931452618253 18.653576764107875 -10.072931452618253&#10;S 124.96600441290849 655.4613475146141 124.96600441290849 690.5300718311369&#10;z" fill="none" stroke="none"/><circle cx="0" cy="0" r="3.4773516541017053" fill="#f0ccb4"><animateMotion begin="-1.2637716596444104s" dur="10s" repeatCount="indefinite"><mpath xlink:href="#path7"/></animateMotion></circle><path id="path8" d="M 1069.48675321342 317.2801138422259&#10;c 0 26.436819870855356 -6.468583585422055 7.593554643756326 -14.06213822917838 7.593554643756326&#10;S 1041.3624767550632 343.71693371308123 1041.3624767550632 317.2801138422259&#10;s 6.468583585422055 -7.593554643756326 14.06213822917838 -7.593554643756326&#10;S 1069.48675321342 290.84329397137054 1069.48675321342 317.2801138422259&#10;z" fill="none" stroke="none"/><circle cx="0" cy="0" r="2.928095584104441" fill="#a3d9ef"><animateMotion begin="-8.579266207529503s" dur="10s" repeatCount="indefinite"><mpath xlink:href="#path8"/></animateMotion></circle><path id="path9" d="M 281.0320231945407 438.4546142006457&#10;c 0 20.56230768584786 -5.031202944409582 5.906194760828641 -10.937397705238222 5.906194760828641&#10;S 259.15722778406433 459.0169218864936 259.15722778406433 438.4546142006457&#10;s 5.031202944409582 -5.906194760828641 10.937397705238222 -5.906194760828641&#10;S 281.0320231945407 417.89230651479784 281.0320231945407 438.4546142006457&#10;z" fill="none" stroke="none"/><circle cx="0" cy="0" r="3.2109457915059783" fill="#a3d9ef"><animateMotion begin="-0.7820467529506914s" dur="10s" repeatCount="indefinite"><mpath xlink:href="#path9"/></animateMotion></circle><path id="path10" d="M 1634.116068381073 223.64152127062184&#10;c 0 33.7282052084265 -8.252645955253293 9.687888730079953 -17.940534685333244 9.687888730079953&#10;S 1598.2349990104067 257.3697264790483 1598.2349990104067 223.64152127062184&#10;s 8.252645955253293 -9.687888730079953 17.940534685333244 -9.687888730079953&#10;S 1634.116068381073 189.91331606219535 1634.116068381073 223.64152127062184&#10;z" fill="none" stroke="none"/><circle cx="0" cy="0" r="3.602864244437584" fill="#a66156"><animateMotion begin="-4.89788250102966s" dur="10s" repeatCount="indefinite"><mpath xlink:href="#path10"/></animateMotion></circle><path id="path11" d="M 972.8185384275273 221.23949862651588&#10;c 0 31.982440773685294 -7.825490827603847 9.186445754143648 -17.011936581747495 9.186445754143648&#10;S 938.7946652640323 253.22193940020117 938.7946652640323 221.23949862651588&#10;s 7.825490827603847 -9.186445754143648 17.011936581747495 -9.186445754143648&#10;S 972.8185384275273 189.2570578528306 972.8185384275273 221.23949862651588&#10;z" fill="none" stroke="none"/><circle cx="0" cy="0" r="3.971369201520145" fill="#a3d9ef"><animateMotion begin="-2.764419288715887s" dur="10s" repeatCount="indefinite"><mpath xlink:href="#path11"/></animateMotion></circle><path id="path12" d="M 938.0176793765066 900.385149218684&#10;c 0 34.15510827347285 -8.35710096053059 9.810509823231564 -18.167610783762154 9.810509823231564&#10;S 901.6824578089823 934.5402574921568 901.6824578089823 900.385149218684&#10;s 8.35710096053059 -9.810509823231564 18.167610783762154 -9.810509823231564&#10;S 938.0176793765066 866.2300409452112 938.0176793765066 900.385149218684&#10;z" fill="none" stroke="none"/><circle cx="0" cy="0" r="3.4613185588171587" fill="#f0ccb4"><animateMotion begin="-9.152436908411136s" dur="10s" repeatCount="indefinite"><mpath xlink:href="#path12"/></animateMotion></circle><path id="path13" d="M 402.2438479667517 798.6827597039805&#10;c 0 21.065043278605394 -5.154212717105575 6.050597537471763 -11.204810254577337 6.050597537471763&#10;S 379.83422745759697 819.7478029825859 379.83422745759697 798.6827597039805&#10;s 5.154212717105575 -6.050597537471763 11.204810254577337 -6.050597537471763&#10;S 402.2438479667517 777.6177164253752 402.2438479667517 798.6827597039805&#10;z" fill="none" stroke="none"/><circle cx="0" cy="0" r="2.8817322540096386" fill="#211f1f"><animateMotion begin="-4.376366793741457s" dur="10s" repeatCount="indefinite"><mpath xlink:href="#path13"/></animateMotion></circle><path id="path14" d="M 1456.9335795854108 801.055351978494&#10;c 0 31.99474135101999 -7.828500543334678 9.18997889869723 -17.018479442031907 9.18997889869723&#10;S 1422.8966207013468 833.050093329514 1422.8966207013468 801.055351978494&#10;s 7.828500543334678 -9.18997889869723 17.018479442031907 -9.18997889869723&#10;S 1456.9335795854108 769.0606106274739 1456.9335795854108 801.055351978494&#10;z" fill="none" stroke="none"/><circle cx="0" cy="0" r="3.7034713496215197" fill="#a3d9ef"><animateMotion begin="-8.064914698412117s" dur="10s" repeatCount="indefinite"><mpath xlink:href="#path14"/></animateMotion></circle><path id="path15" d="M 1304.6793958390695 937.3267037045453&#10;c 0 32.60802999421371 -7.978560530499098 9.366136274933725 -17.34469680543282 9.366136274933725&#10;S 1269.9900022282036 969.9347336987589 1269.9900022282036 937.3267037045453&#10;s 7.978560530499098 -9.366136274933725 17.34469680543282 -9.366136274933725&#10;S 1304.6793958390695 904.7186737103316 1304.6793958390695 937.3267037045453&#10;z" fill="none" stroke="none"/><circle cx="0" cy="0" r="3.0343732960730594" fill="#a3d9ef"><animateMotion begin="-9.012543786560542s" dur="10s" repeatCount="indefinite"><mpath xlink:href="#path15"/></animateMotion></circle><path id="path16" d="M 1715.3612223125726 900.8285559204181&#10;c 0 22.909386264529196 -5.605488128555016 6.5803556291732805 -12.185843757728296 6.5803556291732805&#10;S 1690.9895347971162 923.7379421849473 1690.9895347971162 900.8285559204181&#10;s 5.605488128555016 -6.5803556291732805 12.185843757728296 -6.5803556291732805&#10;S 1715.3612223125726 877.9191696558889 1715.3612223125726 900.8285559204181&#10;z" fill="none" stroke="none"/><circle cx="0" cy="0" r="3.996585165861886" fill="#82bbe4"><animateMotion begin="-7.178620851150052s" dur="10s" repeatCount="indefinite"><mpath xlink:href="#path16"/></animateMotion></circle><path id="path17" d="M 834.9562505269439 372.14597060893794&#10;c 0 25.343143693615353 -6.200981967586735 7.279413614123559 -13.480395581710294 7.279413614123559&#10;S 807.9954593635234 397.4891143025533 807.9954593635234 372.14597060893794&#10;s 6.200981967586735 -7.279413614123559 13.480395581710294 -7.279413614123559&#10;S 834.9562505269439 346.8028269153226 834.9562505269439 372.14597060893794&#10;z" fill="none" stroke="none"/><circle cx="0" cy="0" r="3.5642606870462665" fill="#a3d9ef"><animateMotion begin="-0.4710592675588443s" dur="10s" repeatCount="indefinite"><mpath xlink:href="#path17"/></animateMotion></circle><path id="path18" d="M 1310.9090485574566 660.9238372709494&#10;c 0 19.314013996481265 -4.725769382117756 5.547642318138236 -10.273411700255991 5.547642318138236&#10;S 1290.3622251569445 680.2378512674306 1290.3622251569445 660.9238372709494&#10;s 4.725769382117756 -5.547642318138236 10.273411700255991 -5.547642318138236&#10;S 1310.9090485574566 641.6098232744682 1310.9090485574566 660.9238372709494&#10;z" fill="none" stroke="none"/><circle cx="0" cy="0" r="2.567549504972565" fill="#f0ccb4"><animateMotion begin="-5.680090856954632s" dur="10s" repeatCount="indefinite"><mpath xlink:href="#path18"/></animateMotion></circle><path id="path19" d="M 402.3357476447156 570.797241590863&#10;c 0 20.574257924235493 -5.034126938908684 5.909627276110196 -10.94375421501888 5.909627276110196&#10;S 380.4482392146778 591.3714995150984 380.4482392146778 570.797241590863&#10;s 5.034126938908684 -5.909627276110196 10.94375421501888 -5.909627276110196&#10;S 402.3357476447156 550.2229836666276 402.3357476447156 570.797241590863&#10;z" fill="none" stroke="none"/><circle cx="0" cy="0" r="2.531735553328803" fill="#a3d9ef"><animateMotion begin="-1.2933284336952267s" dur="10s" repeatCount="indefinite"><mpath xlink:href="#path19"/></animateMotion></circle><path id="path20" d="M 459.3530536475727 231.46444587929832&#10;c 0 32.67915217217365 -7.995962765531851 9.386564985624348 -17.382527751156196 9.386564985624348&#10;S 424.5879981452603 264.143598051472 424.5879981452603 231.46444587929832&#10;s 7.995962765531851 -9.386564985624348 17.382527751156196 -9.386564985624348&#10;S 459.3530536475727 198.78529370712468 459.3530536475727 231.46444587929832&#10;z" fill="none" stroke="none"/><circle cx="0" cy="0" r="3.7025557928881696" fill="#82bbe4"><animateMotion begin="-5.164212588505224s" dur="10s" repeatCount="indefinite"><mpath xlink:href="#path20"/></animateMotion></circle><path id="path21" d="M 652.7909236772764 510.5146925264738&#10;c 0 19.30878109139721 -4.724488990448253 5.546139249656647 -10.2706282401049 5.546139249656647&#10;S 632.2496671970666 529.8234736178711 632.2496671970666 510.5146925264738&#10;s 4.724488990448253 -5.546139249656647 10.2706282401049 -5.546139249656647&#10;S 652.7909236772764 491.2059114350766 652.7909236772764 510.5146925264738&#10;z" fill="none" stroke="none"/><circle cx="0" cy="0" r="2.4305049344265126" fill="#211f1f"><animateMotion begin="-3.755163820926284s" dur="10s" repeatCount="indefinite"><mpath xlink:href="#path21"/></animateMotion></circle><path id="path22" d="M 586.1522993211682 19.67640775609601&#10;c 0 36.23188778939142 -8.865249139957474 10.407031599080515 -19.27228073903799 10.407031599080515&#10;S 547.6077378430922 55.908295545487434 547.6077378430922 19.67640775609601&#10;s 8.865249139957474 -10.407031599080515 19.27228073903799 -10.407031599080515&#10;S 586.1522993211682 -16.555480033295414 586.1522993211682 19.67640775609601&#10;z" fill="none" stroke="none"/><circle cx="0" cy="0" r="2.962675784773327" fill="#a66156"><animateMotion begin="-8.130009792233697s" dur="10s" repeatCount="indefinite"><mpath xlink:href="#path22"/></animateMotion></circle><path id="path23" d="M 384.2867943650518 40.19129010157636&#10;c 0 28.754948240046716 -7.035785207671004 8.259400026396397 -15.2951852340674 8.259400026396397&#10;S 353.696423896917 68.94623834162307 353.696423896917 40.19129010157636&#10;s 7.035785207671004 -8.259400026396397 15.2951852340674 -8.259400026396397&#10;S 384.2867943650518 11.436341861529641 384.2867943650518 40.19129010157636&#10;z" fill="none" stroke="none"/><circle cx="0" cy="0" r="3.470998222727443" fill="#a3d9ef"><animateMotion begin="-5.205856227822794s" dur="10s" repeatCount="indefinite"><mpath xlink:href="#path23"/></animateMotion></circle><path id="path24" d="M 484.6059958038461 696.0805139815071&#10;c 0 19.49020302154583 -4.768879462718661 5.598249804061037 -10.367129266779697 5.598249804061037&#10;S 463.87173727028676 715.570717003053 463.87173727028676 696.0805139815071&#10;s 4.768879462718661 -5.598249804061037 10.367129266779697 -5.598249804061037&#10;S 484.6059958038461 676.5903109599612 484.6059958038461 696.0805139815071&#10;z" fill="none" stroke="none"/><circle cx="0" cy="0" r="3.5384671874247795" fill="#a3d9ef"><animateMotion begin="-0.7810555424636489s" dur="10s" repeatCount="indefinite"><mpath xlink:href="#path24"/></animateMotion></circle><path id="path25" d="M 1015.1474951652833 122.61905282251605&#10;c 0 33.54055937112 -8.20673261208255 9.633990457662126 -17.840723069744676 9.633990457662126&#10;S 979.4660490257941 156.15961219363606 979.4660490257941 122.61905282251605&#10;s 8.20673261208255 -9.633990457662126 17.840723069744676 -9.633990457662126&#10;S 1015.1474951652833 89.07849345139606 1015.1474951652833 122.61905282251605&#10;z" fill="none" stroke="none"/><circle cx="0" cy="0" r="2.2298127032199058" fill="#82bbe4"><animateMotion begin="-7.600770381835005s" dur="10s" repeatCount="indefinite"><mpath xlink:href="#path25"/></animateMotion></circle><path id="path26" d="M 982.2105358093455 721.3418317309897&#10;c 0 28.60806106426566 -6.999844728490532 8.217209029097583 -15.217053757588115 8.217209029097583&#10;S 951.7764282941692 749.9498927952554 951.7764282941692 721.3418317309897&#10;s 6.999844728490532 -8.217209029097583 15.217053757588115 -8.217209029097583&#10;S 982.2105358093455 692.733770666724 982.2105358093455 721.3418317309897&#10;z" fill="none" stroke="none"/><circle cx="0" cy="0" r="3.549835740496343" fill="#82bbe4"><animateMotion begin="-4.226495406974835s" dur="10s" repeatCount="indefinite"><mpath xlink:href="#path26"/></animateMotion></circle><path id="path27" d="M 107.14459214142661 288.9079527235355&#10;c 0 36.18035304486095 -8.852639574806402 10.392229066077082 -19.24486864088348 10.392229066077082&#10;S 68.65485485965965 325.0883057683965 68.65485485965965 288.9079527235355&#10;s 8.852639574806402 -10.392229066077082 19.24486864088348 -10.392229066077082&#10;S 107.14459214142661 252.72759967867455 107.14459214142661 288.9079527235355&#10;z" fill="none" stroke="none"/><circle cx="0" cy="0" r="2.519798469956868" fill="#a66156"><animateMotion begin="-8.47290708606793s" dur="10s" repeatCount="indefinite"><mpath xlink:href="#path27"/></animateMotion></circle><path id="path28" d="M 824.7008916473056 545.8432257426819&#10;c 0 26.798871595634978 -6.55717070957026 7.697548224278132 -14.254718933848391 7.697548224278132&#10;S 796.1914537796089 572.6420973383168 796.1914537796089 545.8432257426819&#10;s 6.55717070957026 -7.697548224278132 14.254718933848391 -7.697548224278132&#10;S 824.7008916473056 519.0443541470469 824.7008916473056 545.8432257426819&#10;z" fill="none" stroke="none"/><circle cx="0" cy="0" r="3.0372747734904486" fill="#f0ccb4"><animateMotion begin="-2.802276306567466s" dur="10s" repeatCount="indefinite"><mpath xlink:href="#path28"/></animateMotion></circle><path id="path29" d="M 968.327710681655 799.040664756836&#10;c 0 27.558607764659204 -6.743063601991081 7.915770315380835 -14.658833917371917 7.915770315380835&#10;S 939.0100428469112 826.5992725214952 939.0100428469112 799.040664756836&#10;s 6.743063601991081 -7.915770315380835 14.658833917371917 -7.915770315380835&#10;S 968.327710681655 771.4820569921768 968.327710681655 799.040664756836&#10;z" fill="none" stroke="none"/><circle cx="0" cy="0" r="2.6390123328221353" fill="#a66156"><animateMotion begin="-5.092079346202447s" dur="10s" repeatCount="indefinite"><mpath xlink:href="#path29"/></animateMotion></circle><path id="path30" d="M 1295.1593501175928 549.2951145739054&#10;c 0 30.47363030031774 -7.456313796886255 8.753064022431692 -16.209377819317947 8.753064022431692&#10;S 1262.7405944789568 579.7687448742231 1262.7405944789568 549.2951145739054&#10;s 7.456313796886255 -8.753064022431692 16.209377819317947 -8.753064022431692&#10;S 1295.1593501175928 518.8214842735877 1295.1593501175928 549.2951145739054&#10;z" fill="none" stroke="none"/><circle cx="0" cy="0" r="2.126322440632946" fill="#211f1f"><animateMotion begin="-2.9441362194697196s" dur="10s" repeatCount="indefinite"><mpath xlink:href="#path30"/></animateMotion></circle><path id="path31" d="M 953.9229550678008 979.1123232753424&#10;c 0 30.38819309658623 -7.4354089491647155 8.72852354901945 -16.163932498184167 8.72852354901945&#10;S 921.5950900714324 1009.5005163719286 921.5950900714324 979.1123232753424&#10;s 7.4354089491647155 -8.72852354901945 16.163932498184167 -8.72852354901945&#10;S 953.9229550678008 948.7241301787562 953.9229550678008 979.1123232753424&#10;z" fill="none" stroke="none"/><circle cx="0" cy="0" r="3.897192981641113" fill="#211f1f"><animateMotion begin="-3.094415904793717s" dur="10s" repeatCount="indefinite"><mpath xlink:href="#path31"/></animateMotion></circle><path id="path32" d="M 1563.0554339689443 987.8599075557165&#10;c 0 26.625639572885643 -6.514784150812443 7.6477900900841735 -14.162574240896618 7.6477900900841735&#10;S 1534.730285487151 1014.4855471286022 1534.730285487151 987.8599075557165&#10;s 6.514784150812443 -7.6477900900841735 14.162574240896618 -7.6477900900841735&#10;S 1563.0554339689443 961.2342679828308 1563.0554339689443 987.8599075557165&#10;z" fill="none" stroke="none"/><circle cx="0" cy="0" r="3.2185369846047562" fill="#a3d9ef"><animateMotion begin="-3.750155052240043s" dur="10s" repeatCount="indefinite"><mpath xlink:href="#path32"/></animateMotion></circle><path id="path33" d="M 1342.7394703545601 397.2485493006687&#10;c 0 31.694458397708267 -7.755027054758405 9.103727412107695 -16.8587544668661 9.103727412107695&#10;S 1309.0219614208281 428.94300769837696 1309.0219614208281 397.2485493006687&#10;s 7.755027054758405 -9.103727412107695 16.8587544668661 -9.103727412107695&#10;S 1342.7394703545601 365.5540909029604 1342.7394703545601 397.2485493006687&#10;z" fill="none" stroke="none"/><circle cx="0" cy="0" r="2.321292894624844" fill="#211f1f"><animateMotion begin="-4.040319613801122s" dur="10s" repeatCount="indefinite"><mpath xlink:href="#path33"/></animateMotion></circle><path id="path34" d="M 332.3553523431621 820.1495089638692&#10;c 0 30.740990448548093 -7.521731705495809 8.829858958625517 -16.351590664121325 8.829858958625517&#10;S 299.6521710149195 850.8904994124173 299.6521710149195 820.1495089638692&#10;s 7.521731705495809 -8.829858958625517 16.351590664121325 -8.829858958625517&#10;S 332.3553523431621 789.408518515321 332.3553523431621 820.1495089638692&#10;z" fill="none" stroke="none"/><circle cx="0" cy="0" r="2.7769649683602844" fill="#211f1f"><animateMotion begin="-2.6601227768061286s" dur="10s" repeatCount="indefinite"><mpath xlink:href="#path34"/></animateMotion></circle><path id="path35" d="M 372.87091906234224 397.9322807788365&#10;c 0 32.418817404094035 -7.932263832916625 9.311787977771692 -17.244051810688315 9.311787977771692&#10;S 338.38281544096566 430.35109818293057 338.38281544096566 397.9322807788365&#10;s 7.932263832916625 -9.311787977771692 17.244051810688315 -9.311787977771692&#10;S 372.87091906234224 365.51346337474246 372.87091906234224 397.9322807788365&#10;z" fill="none" stroke="none"/><circle cx="0" cy="0" r="2.680206656425728" fill="#f0ccb4"><animateMotion begin="-0.4171101606068839s" dur="10s" repeatCount="indefinite"><mpath xlink:href="#path35"/></animateMotion></circle><path id="path36" d="M 210.7002242092921 926.8055580837569&#10;c 0 25.45141507258712 -6.227473900739402 7.310512839998429 -13.53798674073783 7.310512839998429&#10;S 183.62425072781642 952.256973156344 183.62425072781642 926.8055580837569&#10;s 6.227473900739402 -7.310512839998429 13.53798674073783 -7.310512839998429&#10;S 210.7002242092921 901.3541430111698 210.7002242092921 926.8055580837569&#10;z" fill="none" stroke="none"/><circle cx="0" cy="0" r="3.6533252613837583" fill="#a66156"><animateMotion begin="-9.14511096754145s" dur="10s" repeatCount="indefinite"><mpath xlink:href="#path36"/></animateMotion></circle><path id="path37" d="M 767.5879385371927 565.045475758749&#10;c 0 25.30901714344562 -6.192631854247332 7.269611307159912 -13.462243161407244 7.269611307159912&#10;S 740.6634522143781 590.3544929021947 740.6634522143781 565.045475758749&#10;s 6.192631854247332 -7.269611307159912 13.462243161407244 -7.269611307159912&#10;S 767.5879385371927 539.7364586153034 767.5879385371927 565.045475758749&#10;z" fill="none" stroke="none"/><circle cx="0" cy="0" r="3.260461129284885" fill="#a3d9ef"><animateMotion begin="-0.11255133081179425s" dur="10s" repeatCount="indefinite"><mpath xlink:href="#path37"/></animateMotion></circle><path id="path38" d="M 1700.1997061838308 130.14574788559364&#10;c 0 25.495859599850707 -6.238348625495385 7.323278821233714 -13.561627446729098 7.323278821233714&#10;S 1673.0764512903727 155.64160748544435 1673.0764512903727 130.14574788559364&#10;s 6.238348625495385 -7.323278821233714 13.561627446729098 -7.323278821233714&#10;S 1700.1997061838308 104.64988828574293 1700.1997061838308 130.14574788559364&#10;z" fill="none" stroke="none"/><circle cx="0" cy="0" r="3.8948356817547234" fill="#f0ccb4"><animateMotion begin="-3.1293028647383903s" dur="10s" repeatCount="indefinite"><mpath xlink:href="#path38"/></animateMotion></circle><path id="path39" d="M 345.95997965925386 725.9588274167003&#10;c 0 24.40379546034942 -5.971141442425921 7.009600823717387 -12.980742266143308 7.009600823717387&#10;S 319.99849512696727 750.3626228770497 319.99849512696727 725.9588274167003&#10;s 5.971141442425921 -7.009600823717387 12.980742266143308 -7.009600823717387&#10;S 345.95997965925386 701.5550319563508 345.95997965925386 725.9588274167003&#10;z" fill="none" stroke="none"/><circle cx="0" cy="0" r="3.632922924274989" fill="#a66156"><animateMotion begin="-4.128873339348456s" dur="10s" repeatCount="indefinite"><mpath xlink:href="#path39"/></animateMotion></circle><path id="path40" d="M 166.76004129038853 994.6613945507485&#10;c 0 21.275455677099153 -5.205696601843409 6.111035141294438 -11.316731743137847 6.111035141294438&#10;S 144.12657780411286 1015.9368502278476 144.12657780411286 994.6613945507485&#10;s 5.205696601843409 -6.111035141294438 11.316731743137847 -6.111035141294438&#10;S 166.76004129038853 973.3859388736494 166.76004129038853 994.6613945507485&#10;z" fill="none" stroke="none"/><circle cx="0" cy="0" r="2.511206149439191" fill="#a3d9ef"><animateMotion begin="-8.254193339335218s" dur="10s" repeatCount="indefinite"><mpath xlink:href="#path40"/></animateMotion></circle><path id="path41" d="M 452.7397162519185 622.2295986743441&#10;c 0 23.685240993537114 -5.795324923950569 6.803207519420235 -12.598532443370804 6.803207519420235&#10;S 427.5426513651769 645.9148396678812 427.5426513651769 622.2295986743441&#10;s 5.795324923950569 -6.803207519420235 12.598532443370804 -6.803207519420235&#10;S 452.7397162519185 598.5443576808069 452.7397162519185 622.2295986743441&#10;z" fill="none" stroke="none"/><circle cx="0" cy="0" r="3.061418041740746" fill="#f0ccb4"><animateMotion begin="-5.3545059716465s" dur="10s" repeatCount="indefinite"><mpath xlink:href="#path41"/></animateMotion></circle><path id="path42" d="M 1283.4672567997122 349.66508232810855&#10;c 0 36.58545975224796 -8.95176142874152 10.508589503305265 -19.460350932046783 10.508589503305265&#10;S 1244.5465549356186 386.2505420803565 1244.5465549356186 349.66508232810855&#10;s 8.95176142874152 -10.508589503305265 19.460350932046783 -10.508589503305265&#10;S 1283.4672567997122 313.0796225758606 1283.4672567997122 349.66508232810855&#10;z" fill="none" stroke="none"/><circle cx="0" cy="0" r="3.5911706124304197" fill="#211f1f"><animateMotion begin="-0.5111275692317241s" dur="10s" repeatCount="indefinite"><mpath xlink:href="#path42"/></animateMotion></circle><path id="path43" d="M 669.466504778649 925.0191393297371&#10;c 0 26.436793728407544 -6.468577188865674 7.593547134755358 -14.062124323621033 7.593547134755358&#10;S 641.342256131407 951.4559330581446 641.342256131407 925.0191393297371&#10;s 6.468577188865674 -7.593547134755358 14.062124323621033 -7.593547134755358&#10;S 669.466504778649 898.5823456013295 669.466504778649 925.0191393297371&#10;z" fill="none" stroke="none"/><circle cx="0" cy="0" r="2.2420471503819877" fill="#82bbe4"><animateMotion begin="-7.3806274417764195s" dur="10s" repeatCount="indefinite"><mpath xlink:href="#path43"/></animateMotion></circle><path id="path44" d="M 285.66168467089926 475.8958305105676&#10;c 0 24.835201502395755 -6.0766982399478975 7.133515325156228 -13.210213565104125 7.133515325156228&#10;S 259.241257540691 500.73103201296334 259.241257540691 475.8958305105676&#10;s 6.0766982399478975 -7.133515325156228 13.210213565104125 -7.133515325156228&#10;S 285.66168467089926 451.0606290081718 285.66168467089926 475.8958305105676&#10;z" fill="none" stroke="none"/><circle cx="0" cy="0" r="3.889016286608869" fill="#a3d9ef"><animateMotion begin="-4.0430023970702145s" dur="10s" repeatCount="indefinite"><mpath xlink:href="#path44"/></animateMotion></circle><path id="path45" d="M 1265.7345084358694 57.51476830018736&#10;c 0 36.340157528585564 -8.891740671887957 10.43813035395543 -19.329871025843385 10.43813035395543&#10;S 1227.0747663841826 93.85492582877293 1227.0747663841826 57.51476830018736&#10;s 8.891740671887957 -10.43813035395543 19.329871025843385 -10.43813035395543&#10;S 1265.7345084358694 21.1746107716018 1265.7345084358694 57.51476830018736&#10;z" fill="none" stroke="none"/><circle cx="0" cy="0" r="2.1039636685064105" fill="#a66156"><animateMotion begin="-1.0815842799453823s" dur="10s" repeatCount="indefinite"><mpath xlink:href="#path45"/></animateMotion></circle><path id="path46" d="M 864.8886587534982 759.2605864940659&#10;c 0 26.14923121434626 -6.398216148191105 7.510949391354777 -13.909165539545882 7.510949391354777&#10;S 837.0703276744066 785.4098177084122 837.0703276744066 759.2605864940659&#10;s 6.398216148191105 -7.510949391354777 13.909165539545882 -7.510949391354777&#10;S 864.8886587534982 733.1113552797196 864.8886587534982 759.2605864940659&#10;z" fill="none" stroke="none"/><circle cx="0" cy="0" r="2.711807089115663" fill="#211f1f"><animateMotion begin="-6.673866601949139s" dur="10s" repeatCount="indefinite"><mpath xlink:href="#path46"/></animateMotion></circle><path id="path47" d="M 1100.695732806881 589.8839177848816&#10;c 0 34.28571552440004 -8.389058053842561 9.848024671902138 -18.2370827257447 9.848024671902138&#10;S 1064.2215673553915 624.1696333092817 1064.2215673553915 589.8839177848816&#10;s 8.389058053842561 -9.848024671902138 18.2370827257447 -9.848024671902138&#10;S 1100.695732806881 555.5982022604816 1100.695732806881 589.8839177848816&#10;z" fill="none" stroke="none"/><circle cx="0" cy="0" r="2.8640707722878944" fill="#82bbe4"><animateMotion begin="-0.7604969852840959s" dur="10s" repeatCount="indefinite"><mpath xlink:href="#path47"/></animateMotion></circle><path id="path48" d="M 1549.2497521463342 946.3735877958266&#10;c 0 32.83137698143061 -8.033209261413871 9.430289132964111 -17.463498394377982 9.430289132964111&#10;S 1514.3227553575784 979.2049647772571 1514.3227553575784 946.3735877958266&#10;s 8.033209261413871 -9.430289132964111 17.463498394377982 -9.430289132964111&#10;S 1549.2497521463342 913.542210814396 1549.2497521463342 946.3735877958266&#10;z" fill="none" stroke="none"/><circle cx="0" cy="0" r="2.6076439774030455" fill="#f0ccb4"><animateMotion begin="-2.7270346061046835s" dur="10s" repeatCount="indefinite"><mpath xlink:href="#path48"/></animateMotion></circle><path id="path49" d="M 899.7773805912657 724.8255772180665&#10;c 0 29.54877501131136 -7.230019417661289 8.487414098993689 -15.717433516654978 8.487414098993689&#10;S 868.3425135579557 754.3743522293779 868.3425135579557 724.8255772180665&#10;s 7.230019417661289 -8.487414098993689 15.717433516654978 -8.487414098993689&#10;S 899.7773805912657 695.2768022067552 899.7773805912657 724.8255772180665&#10;z" fill="none" stroke="none"/><circle cx="0" cy="0" r="3.953026659619591" fill="#82bbe4"><animateMotion begin="-2.5017601534993705s" dur="10s" repeatCount="indefinite"><mpath xlink:href="#path49"/></animateMotion></circle><path id="path50" d="M 1071.922146111126 979.8403279879155&#10;c 0 36.68457190070855 -8.976012273577624 10.537057886373733 -19.513070159951354 10.537057886373733&#10;S 1032.8960057912232 1016.5248998886241 1032.8960057912232 979.8403279879155&#10;s 8.976012273577624 -10.537057886373733 19.513070159951354 -10.537057886373733&#10;S 1071.922146111126 943.155756087207 1071.922146111126 979.8403279879155&#10;z" fill="none" stroke="none"/><circle cx="0" cy="0" r="3.8099929067969325" fill="#82bbe4"><animateMotion begin="-3.6819722583167502s" dur="10s" repeatCount="indefinite"><mpath xlink:href="#path50"/></animateMotion></circle><path id="path51" d="M 555.395630842265 94.28161731344119&#10;c 0 24.769809521687364 -6.060698074455418 7.114732522186796 -13.175430596642215 7.114732522186796&#10;S 529.0447696489806 119.05142683512855 529.0447696489806 94.28161731344119&#10;s 6.060698074455418 -7.114732522186796 13.175430596642215 -7.114732522186796&#10;S 555.395630842265 69.51180779175382 555.395630842265 94.28161731344119&#10;z" fill="none" stroke="none"/><circle cx="0" cy="0" r="3.9664952763401047" fill="#82bbe4"><animateMotion begin="-0.4186538633658521s" dur="10s" repeatCount="indefinite"><mpath xlink:href="#path51"/></animateMotion></circle><path id="path52" d="M 750.2994000317001 369.31561150202276&#10;c 0 21.746961881036366 -5.321065141104643 6.246467774340234 -11.567532915444875 6.246467774340234&#10;S 727.1643342008103 391.06257338305915 727.1643342008103 369.31561150202276&#10;s 5.321065141104643 -6.246467774340234 11.567532915444875 -6.246467774340234&#10;S 750.2994000317001 347.5686496209864 750.2994000317001 369.31561150202276&#10;z" fill="none" stroke="none"/><circle cx="0" cy="0" r="3.4841113010587352" fill="#a66156"><animateMotion begin="-0.7744326062636908s" dur="10s" repeatCount="indefinite"><mpath xlink:href="#path52"/></animateMotion></circle><path id="path53" d="M 1527.1027044678458 100.7085664043387&#10;c 0 31.755723839206784 -7.770017535125063 9.12132493253812 -16.891342467663183 9.12132493253812&#10;S 1493.3200195325194 132.4642902435455 1493.3200195325194 100.7085664043387&#10;s 7.770017535125063 -9.12132493253812 16.891342467663183 -9.12132493253812&#10;S 1527.1027044678458 68.95284256513192 1527.1027044678458 100.7085664043387&#10;z" fill="none" stroke="none"/><circle cx="0" cy="0" r="3.8753748028673014" fill="#a66156"><animateMotion begin="-5.404401173439517s" dur="10s" repeatCount="indefinite"><mpath xlink:href="#path53"/></animateMotion></circle><path id="path54" d="M 1701.497289512682 562.6440639171817&#10;c 0 33.381915843919636 -8.1679155788314 9.588422636019471 -17.75633821485087 9.588422636019471&#10;S 1665.98461308298 596.0259797611013 1665.98461308298 562.6440639171817&#10;s 8.1679155788314 -9.588422636019471 17.75633821485087 -9.588422636019471&#10;S 1701.497289512682 529.2621480732621 1701.497289512682 562.6440639171817&#10;z" fill="none" stroke="none"/><circle cx="0" cy="0" r="2.2372241667941375" fill="#a3d9ef"><animateMotion begin="-5.024808638902032s" dur="10s" repeatCount="indefinite"><mpath xlink:href="#path54"/></animateMotion></circle><path id="path55" d="M 1085.1235223629567 938.384026717755&#10;c 0 24.953342720518286 -6.105605133743835 7.167449504829721 -13.273054638573555 7.167449504829721&#10;S 1058.5774130858097 963.3373694382733 1058.5774130858097 938.384026717755&#10;s 6.105605133743835 -7.167449504829721 13.273054638573555 -7.167449504829721&#10;S 1085.1235223629567 913.4306839972367 1085.1235223629567 938.384026717755&#10;z" fill="none" stroke="none"/><circle cx="0" cy="0" r="2.3603860689111076" fill="#a3d9ef"><animateMotion begin="-2.249321109790623s" dur="10s" repeatCount="indefinite"><mpath xlink:href="#path55"/></animateMotion></circle><path id="path56" d="M 886.5074990138997 258.2016580595393&#10;c 0 36.06676572680956 -8.824846933155529 10.359602921530405 -19.184449854685933 10.359602921530405&#10;S 848.1385993045279 294.2684237863488 848.1385993045279 258.2016580595393&#10;s 8.824846933155529 -10.359602921530405 19.184449854685933 -10.359602921530405&#10;S 886.5074990138997 222.13489233272972 886.5074990138997 258.2016580595393&#10;z" fill="none" stroke="none"/><circle cx="0" cy="0" r="2.46955591256699" fill="#211f1f"><animateMotion begin="-4.009809924483951s" dur="10s" repeatCount="indefinite"><mpath xlink:href="#path56"/></animateMotion></circle><path id="path57" d="M 1008.3969330920893 702.0016229462726&#10;c 0 35.348973383377285 -8.649216891677419 10.153428525012625 -18.802645416690044 10.153428525012625&#10;S 970.7916422587091 737.3505963296499 970.7916422587091 702.0016229462726&#10;s 8.649216891677419 -10.153428525012625 18.802645416690044 -10.153428525012625&#10;S 1008.3969330920893 666.6526495628954 1008.3969330920893 702.0016229462726&#10;z" fill="none" stroke="none"/><circle cx="0" cy="0" r="3.3120129580761337" fill="#211f1f"><animateMotion begin="-6.667303544046648s" dur="10s" repeatCount="indefinite"><mpath xlink:href="#path57"/></animateMotion></circle><path id="path58" d="M 905.3926415989797 822.761015790858&#10;c 0 31.119517753064688 -7.614350088515827 8.938584886518582 -16.552934975034407 8.938584886518582&#10;S 872.2867716489109 853.8805335439226 872.2867716489109 822.761015790858&#10;s 7.614350088515827 -8.938584886518582 16.552934975034407 -8.938584886518582&#10;S 905.3926415989797 791.6414980377933 905.3926415989797 822.761015790858&#10;z" fill="none" stroke="none"/><circle cx="0" cy="0" r="3.212932375064403" fill="#a3d9ef"><animateMotion begin="-8.518760752229566s" dur="10s" repeatCount="indefinite"><mpath xlink:href="#path58"/></animateMotion></circle><path id="path59" d="M 1521.9740093414348 608.0478127894276&#10;c 0 20.663590545098636 -5.05598492060924 5.935286645932587 -10.991271566541826 5.935286645932587&#10;S 1499.991466208351 628.7114033345262 1499.991466208351 608.0478127894276&#10;s 5.05598492060924 -5.935286645932587 10.991271566541826 -5.935286645932587&#10;S 1521.9740093414348 587.384222244329 1521.9740093414348 608.0478127894276&#10;z" fill="none" stroke="none"/><circle cx="0" cy="0" r="3.164927729927237" fill="#a66156"><animateMotion begin="-0.9163800868415595s" dur="10s" repeatCount="indefinite"><mpath xlink:href="#path59"/></animateMotion></circle><path id="path60" d="M 1271.0349520272941 854.9241465372664&#10;c 0 36.19199738580122 -8.855488722057745 10.395573717198223 -19.251062439255968 10.395573717198223&#10;S 1232.5328271487822 891.1161439230676 1232.5328271487822 854.9241465372664&#10;s 8.855488722057745 -10.395573717198223 19.251062439255968 -10.395573717198223&#10;S 1271.0349520272941 818.7321491514653 1271.0349520272941 854.9241465372664&#10;z" fill="none" stroke="none"/><circle cx="0" cy="0" r="2.7191721354778107" fill="#82bbe4"><animateMotion begin="-2.652477214573292s" dur="10s" repeatCount="indefinite"><mpath xlink:href="#path60"/></animateMotion></circle><path id="path61" d="M 1277.9618578709064 297.6454841406602&#10;c 0 19.27931829790208 -4.717280009061147 5.53767653237613 -10.254956541437277 5.53767653237613&#10;S 1257.451944788032 316.92480243856227 1257.451944788032 297.6454841406602&#10;s 4.717280009061147 -5.53767653237613 10.254956541437277 -5.53767653237613&#10;S 1277.9618578709064 278.3661658427581 1277.9618578709064 297.6454841406602&#10;z" fill="none" stroke="none"/><circle cx="0" cy="0" r="3.161187757013791" fill="#82bbe4"><animateMotion begin="-1.7780742975177888s" dur="10s" repeatCount="indefinite"><mpath xlink:href="#path61"/></animateMotion></circle><path id="path62" d="M 102.67127752567211 343.7925330846997&#10;c 0 36.739583245386726 -8.989472496211645 10.552859017291933 -19.542331513503576 10.552859017291933&#10;S 63.586614498664964 380.5321163300864 63.586614498664964 343.7925330846997&#10;s 8.989472496211645 -10.552859017291933 19.542331513503576 -10.552859017291933&#10;S 102.67127752567211 307.052949839313 102.67127752567211 343.7925330846997&#10;z" fill="none" stroke="none"/><circle cx="0" cy="0" r="3.416943211591805" fill="#f0ccb4"><animateMotion begin="-7.003950992690138s" dur="10s" repeatCount="indefinite"><mpath xlink:href="#path62"/></animateMotion></circle><path id="path63" d="M 1049.5441836343482 100.73336805733574&#10;c 0 33.13624496129211 -8.107804618188492 9.517857595264754 -17.625662213453246 9.517857595264754&#10;S 1014.2928592074417 133.86961301862783 1014.2928592074417 100.73336805733574&#10;s 8.107804618188492 -9.517857595264754 17.625662213453246 -9.517857595264754&#10;S 1049.5441836343482 67.59712309604363 1049.5441836343482 100.73336805733574&#10;z" fill="none" stroke="none"/><circle cx="0" cy="0" r="2.127649661140372" fill="#a66156"><animateMotion begin="-2.3053296721870375s" dur="10s" repeatCount="indefinite"><mpath xlink:href="#path63"/></animateMotion></circle><path id="path64" d="M 906.9659995077063 531.0906499459376&#10;c 0 29.186781516191946 -7.141446541195901 8.38343724401258 -15.52488378520848 8.38343724401258&#10;S 875.9162319372895 560.2774314621295 875.9162319372895 531.0906499459376&#10;s 7.141446541195901 -8.38343724401258 15.52488378520848 -8.38343724401258&#10;S 906.9659995077063 501.9038684297456 906.9659995077063 531.0906499459376&#10;z" fill="none" stroke="none"/><circle cx="0" cy="0" r="2.4149573042601737" fill="#82bbe4"><animateMotion begin="-9.374066604584891s" dur="10s" repeatCount="indefinite"><mpath xlink:href="#path64"/></animateMotion></circle><path id="path65" d="M 65.80955462854064 155.71008547778519&#10;c 0 30.289339981710953 -7.411221484886722 8.700129569214848 -16.11135105410157 8.700129569214848&#10;S 33.5868525203375 185.99942545949614 33.5868525203375 155.71008547778519&#10;s 7.411221484886722 -8.700129569214848 16.11135105410157 -8.700129569214848&#10;S 65.80955462854064 125.42074549607423 65.80955462854064 155.71008547778519&#10;z" fill="none" stroke="none"/><circle cx="0" cy="0" r="2.9866068355243196" fill="#f0ccb4"><animateMotion begin="-9.030720924038246s" dur="10s" repeatCount="indefinite"><mpath xlink:href="#path65"/></animateMotion></circle><path id="path66" d="M 898.2323114673578 944.5962814690203&#10;c 0 26.33003047815161 -6.442454265930712 7.562881094788228 -14.00533536071894 7.562881094788228&#10;S 870.2216407459199 970.9263119471718 870.2216407459199 944.5962814690203&#10;s 6.442454265930712 -7.562881094788228 14.00533536071894 -7.562881094788228&#10;S 898.2323114673578 918.2662509908687 898.2323114673578 944.5962814690203&#10;z" fill="none" stroke="none"/><circle cx="0" cy="0" r="3.9764356149902875" fill="#211f1f"><animateMotion begin="-1.3432641916560928s" dur="10s" repeatCount="indefinite"><mpath xlink:href="#path66"/></animateMotion></circle><path id="path67" d="M 864.3778204059483 345.66786555575396&#10;c 0 37.242308594705754 -9.112479762534386 10.697258851670803 -19.809738614205187 10.697258851670803&#10;S 824.7583431775379 382.91017415045974 824.7583431775379 345.66786555575396&#10;s 9.112479762534386 -10.697258851670803 19.809738614205187 -10.697258851670803&#10;S 864.3778204059483 308.4255569610482 864.3778204059483 345.66786555575396&#10;z" fill="none" stroke="none"/><circle cx="0" cy="0" r="2.0709049629543927" fill="#211f1f"><animateMotion begin="-3.0054728866357383s" dur="10s" repeatCount="indefinite"><mpath xlink:href="#path67"/></animateMotion></circle><path id="path68" d="M 1003.9142065686825 983.4759830091272&#10;c 0 21.760157003231978 -5.324293734833356 6.250257862630463 -11.574551597463818 6.250257862630463&#10;S 980.7651033737549 1005.2361400123591 980.7651033737549 983.4759830091272&#10;s 5.324293734833356 -6.250257862630463 11.574551597463818 -6.250257862630463&#10;S 1003.9142065686825 961.7158260058952 1003.9142065686825 983.4759830091272&#10;z" fill="none" stroke="none"/><circle cx="0" cy="0" r="3.882849353794249" fill="#a3d9ef"><animateMotion begin="-8.14828116092575s" dur="10s" repeatCount="indefinite"><mpath xlink:href="#path68"/></animateMotion></circle><path id="path69" d="M 531.674869823252 337.5026023042613&#10;c 0 23.95390971167067 -5.8610630145577165 6.88037832143732 -12.741441335995036 6.88037832143732&#10;S 506.1919871512619 361.456512015932 506.1919871512619 337.5026023042613&#10;s 5.8610630145577165 -6.88037832143732 12.741441335995036 -6.88037832143732&#10;S 531.674869823252 313.5486925925906 531.674869823252 337.5026023042613&#10;z" fill="none" stroke="none"/><circle cx="0" cy="0" r="2.9629939114772963" fill="#f0ccb4"><animateMotion begin="-2.6693586667663327s" dur="10s" repeatCount="indefinite"><mpath xlink:href="#path69"/></animateMotion></circle><path id="path70" d="M 1690.0492375290912 144.4026784606224&#10;c 0 30.544241300391374 -7.4735909564787395 8.773345905431565 -16.246936861910303 8.773345905431565&#10;S 1657.5553638052704 174.9469197610138 1657.5553638052704 144.4026784606224&#10;s 7.4735909564787395 -8.773345905431565 16.246936861910303 -8.773345905431565&#10;S 1690.0492375290912 113.85843716023103 1690.0492375290912 144.4026784606224&#10;z" fill="none" stroke="none"/><circle cx="0" cy="0" r="2.303794099653907" fill="#a66156"><animateMotion begin="-0.9550807770964376s" dur="10s" repeatCount="indefinite"><mpath xlink:href="#path70"/></animateMotion></circle><path id="path71" d="M 756.0670198906008 182.83736710784567&#10;c 0 26.59028382163118 -6.5061332755055 7.637634714723849 -14.14376799022935 7.637634714723849&#10;S 727.7794839101422 209.42765092947684 727.7794839101422 182.83736710784567&#10;s 6.5061332755055 -7.637634714723849 14.14376799022935 -7.637634714723849&#10;S 756.0670198906008 156.2470832862145 756.0670198906008 182.83736710784567&#10;z" fill="none" stroke="none"/><circle cx="0" cy="0" r="3.8464411498934847" fill="#a3d9ef"><animateMotion begin="-7.213963254082536s" dur="10s" repeatCount="indefinite"><mpath xlink:href="#path71"/></animateMotion></circle><path id="path72" d="M 1634.6242643030694 20.116105580366952&#10;c 0 36.851508414854024 -9.016858441932365 10.585007736181474 -19.60186617811384 10.585007736181474&#10;S 1595.4205319468417 56.96761399522097 1595.4205319468417 20.116105580366952&#10;s 9.016858441932365 -10.585007736181474 19.60186617811384 -10.585007736181474&#10;S 1634.6242643030694 -16.735402834487072 1634.6242643030694 20.116105580366952&#10;z" fill="none" stroke="none"/><circle cx="0" cy="0" r="2.792355140459341" fill="#a3d9ef"><animateMotion begin="-9.302746119294444s" dur="10s" repeatCount="indefinite"><mpath xlink:href="#path72"/></animateMotion></circle><path id="path73" d="M 28.694626968482346 976.7929380338626&#10;c 0 37.50701346063278 -9.177247974410147 10.773291100394522 -19.95053907480467 10.773291100394522&#10;S -11.206451181126992 1014.2999514944954 -11.206451181126992 976.7929380338626&#10;s 9.177247974410147 -10.773291100394522 19.95053907480467 -10.773291100394522&#10;S 28.694626968482346 939.2859245732297 28.694626968482346 976.7929380338626&#10;z" fill="none" stroke="none"/><circle cx="0" cy="0" r="3.0365951790520596" fill="#f0ccb4"><animateMotion begin="-3.9200241678660452s" dur="10s" repeatCount="indefinite"><mpath xlink:href="#path73"/></animateMotion></circle><path id="path74" d="M 598.7818927649461 584.5952653535088&#10;c 0 25.10783708516932 -6.143406946371216 7.2118255457401235 -13.35523249211134 7.2118255457401235&#10;S 572.0714277807234 609.7031024386781 572.0714277807234 584.5952653535088&#10;s 6.143406946371216 -7.2118255457401235 13.35523249211134 -7.2118255457401235&#10;S 598.7818927649461 559.4874282683395 598.7818927649461 584.5952653535088&#10;z" fill="none" stroke="none"/><circle cx="0" cy="0" r="3.9878133992750815" fill="#82bbe4"><animateMotion begin="-3.4254200041398764s" dur="10s" repeatCount="indefinite"><mpath xlink:href="#path74"/></animateMotion></circle><path id="path75" d="M 1643.7114775628374 616.8709145249338&#10;c 0 24.975298753798707 -6.110977354652874 7.173756025027288 -13.284733379680162 7.173756025027288&#10;S 1617.1420108034772 641.8462132787325 1617.1420108034772 616.8709145249338&#10;s 6.110977354652874 -7.173756025027288 13.284733379680162 -7.173756025027288&#10;S 1643.7114775628374 591.8956157711351 1643.7114775628374 616.8709145249338&#10;z" fill="none" stroke="none"/><circle cx="0" cy="0" r="2.6390367551588554" fill="#a66156"><animateMotion begin="-5.720430500263925s" dur="10s" repeatCount="indefinite"><mpath xlink:href="#path75"/></animateMotion></circle><path id="path76" d="M 1703.0575351534767 801.0335951934686&#10;c 0 30.70798767691746 -7.51365655924576 8.820379439114589 -16.33403599836035 8.820379439114589&#10;S 1670.389463156756 831.7415828703861 1670.389463156756 801.0335951934686&#10;s 7.51365655924576 -8.820379439114589 16.33403599836035 -8.820379439114589&#10;S 1703.0575351534767 770.3256075165511 1703.0575351534767 801.0335951934686&#10;z" fill="none" stroke="none"/><circle cx="0" cy="0" r="3.9945021860105396" fill="#f0ccb4"><animateMotion begin="-8.914004408585603s" dur="10s" repeatCount="indefinite"><mpath xlink:href="#path76"/></animateMotion></circle><path id="path77" d="M 449.06435704513024 564.3128438920419&#10;c 0 23.475419355046768 -5.743985586873144 6.742939601981519 -12.486925188854663 6.742939601981519&#10;S 424.09050666742087 587.7882632470887 424.09050666742087 564.3128438920419&#10;s 5.743985586873144 -6.742939601981519 12.486925188854663 -6.742939601981519&#10;S 449.06435704513024 540.8374245369951 449.06435704513024 564.3128438920419&#10;z" fill="none" stroke="none"/><circle cx="0" cy="0" r="2.0084930398726994" fill="#a66156"><animateMotion begin="-8.678870718749048s" dur="10s" repeatCount="indefinite"><mpath xlink:href="#path77"/></animateMotion></circle><path id="path78" d="M 662.4810257731115 48.848933583717134&#10;c 0 31.493410915956293 -7.705834585819092 9.045979731178935 -16.75181431699803 9.045979731178935&#10;S 628.9773971391155 80.34234449967343 628.9773971391155 48.848933583717134&#10;s 7.705834585819092 -9.045979731178935 16.75181431699803 -9.045979731178935&#10;S 662.4810257731115 17.35552266776084 662.4810257731115 48.848933583717134&#10;z" fill="none" stroke="none"/><circle cx="0" cy="0" r="2.0208475153529695" fill="#a3d9ef"><animateMotion begin="-5.737169706707306s" dur="10s" repeatCount="indefinite"><mpath xlink:href="#path78"/></animateMotion></circle><path id="path79" d="M 1452.8137287184518 826.0308751750423&#10;c 0 37.29042403287263 -9.124252688894366 10.711079243484692 -19.83533193237906 10.711079243484692&#10;S 1413.1430648536939 863.3212992079149 1413.1430648536939 826.0308751750423&#10;s 9.124252688894366 -10.711079243484692 19.83533193237906 -10.711079243484692&#10;S 1452.8137287184518 788.7404511421697 1452.8137287184518 826.0308751750423&#10;z" fill="none" stroke="none"/><circle cx="0" cy="0" r="3.6678135652613295" fill="#82bbe4"><animateMotion begin="-5.307013508683582s" dur="10s" repeatCount="indefinite"><mpath xlink:href="#path79"/></animateMotion></circle><path id="path80" d="M 1119.3461167347104 10.918185575875652&#10;c 0 26.71918794338773 -6.5376736457225295 7.674660366717752 -14.212334012440282 7.674660366717752&#10;S 1090.9214487098297 37.637373519263384 1090.9214487098297 10.918185575875652&#10;s 6.5376736457225295 -7.674660366717752 14.212334012440282 -7.674660366717752&#10;S 1119.3461167347104 -15.801002367512078 1119.3461167347104 10.918185575875652&#10;z" fill="none" stroke="none"/><circle cx="0" cy="0" r="3.7228398797030766" fill="#211f1f"><animateMotion begin="-0.4642576920043373s" dur="10s" repeatCount="indefinite"><mpath xlink:href="#path80"/></animateMotion></circle><path id="path81" d="M 891.4698683338215 409.84986235753706&#10;c 0 27.10007758119621 -6.630870046462902 7.784064837152103 -14.414934883615004 7.784064837152103&#10;S 862.6399985665914 436.9499399387333 862.6399985665914 409.84986235753706&#10;s 6.630870046462902 -7.784064837152103 14.414934883615004 -7.784064837152103&#10;S 891.4698683338215 382.74978477634085 891.4698683338215 409.84986235753706&#10;z" fill="none" stroke="none"/><circle cx="0" cy="0" r="3.847456223049301" fill="#f0ccb4"><animateMotion begin="-0.4723633386786763s" dur="10s" repeatCount="indefinite"><mpath xlink:href="#path81"/></animateMotion></circle><path id="path82" d="M 441.5531571443433 167.5691230437919&#10;c 0 30.875694106827055 -7.554691111244917 8.868550434939687 -16.423241546184602 8.868550434939687&#10;S 408.70667405197406 198.44481715061897 408.70667405197406 167.5691230437919&#10;s 7.554691111244917 -8.868550434939687 16.423241546184602 -8.868550434939687&#10;S 441.5531571443433 136.69342893696484 441.5531571443433 167.5691230437919&#10;z" fill="none" stroke="none"/><circle cx="0" cy="0" r="2.4668753083148642" fill="#f0ccb4"><animateMotion begin="-6.03336161410801s" dur="10s" repeatCount="indefinite"><mpath xlink:href="#path82"/></animateMotion></circle><path id="path83" d="M 1224.4751726536756 159.37378974883225&#10;c 0 20.174447661492508 -4.936301023556677 5.794788158088274 -10.73108918164495 5.794788158088274&#10;S 1203.012994290386 179.54823741032476 1203.012994290386 159.37378974883225&#10;s 4.936301023556677 -5.794788158088274 10.73108918164495 -5.794788158088274&#10;S 1224.4751726536756 139.19934208733974 1224.4751726536756 159.37378974883225&#10;z" fill="none" stroke="none"/><circle cx="0" cy="0" r="3.7117812146233145" fill="#f0ccb4"><animateMotion begin="-7.105683385058395s" dur="10s" repeatCount="indefinite"><mpath xlink:href="#path83"/></animateMotion></circle><path id="path84" d="M 404.00134591421664 340.49368683742836&#10;c 0 27.368028780016076 -6.69643257383372 7.861029543196107 -14.557462117029827 7.861029543196107&#10;S 374.88642168015696 367.8617156174444 374.88642168015696 340.49368683742836&#10;s 6.69643257383372 -7.861029543196107 14.557462117029827 -7.861029543196107&#10;S 404.00134591421664 313.1256580574123 404.00134591421664 340.49368683742836&#10;z" fill="none" stroke="none"/><circle cx="0" cy="0" r="2.01785462527705" fill="#f0ccb4"><animateMotion begin="-6.148761492964336s" dur="10s" repeatCount="indefinite"><mpath xlink:href="#path84"/></animateMotion></circle><path id="path85" d="M 187.70004089966966 847.2365637124275&#10;c 0 23.34998911939172 -5.713295210063931 6.706911768335919 -12.42020697839985 6.706911768335919&#10;S 162.85962694286997 870.5865528318192 162.85962694286997 847.2365637124275&#10;s 5.713295210063931 -6.706911768335919 12.42020697839985 -6.706911768335919&#10;S 187.70004089966966 823.8865745930358 187.70004089966966 847.2365637124275&#10;z" fill="none" stroke="none"/><circle cx="0" cy="0" r="2.288628556634927" fill="#a3d9ef"><animateMotion begin="-4.214267304613055s" dur="10s" repeatCount="indefinite"><mpath xlink:href="#path85"/></animateMotion></circle><path id="path86" d="M 746.1419468871768 592.3451133742067&#10;c 0 23.19468880961346 -5.67529619809691 6.662304232548547 -12.337600430645457 6.662304232548547&#10;S 721.4667460258859 615.5398021838201 721.4667460258859 592.3451133742067&#10;s 5.67529619809691 -6.662304232548547 12.337600430645457 -6.662304232548547&#10;S 746.1419468871768 569.1504245645932 746.1419468871768 592.3451133742067&#10;z" fill="none" stroke="none"/><circle cx="0" cy="0" r="2.544015220196281" fill="#a66156"><animateMotion begin="-5.256078802844173s" dur="10s" repeatCount="indefinite"><mpath xlink:href="#path86"/></animateMotion></circle><path id="path87" d="M 1299.403473674154 781.1641030727955&#10;c 0 36.84213395712949 -9.014564691638066 10.582315072792513 -19.59687976443058 10.582315072792513&#10;S 1260.209714145293 818.0062370299249 1260.209714145293 781.1641030727955&#10;s 9.014564691638066 -10.582315072792513 19.59687976443058 -10.582315072792513&#10;S 1299.403473674154 744.321969115666 1299.403473674154 781.1641030727955&#10;z" fill="none" stroke="none"/><circle cx="0" cy="0" r="2.2475354142086217" fill="#a3d9ef"><animateMotion begin="-5.7549785224256444s" dur="10s" repeatCount="indefinite"><mpath xlink:href="#path87"/></animateMotion></circle><path id="path88" d="M 1021.8096061524905 961.9777024847112&#10;c 0 29.939634276755434 -7.32565519537633 8.599682185876562 -15.925337381252891 8.599682185876562&#10;S 989.9589313899846 991.9173367614667 989.9589313899846 961.9777024847112&#10;s 7.32565519537633 -8.599682185876562 15.925337381252891 -8.599682185876562&#10;S 1021.8096061524905 932.0380682079558 1021.8096061524905 961.9777024847112&#10;z" fill="none" stroke="none"/><circle cx="0" cy="0" r="3.7772141217714523" fill="#82bbe4"><animateMotion begin="-9.976983686707161s" dur="10s" repeatCount="indefinite"><mpath xlink:href="#path88"/></animateMotion></circle><path id="path89" d="M 1142.7460360793973 967.2307414483139&#10;c 0 30.471984348456342 -7.455911063983998 8.752591249024695 -16.208502313008694 8.752591249024695&#10;S 1110.32903145338 997.7027257967702 1110.32903145338 967.2307414483139&#10;s 7.455911063983998 -8.752591249024695 16.208502313008694 -8.752591249024695&#10;S 1142.7460360793973 936.7587570998576 1142.7460360793973 967.2307414483139&#10;z" fill="none" stroke="none"/><circle cx="0" cy="0" r="3.4574437182444" fill="#f0ccb4"><animateMotion begin="-0.8116248436078788s" dur="10s" repeatCount="indefinite"><mpath xlink:href="#path89"/></animateMotion></circle><path id="path90" d="M 1247.9608489233806 387.3948095013869&#10;c 0 21.704564265088692 -5.310691256351488 6.234289735716964 -11.544980992068453 6.234289735716964&#10;S 1224.8708869392435 409.09937376647554 1224.8708869392435 387.3948095013869&#10;s 5.310691256351488 -6.234289735716964 11.544980992068453 -6.234289735716964&#10;S 1247.9608489233806 365.6902452362982 1247.9608489233806 387.3948095013869&#10;z" fill="none" stroke="none"/><circle cx="0" cy="0" r="3.051898395586506" fill="#82bbe4"><animateMotion begin="-7.649333556278226s" dur="10s" repeatCount="indefinite"><mpath xlink:href="#path90"/></animateMotion></circle><path id="path91" d="M 1567.9307822794349 979.368457627206&#10;c 0 26.41528961850381 -6.463315544953059 7.5873704223362015 -14.05068596728926 7.5873704223362015&#10;S 1539.8294103448566 1005.7837472457098 1539.8294103448566 979.368457627206&#10;s 6.463315544953059 -7.5873704223362015 14.05068596728926 -7.5873704223362015&#10;S 1567.9307822794349 952.9531680087022 1567.9307822794349 979.368457627206&#10;z" fill="none" stroke="none"/><circle cx="0" cy="0" r="2.4532108347687784" fill="#a3d9ef"><animateMotion begin="-5.453060477567481s" dur="10s" repeatCount="indefinite"><mpath xlink:href="#path91"/></animateMotion></circle><path id="path92" d="M 913.5626055731286 626.9892798198067&#10;c 0 32.50187360132292 -7.952586093940713 9.335644545060838 -17.28823063900155 9.335644545060838&#10;S 878.9861442951255 659.4911534211296 878.9861442951255 626.9892798198067&#10;s 7.952586093940713 -9.335644545060838 17.28823063900155 -9.335644545060838&#10;S 913.5626055731286 594.4874062184838 913.5626055731286 626.9892798198067&#10;z" fill="none" stroke="none"/><circle cx="0" cy="0" r="2.3971235924637875" fill="#211f1f"><animateMotion begin="-7.704626145111886s" dur="10s" repeatCount="indefinite"><mpath xlink:href="#path92"/></animateMotion></circle><path id="path93" d="M 1455.8505840699038 679.104649244025&#10;c 0 36.75538401800182 -8.993338642702572 10.55739753708563 -19.5507361797882 10.55739753708563&#10;S 1416.7491117103275 715.8600332620268 1416.7491117103275 679.104649244025&#10;s 8.993338642702572 -10.55739753708563 19.5507361797882 -10.55739753708563&#10;S 1455.8505840699038 642.3492652260232 1455.8505840699038 679.104649244025&#10;z" fill="none" stroke="none"/><circle cx="0" cy="0" r="3.303656488547059" fill="#a3d9ef"><animateMotion begin="-9.716916797620154s" dur="10s" repeatCount="indefinite"><mpath xlink:href="#path93"/></animateMotion></circle><path id="path94" d="M 1060.4307783961985 555.1628819723463&#10;c 0 35.799189610717264 -8.759376181345711 10.282745952014533 -19.042122133360245 10.282745952014533&#10;S 1022.3465341294781 590.9620715830636 1022.3465341294781 555.1628819723463&#10;s 8.759376181345711 -10.282745952014533 19.042122133360245 -10.282745952014533&#10;S 1060.4307783961985 519.3636923616291 1060.4307783961985 555.1628819723463&#10;z" fill="none" stroke="none"/><circle cx="0" cy="0" r="2.8006035532017273" fill="#82bbe4"><animateMotion begin="-2.363258769157035s" dur="10s" repeatCount="indefinite"><mpath xlink:href="#path94"/></animateMotion></circle><path id="path95" d="M 1333.1398411849566 954.8107029739123&#10;c 0 35.815539258593645 -8.7633766271027 10.287442127468388 -19.05081875457109 10.287442127468388&#10;S 1295.0382036758144 990.6262422325059 1295.0382036758144 954.8107029739123&#10;s 8.7633766271027 -10.287442127468388 19.05081875457109 -10.287442127468388&#10;S 1333.1398411849566 918.9951637153187 1333.1398411849566 954.8107029739123&#10;z" fill="none" stroke="none"/><circle cx="0" cy="0" r="3.323029364752832" fill="#82bbe4"><animateMotion begin="-9.899128329044444s" dur="10s" repeatCount="indefinite"><mpath xlink:href="#path95"/></animateMotion></circle><path id="path96" d="M 1480.1835816078737 769.1394036539335&#10;c 0 22.26834423202566 -5.448637418474363 6.396226534730775 -11.844863953205138 6.396226534730775&#10;S 1456.4938537014636 791.4077478859592 1456.4938537014636 769.1394036539335&#10;s 5.448637418474363 -6.396226534730775 11.844863953205138 -6.396226534730775&#10;S 1480.1835816078737 746.8710594219078 1480.1835816078737 769.1394036539335&#10;z" fill="none" stroke="none"/><circle cx="0" cy="0" r="3.818401360937788" fill="#a3d9ef"><animateMotion begin="-0.8418986600607892s" dur="10s" repeatCount="indefinite"><mpath xlink:href="#path96"/></animateMotion></circle><path id="path97" d="M 814.4799784913245 653.3531169913164&#10;c 0 20.23889465690814 -4.95206996924348 5.813299529111912 -10.765369498355392 5.813299529111912&#10;S 792.9492394946136 673.5920116482245 792.9492394946136 653.3531169913164&#10;s 4.95206996924348 -5.813299529111912 10.765369498355392 -5.813299529111912&#10;S 814.4799784913245 633.1142223344083 814.4799784913245 653.3531169913164&#10;z" fill="none" stroke="none"/><circle cx="0" cy="0" r="3.78812789575938" fill="#82bbe4"><animateMotion begin="-2.8627879802306477s" dur="10s" repeatCount="indefinite"><mpath xlink:href="#path97"/></animateMotion></circle><path id="path98" d="M 235.6784676644223 767.594758420654&#10;c 0 34.97076447276487 -8.556676413548852 10.044794050687782 -18.601470464236634 10.044794050687782&#10;S 198.47552673594905 802.5655228934188 198.47552673594905 767.594758420654&#10;s 8.556676413548852 -10.044794050687782 18.601470464236634 -10.044794050687782&#10;S 235.6784676644223 732.6239939478892 235.6784676644223 767.594758420654&#10;z" fill="none" stroke="none"/><circle cx="0" cy="0" r="3.7419915046101555" fill="#a3d9ef"><animateMotion begin="-5.053705407865703s" dur="10s" repeatCount="indefinite"><mpath xlink:href="#path98"/></animateMotion></circle><path id="path99" d="M 1233.0494747311554 91.75876710914241&#10;c 0 31.250164234413692 -7.646316780760796 8.976111003501805 -16.6224277842626 8.976111003501805&#10;S 1199.8046191626304 123.0089313435561 1199.8046191626304 91.75876710914241&#10;s 7.646316780760796 -8.976111003501805 16.6224277842626 -8.976111003501805&#10;S 1233.0494747311554 60.50860287472872 1233.0494747311554 91.75876710914241&#10;z" fill="none" stroke="none"/><circle cx="0" cy="0" r="2.2579633642787034" fill="#a3d9ef"><animateMotion begin="-9.117204334135964s" dur="10s" repeatCount="indefinite"><mpath xlink:href="#path99"/></animateMotion></circle></g></svg>