<svg xmlns="http://www.w3.org/2000/svg" xmlns:xlink="http://www.w3.org/1999/xlink" style="margin:auto;background:#000000;display:block;z-index:1;position:relative" preserveAspectRatio="xMidYMid" viewBox="0 0 1792 1009"><g transform="translate(896,504.5) scale(1,1) translate(-896,-504.5)"><path id="path0" d="M 534.402816826962 977.1567248043552&#10;c 0 20.65157453514029 -5.053044833066242 5.931835238816893 -10.984880071883135 5.931835238816893&#10;S 512.4330566831957 997.8082993394955 512.4330566831957 977.1567248043552&#10;s 5.053044833066242 -5.931835238816893 10.984880071883135 -5.931835238816893&#10;S 534.402816826962 956.5051502692149 534.402816826962 977.1567248043552&#10;z" fill="none" stroke="none"/><circle cx="0" cy="0" r="2.893439633129864" fill="#edb870"><animateMotion begin="-9.492294299604684s" dur="20s" repeatCount="indefinite"><mpath xlink:href="#path0"/></animateMotion></circle><path id="path1" d="M 99.27005266559475 655.2838662684794&#10;c 0 24.20411648006228 -5.922283819589706 6.952246222996613 -12.874530042586319 6.952246222996613&#10;S 73.52099258042212 679.4879827485416 73.52099258042212 655.2838662684794&#10;s 5.922283819589706 -6.952246222996613 12.874530042586319 -6.952246222996613&#10;S 99.27005266559475 631.0797497884172 99.27005266559475 655.2838662684794&#10;z" fill="none" stroke="none"/><circle cx="0" cy="0" r="4.328582399214204" fill="#e86e38"><animateMotion begin="-1.34298500027775s" dur="20s" repeatCount="indefinite"><mpath xlink:href="#path1"/></animateMotion></circle><path id="path2" d="M 783.6179195573442 776.3216150790842&#10;c 0 23.279215289692548 -5.695978209180091 6.6865831151244555 -12.382561324304547 6.6865831151244555&#10;S 758.8527969087351 799.6008303687767 758.8527969087351 776.3216150790842&#10;s 5.695978209180091 -6.6865831151244555 12.382561324304547 -6.6865831151244555&#10;S 783.6179195573442 753.0423997893917 783.6179195573442 776.3216150790842&#10;z" fill="none" stroke="none"/><circle cx="0" cy="0" r="4.135187208795703" fill="#edb870"><animateMotion begin="-3.8100781602250056s" dur="20s" repeatCount="indefinite"><mpath xlink:href="#path2"/></animateMotion></circle><path id="path3" d="M 422.0164281052283 945.7254638099412&#10;c 0 22.203415544298817 -5.432750611902902 6.37757680527732 -11.810327417180222 6.37757680527732&#10;S 398.3957732708678 967.9288793542399 398.3957732708678 945.7254638099412&#10;s 5.432750611902902 -6.37757680527732 11.810327417180222 -6.37757680527732&#10;S 422.0164281052283 923.5220482656424 422.0164281052283 945.7254638099412&#10;z" fill="none" stroke="none"/><circle cx="0" cy="0" r="3.092492885770677" fill="#1b2124"><animateMotion begin="-1.8489452947794938s" dur="20s" repeatCount="indefinite"><mpath xlink:href="#path3"/></animateMotion></circle><path id="path4" d="M 739.4539277507074 446.8982503467354&#10;c 0 33.44042276539132 -8.182231102170215 9.605227815591123 -17.787458917761338 9.605227815591123&#10;S 703.8790099151847 480.3386731121267 703.8790099151847 446.8982503467354&#10;s 8.182231102170215 -9.605227815591123 17.787458917761338 -9.605227815591123&#10;S 739.4539277507074 413.4578275813441 739.4539277507074 446.8982503467354&#10;z" fill="none" stroke="none"/><circle cx="0" cy="0" r="3.3706808018870333" fill="#fdf4af"><animateMotion begin="-15.1912255979312s" dur="20s" repeatCount="indefinite"><mpath xlink:href="#path4"/></animateMotion></circle><path id="path5" d="M 258.8296557342206 114.56060007915761&#10;c 0 25.635111017429725 -6.272420780860465 7.3632765688361985 -13.635697349696663 7.3632765688361985&#10;S 231.55826103482727 140.19571109658733 231.55826103482727 114.56060007915761&#10;s 6.272420780860465 -7.3632765688361985 13.635697349696663 -7.3632765688361985&#10;S 258.8296557342206 88.92548906172789 258.8296557342206 114.56060007915761&#10;z" fill="none" stroke="none"/><circle cx="0" cy="0" r="4.181908012236159" fill="#fdf4af"><animateMotion begin="-10.088397856303516s" dur="20s" repeatCount="indefinite"><mpath xlink:href="#path5"/></animateMotion></circle><path id="path6" d="M 424.8710927476351 27.434985599549947&#10;c 0 22.417558095345257 -5.485147193541924 6.439085835897043 -11.924233029438966 6.439085835897043&#10;S 401.0226266887572 49.8525436948952 401.0226266887572 27.434985599549947&#10;s 5.485147193541924 -6.439085835897043 11.924233029438966 -6.439085835897043&#10;S 424.8710927476351 5.01742750420469 424.8710927476351 27.434985599549947&#10;z" fill="none" stroke="none"/><circle cx="0" cy="0" r="3.701984573094308" fill="#e86e38"><animateMotion begin="-6.375099245845237s" dur="20s" repeatCount="indefinite"><mpath xlink:href="#path6"/></animateMotion></circle><path id="path7" d="M 1342.3000971315957 921.9979687602714&#10;c 0 20.119100296493134 -4.92275858318449 5.778890510694836 -10.701649093879325 5.778890510694836&#10;S 1320.8967989438372 942.1170690567645 1320.8967989438372 921.9979687602714&#10;s 4.92275858318449 -5.778890510694836 10.701649093879325 -5.778890510694836&#10;S 1342.3000971315957 901.8788684637783 1342.3000971315957 921.9979687602714&#10;z" fill="none" stroke="none"/><circle cx="0" cy="0" r="3.4420127108811562" fill="#06080a"><animateMotion begin="-5.685038828093787s" dur="20s" repeatCount="indefinite"><mpath xlink:href="#path7"/></animateMotion></circle><path id="path8" d="M 188.7250395048599 617.4076693172074&#10;c 0 31.07479157231036 -7.603406448544024 8.925738004812551 -16.529144453356576 8.925738004812551&#10;S 155.66675059814676 648.4824608895177 155.66675059814676 617.4076693172074&#10;s 7.603406448544024 -8.925738004812551 16.529144453356576 -8.925738004812551&#10;S 188.7250395048599 586.332877744897 188.7250395048599 617.4076693172074&#10;z" fill="none" stroke="none"/><circle cx="0" cy="0" r="4.174169732684779" fill="#1b2124"><animateMotion begin="-10.407235639033981s" dur="20s" repeatCount="indefinite"><mpath xlink:href="#path8"/></animateMotion></circle><path id="path9" d="M 119.13321969928174 95.25886799112172&#10;c 0 27.029013749738418 -6.613482087701953 7.763652885563163 -14.377134973265115 7.763652885563163&#10;S 90.37894975275151 122.28788174086014 90.37894975275151 95.25886799112172&#10;s 6.613482087701953 -7.763652885563163 14.377134973265115 -7.763652885563163&#10;S 119.13321969928174 68.2298542413833 119.13321969928174 95.25886799112172&#10;z" fill="none" stroke="none"/><circle cx="0" cy="0" r="3.8488243995274964" fill="#1b2124"><animateMotion begin="-0.556228442376292s" dur="20s" repeatCount="indefinite"><mpath xlink:href="#path9"/></animateMotion></circle><path id="path10" d="M 876.2293104077656 899.2308164460434&#10;c 0 23.900841014878896 -5.848078120661857 6.865135185124789 -12.713213305786645 6.865135185124789&#10;S 850.8028837961923 923.1316574609223 850.8028837961923 899.2308164460434&#10;s 5.848078120661857 -6.865135185124789 12.713213305786645 -6.865135185124789&#10;S 876.2293104077656 875.3299754311645 876.2293104077656 899.2308164460434&#10;z" fill="none" stroke="none"/><circle cx="0" cy="0" r="2.5561373706724586" fill="#edb870"><animateMotion begin="-2.6902955549206187s" dur="20s" repeatCount="indefinite"><mpath xlink:href="#path10"/></animateMotion></circle><path id="path11" d="M 1373.071034294142 261.84127946558823&#10;c 0 20.725767322139216 -5.071198387331935 5.9531459329548815 -11.024344320286817 5.9531459329548815&#10;S 1351.0223456535682 282.56704678772746 1351.0223456535682 261.84127946558823&#10;s 5.071198387331935 -5.9531459329548815 11.024344320286817 -5.9531459329548815&#10;S 1373.071034294142 241.11551214344902 1373.071034294142 261.84127946558823&#10;z" fill="none" stroke="none"/><circle cx="0" cy="0" r="3.883167786448028" fill="#f7d8b4"><animateMotion begin="-4.353267444023583s" dur="20s" repeatCount="indefinite"><mpath xlink:href="#path11"/></animateMotion></circle><path id="path12" d="M 1461.7325007847512 103.94447236056858&#10;c 0 33.54030500412821 -8.206670373350518 9.633917394802785 -17.840587768153302 9.633917394802785&#10;S 1426.0513252484448 137.48477736469678 1426.0513252484448 103.94447236056858&#10;s 8.206670373350518 -9.633917394802785 17.840587768153302 -9.633917394802785&#10;S 1461.7325007847512 70.40416735644038 1461.7325007847512 103.94447236056858&#10;z" fill="none" stroke="none"/><circle cx="0" cy="0" r="2.6356475675193973" fill="#f72405"><animateMotion begin="-10.340829668940476s" dur="20s" repeatCount="indefinite"><mpath xlink:href="#path12"/></animateMotion></circle><path id="path13" d="M 1143.5529268356127 967.5138907512612&#10;c 0 35.88866241677423 -8.7812684636788 10.308445587796854 -19.089714051475653 10.308445587796854&#10;S 1105.3734987326611 1003.4025531680354 1105.3734987326611 967.5138907512612&#10;s 8.7812684636788 -10.308445587796854 19.089714051475653 -10.308445587796854&#10;S 1143.5529268356127 931.625228334487 1143.5529268356127 967.5138907512612&#10;z" fill="none" stroke="none"/><circle cx="0" cy="0" r="3.385252944332999" fill="#e86e38"><animateMotion begin="-18.955220320718563s" dur="20s" repeatCount="indefinite"><mpath xlink:href="#path13"/></animateMotion></circle><path id="path14" d="M 720.5287644524823 607.330827911626&#10;c 0 26.404285451764448 -6.460623036070023 7.584209651038725 -14.044832687108748 7.584209651038725&#10;S 692.4390990782648 633.7351133633904 692.4390990782648 607.330827911626&#10;s 6.460623036070023 -7.584209651038725 14.044832687108748 -7.584209651038725&#10;S 720.5287644524823 580.9265424598616 720.5287644524823 607.330827911626&#10;z" fill="none" stroke="none"/><circle cx="0" cy="0" r="2.573626517259564" fill="#e86e38"><animateMotion begin="-5.935761231025203s" dur="20s" repeatCount="indefinite"><mpath xlink:href="#path14"/></animateMotion></circle><path id="path15" d="M 1745.3992136089673 552.7824697328671&#10;c 0 25.577809766571967 -6.2584002620335655 7.3468176989089695 -13.605217960942536 7.3468176989089695&#10;S 1718.1887776870822 578.360279499439 1718.1887776870822 552.7824697328671&#10;s 6.2584002620335655 -7.3468176989089695 13.605217960942536 -7.3468176989089695&#10;S 1745.3992136089673 527.2046599662951 1745.3992136089673 552.7824697328671&#10;z" fill="none" stroke="none"/><circle cx="0" cy="0" r="3.8511600696727086" fill="#f72405"><animateMotion begin="-13.254372645963532s" dur="20s" repeatCount="indefinite"><mpath xlink:href="#path15"/></animateMotion></circle><path id="path16" d="M 56.270179129974814 530.0555038903042&#10;c 0 31.58296543344551 -7.727746861374964 9.071702837266264 -16.799449698641226 9.071702837266264&#10;S 22.671279732692362 561.6384693237496 22.671279732692362 530.0555038903042&#10;s 7.727746861374964 -9.071702837266264 16.799449698641226 -9.071702837266264&#10;S 56.270179129974814 498.4725384568587 56.270179129974814 530.0555038903042&#10;z" fill="none" stroke="none"/><circle cx="0" cy="0" r="3.21349420596744" fill="#e86e38"><animateMotion begin="-15.522010969963098s" dur="20s" repeatCount="indefinite"><mpath xlink:href="#path16"/></animateMotion></circle><path id="path17" d="M 380.86472486279894 193.9922041248414&#10;c 0 23.501865054992322 -5.750456343242802 6.750535707285029 -12.500992050527831 6.750535707285029&#10;S 355.8627407617433 217.49406917983373 355.8627407617433 193.9922041248414&#10;s 5.750456343242802 -6.750535707285029 12.500992050527831 -6.750535707285029&#10;S 380.86472486279894 170.49033906984909 380.86472486279894 193.9922041248414&#10;z" fill="none" stroke="none"/><circle cx="0" cy="0" r="2.957763417894952" fill="#fdf4af"><animateMotion begin="-6.316612551628937s" dur="20s" repeatCount="indefinite"><mpath xlink:href="#path17"/></animateMotion></circle><path id="path18" d="M 1699.797001763943 724.4750415996931&#10;c 0 19.393601608392125 -4.745242946734242 5.570502589644546 -10.315745536378788 5.570502589644546&#10;S 1679.1655106911855 743.8686432080852 1679.1655106911855 724.4750415996931&#10;s 4.745242946734242 -5.570502589644546 10.315745536378788 -5.570502589644546&#10;S 1699.797001763943 705.081439991301 1699.797001763943 724.4750415996931&#10;z" fill="none" stroke="none"/><circle cx="0" cy="0" r="3.3078627259976865" fill="#fdf4af"><animateMotion begin="-3.2695922273825184s" dur="20s" repeatCount="indefinite"><mpath xlink:href="#path18"/></animateMotion></circle><path id="path19" d="M 910.4258916490338 587.3058352076498&#10;c 0 30.526286509247072 -7.469197762900879 8.76818867818799 -16.23738644108887 8.76818867818799&#10;S 877.951118766856 617.8321217168968 877.951118766856 587.3058352076498&#10;s 7.469197762900879 -8.76818867818799 16.23738644108887 -8.76818867818799&#10;S 910.4258916490338 556.7795486984028 910.4258916490338 587.3058352076498&#10;z" fill="none" stroke="none"/><circle cx="0" cy="0" r="2.284883749357011" fill="#1b2124"><animateMotion begin="-18.181636353206766s" dur="20s" repeatCount="indefinite"><mpath xlink:href="#path19"/></animateMotion></circle><path id="path20" d="M 304.43802517522965 401.13146744608184&#10;c 0 22.603155690026497 -5.530559370963929 6.492395783305483 -12.022955154269413 6.492395783305483&#10;S 280.3921148666908 423.7346231361083 280.3921148666908 401.13146744608184&#10;s 5.530559370963929 -6.492395783305483 12.022955154269413 -6.492395783305483&#10;S 304.43802517522965 378.52831175605536 304.43802517522965 401.13146744608184&#10;z" fill="none" stroke="none"/><circle cx="0" cy="0" r="3.896085528942597" fill="#e86e38"><animateMotion begin="-4.029186958454916s" dur="20s" repeatCount="indefinite"><mpath xlink:href="#path20"/></animateMotion></circle><path id="path21" d="M 736.2512141847355 16.967118596458647&#10;c 0 34.6007324549548 -8.466136664510216 9.93850825833808 -18.4046449228483 9.93850825833808&#10;S 699.4419243390389 51.56785105141345 699.4419243390389 16.967118596458647&#10;s 8.466136664510216 -9.93850825833808 18.4046449228483 -9.93850825833808&#10;S 736.2512141847355 -17.633613858496155 736.2512141847355 16.967118596458647&#10;z" fill="none" stroke="none"/><circle cx="0" cy="0" r="2.457977115830725" fill="#06080a"><animateMotion begin="-7.665703369676824s" dur="20s" repeatCount="indefinite"><mpath xlink:href="#path21"/></animateMotion></circle><path id="path22" d="M 308.4516160787929 801.6478554554358&#10;c 0 22.36234200287941 -5.471636873044961 6.423225894444086 -11.894862767489048 6.423225894444086&#10;S 284.6618905438148 824.0101974583151 284.6618905438148 801.6478554554358&#10;s 5.471636873044961 -6.423225894444086 11.894862767489048 -6.423225894444086&#10;S 308.4516160787929 779.2855134525564 308.4516160787929 801.6478554554358&#10;z" fill="none" stroke="none"/><circle cx="0" cy="0" r="4.425810027899882" fill="#1b2124"><animateMotion begin="-13.048682836663158s" dur="20s" repeatCount="indefinite"><mpath xlink:href="#path22"/></animateMotion></circle><path id="path23" d="M 261.98503294227305 225.9153744184323&#10;c 0 26.764707506840946 -6.548811411248316 7.687735134943677 -14.236546546191992 7.687735134943677&#10;S 233.51193984988907 252.68008192527324 233.51193984988907 225.9153744184323&#10;s 6.548811411248316 -7.687735134943677 14.236546546191992 -7.687735134943677&#10;S 261.98503294227305 199.15066691159134 261.98503294227305 225.9153744184323&#10;z" fill="none" stroke="none"/><circle cx="0" cy="0" r="2.7839061802722997" fill="#edb870"><animateMotion begin="-11.538873987923486s" dur="20s" repeatCount="indefinite"><mpath xlink:href="#path23"/></animateMotion></circle><path id="path24" d="M 175.12713906281152 510.191816356956&#10;c 0 31.002107531419053 -7.5856220555599805 8.90486067391824 -16.49048272947822 8.90486067391824&#10;S 142.14617360385506 541.193923888375 142.14617360385506 510.191816356956&#10;s 7.5856220555599805 -8.90486067391824 16.49048272947822 -8.90486067391824&#10;S 175.12713906281152 479.18970882553697 175.12713906281152 510.191816356956&#10;z" fill="none" stroke="none"/><circle cx="0" cy="0" r="3.8364890688206894" fill="#e86e38"><animateMotion begin="-19.092725246532126s" dur="20s" repeatCount="indefinite"><mpath xlink:href="#path24"/></animateMotion></circle><path id="path25" d="M 1566.1446311692578 713.505952822217&#10;c 0 29.4683369093584 -7.21033775441748 8.464309537794435 -15.674647292211914 8.464309537794435&#10;S 1534.795336584834 742.9742897315754 1534.795336584834 713.505952822217&#10;s 7.21033775441748 -8.464309537794435 15.674647292211914 -8.464309537794435&#10;S 1566.1446311692578 684.0376159128585 1566.1446311692578 713.505952822217&#10;z" fill="none" stroke="none"/><circle cx="0" cy="0" r="2.5659428643192705" fill="#1b2124"><animateMotion begin="-15.093285234129198s" dur="20s" repeatCount="indefinite"><mpath xlink:href="#path25"/></animateMotion></circle><path id="path26" d="M 944.5380075316581 902.0763334237643&#10;c 0 37.01318944722954 -9.056418694534887 10.63144803271487 -19.687866727249755 10.63144803271487&#10;S 905.1622740771585 939.0895228709938 905.1622740771585 902.0763334237643&#10;s 9.056418694534887 -10.63144803271487 19.687866727249755 -10.63144803271487&#10;S 944.5380075316581 865.0631439765347 944.5380075316581 902.0763334237643&#10;z" fill="none" stroke="none"/><circle cx="0" cy="0" r="4.003818200875838" fill="#06080a"><animateMotion begin="-18.853231825491605s" dur="20s" repeatCount="indefinite"><mpath xlink:href="#path26"/></animateMotion></circle><path id="path27" d="M 1119.7553223437312 523.3554273761474&#10;c 0 24.769875282937196 -6.060714164973994 7.114751411056429 -13.175465576030422 7.114751411056429&#10;S 1093.4043911916706 548.1253026590846 1093.4043911916706 523.3554273761474&#10;s 6.060714164973994 -7.114751411056429 13.175465576030422 -7.114751411056429&#10;S 1119.7553223437312 498.5855520932102 1119.7553223437312 523.3554273761474&#10;z" fill="none" stroke="none"/><circle cx="0" cy="0" r="4.38338550015116" fill="#f72405"><animateMotion begin="-3.563020745758898s" dur="20s" repeatCount="indefinite"><mpath xlink:href="#path27"/></animateMotion></circle><path id="path28" d="M 1121.2701057483146 157.18768552129745&#10;c 0 24.782708694269388 -6.063854254980807 7.118437603673122 -13.18229185865393 7.118437603673122&#10;S 1094.9055220310065 181.97039421556684 1094.9055220310065 157.18768552129745&#10;s 6.063854254980807 -7.118437603673122 13.18229185865393 -7.118437603673122&#10;S 1121.2701057483146 132.40497682702807 1121.2701057483146 157.18768552129745&#10;z" fill="none" stroke="none"/><circle cx="0" cy="0" r="3.19356326323798" fill="#edb870"><animateMotion begin="-10.7667498375625s" dur="20s" repeatCount="indefinite"><mpath xlink:href="#path28"/></animateMotion></circle><path id="path29" d="M 1466.74811070595 475.757343611244&#10;c 0 27.10870850668373 -6.632981868656657 7.786543932770859 -14.419525801427515 7.786543932770859&#10;S 1437.9090591030952 502.8660521179277 1437.9090591030952 475.757343611244&#10;s 6.632981868656657 -7.786543932770859 14.419525801427515 -7.786543932770859&#10;S 1466.74811070595 448.64863510456024 1466.74811070595 475.757343611244&#10;z" fill="none" stroke="none"/><circle cx="0" cy="0" r="3.6794883398794225" fill="#fdf4af"><animateMotion begin="-11.61180100995017s" dur="20s" repeatCount="indefinite"><mpath xlink:href="#path29"/></animateMotion></circle><path id="path30" d="M 1328.2117213927465 703.751142642534&#10;c 0 34.78225537543922 -8.510551847181937 9.990647820604883 -18.501199667786818 9.990647820604883&#10;S 1291.209322057173 738.5333980179732 1291.209322057173 703.751142642534&#10;s 8.510551847181937 -9.990647820604883 18.501199667786818 -9.990647820604883&#10;S 1328.2117213927465 668.9688872670947 1328.2117213927465 703.751142642534&#10;z" fill="none" stroke="none"/><circle cx="0" cy="0" r="2.6297885386122872" fill="#f7d8b4"><animateMotion begin="-11.422232646860992s" dur="20s" repeatCount="indefinite"><mpath xlink:href="#path30"/></animateMotion></circle><path id="path31" d="M 953.643994460842 983.766097772496&#10;c 0 27.755704725912604 -6.791289454212658 7.972383272336599 -14.763672726549258 7.972383272336599&#10;S 924.1166490077436 1011.5218024984085 924.1166490077436 983.766097772496&#10;s 6.791289454212658 -7.972383272336599 14.763672726549258 -7.972383272336599&#10;S 953.643994460842 956.0103930465834 953.643994460842 983.766097772496&#10;z" fill="none" stroke="none"/><circle cx="0" cy="0" r="4.192277780665259" fill="#edb870"><animateMotion begin="-8.39767955039719s" dur="20s" repeatCount="indefinite"><mpath xlink:href="#path31"/></animateMotion></circle><path id="path32" d="M 1609.1601894738353 40.234962925583446&#10;c 0 34.23507069294945 -8.376666233381247 9.833477752230161 -18.210143985611406 9.833477752230161&#10;S 1572.7399015026124 74.4700336185329 1572.7399015026124 40.234962925583446&#10;s 8.376666233381247 -9.833477752230161 18.210143985611406 -9.833477752230161&#10;S 1609.1601894738353 5.9998922326339965 1609.1601894738353 40.234962925583446&#10;z" fill="none" stroke="none"/><circle cx="0" cy="0" r="3.648661934466482" fill="#f72405"><animateMotion begin="-17.185557345485446s" dur="20s" repeatCount="indefinite"><mpath xlink:href="#path32"/></animateMotion></circle><path id="path33" d="M 746.6482733475042 87.5443303534239&#10;c 0 29.579663496922795 -7.237577238608768 8.496286323584208 -15.733863562192976 8.496286323584208&#10;S 715.1805462231183 117.1239938503467 715.1805462231183 87.5443303534239&#10;s 7.237577238608768 -8.496286323584208 15.733863562192976 -8.496286323584208&#10;S 746.6482733475042 57.96466685650111 746.6482733475042 87.5443303534239&#10;z" fill="none" stroke="none"/><circle cx="0" cy="0" r="3.2841459007415486" fill="#e86e38"><animateMotion begin="-0.11316177093271929s" dur="20s" repeatCount="indefinite"><mpath xlink:href="#path33"/></animateMotion></circle><path id="path34" d="M 1665.1752754801937 262.01928645945253&#10;c 0 27.33881100002236 -6.689283542558662 7.8526372021340825 -14.541920744692744 7.8526372021340825&#10;S 1636.0914339908081 289.3580974594749 1636.0914339908081 262.01928645945253&#10;s 6.689283542558662 -7.8526372021340825 14.541920744692744 -7.8526372021340825&#10;S 1665.1752754801937 234.68047545943017 1665.1752754801937 262.01928645945253&#10;z" fill="none" stroke="none"/><circle cx="0" cy="0" r="3.178365973792843" fill="#f7d8b4"><animateMotion begin="-7.324948198106149s" dur="20s" repeatCount="indefinite"><mpath xlink:href="#path34"/></animateMotion></circle><path id="path35" d="M 882.656283467621 738.0704396081906&#10;c 0 36.86684039441577 -9.020609883740027 10.589411602651337 -19.610021486391364 10.589411602651337&#10;S 843.4362404948383 774.9372800026064 843.4362404948383 738.0704396081906&#10;s 9.020609883740027 -10.589411602651337 19.610021486391364 -10.589411602651337&#10;S 882.656283467621 701.2035992137747 882.656283467621 738.0704396081906&#10;z" fill="none" stroke="none"/><circle cx="0" cy="0" r="3.059338403707055" fill="#1b2124"><animateMotion begin="-3.9189575886206596s" dur="20s" repeatCount="indefinite"><mpath xlink:href="#path35"/></animateMotion></circle><path id="path36" d="M 1801.9215656175818 861.6004712682569&#10;c 0 25.3096113858145 -6.192777253975887 7.269781993797782 -13.462559247773669 7.269781993797782&#10;S 1774.9964471220344 886.9100826540714 1774.9964471220344 861.6004712682569&#10;s 6.192777253975887 -7.269781993797782 13.462559247773669 -7.269781993797782&#10;S 1801.9215656175818 836.2908598824424 1801.9215656175818 861.6004712682569&#10;z" fill="none" stroke="none"/><circle cx="0" cy="0" r="3.0658893931960023" fill="#f72405"><animateMotion begin="-11.2090222141426s" dur="20s" repeatCount="indefinite"><mpath xlink:href="#path36"/></animateMotion></circle><path id="path37" d="M 1602.7229982854674 765.1963125510413&#10;c 0 35.56222327056208 -8.70139505556306 10.214681152182724 -18.916076207745785 10.214681152182724&#10;S 1564.8908458699757 800.7585358216033 1564.8908458699757 765.1963125510413&#10;s 8.70139505556306 -10.214681152182724 18.916076207745785 -10.214681152182724&#10;S 1602.7229982854674 729.6340892804792 1602.7229982854674 765.1963125510413&#10;z" fill="none" stroke="none"/><circle cx="0" cy="0" r="2.7123043425935407" fill="#f7d8b4"><animateMotion begin="-8.013618650048148s" dur="20s" repeatCount="indefinite"><mpath xlink:href="#path37"/></animateMotion></circle><path id="path38" d="M 42.76393313869485 662.9033929643906&#10;c 0 36.91199426253753 -9.031658170620885 10.602381330728866 -19.63403950134975 10.602381330728866&#10;S 3.495854135995355 699.8153872269281 3.495854135995355 662.9033929643906&#10;s 9.031658170620885 -10.602381330728866 19.63403950134975 -10.602381330728866&#10;S 42.76393313869485 625.9913987018531 42.76393313869485 662.9033929643906&#10;z" fill="none" stroke="none"/><circle cx="0" cy="0" r="3.867835803056776" fill="#f72405"><animateMotion begin="-1.2662046631963442s" dur="20s" repeatCount="indefinite"><mpath xlink:href="#path38"/></animateMotion></circle><path id="path39" d="M 42.85985735353331 185.29982998473878&#10;c 0 28.57419597669482 -6.991558590042349 8.207481823093193 -15.199040413135542 8.207481823093193&#10;S 12.461776527262224 213.8740259614336 12.461776527262224 185.29982998473878&#10;s 6.991558590042349 -8.207481823093193 15.199040413135542 -8.207481823093193&#10;S 42.85985735353331 156.72563400804395 42.85985735353331 185.29982998473878&#10;z" fill="none" stroke="none"/><circle cx="0" cy="0" r="3.744535629961946" fill="#1b2124"><animateMotion begin="-4.356262933167021s" dur="20s" repeatCount="indefinite"><mpath xlink:href="#path39"/></animateMotion></circle><path id="path40" d="M 1495.1299276666884 593.5173586335795&#10;c 0 25.848061341103765 -6.324525647291346 7.424443151168103 -13.74896879845945 7.424443151168103&#10;S 1467.6319900697697 619.3654199746833 1467.6319900697697 593.5173586335795&#10;s 6.324525647291346 -7.424443151168103 13.74896879845945 -7.424443151168103&#10;S 1495.1299276666884 567.6692972924758 1495.1299276666884 593.5173586335795&#10;z" fill="none" stroke="none"/><circle cx="0" cy="0" r="3.396808772701616" fill="#e86e38"><animateMotion begin="-1.5080173872425817s" dur="20s" repeatCount="indefinite"><mpath xlink:href="#path40"/></animateMotion></circle><path id="path41" d="M 1486.7896383890597 28.50432863613809&#10;c 0 20.705953493075615 -5.06635032277382 5.9474547267344855 -11.013805049508305 5.9474547267344855&#10;S 1464.762028290043 49.21028212921371 1464.762028290043 28.50432863613809&#10;s 5.06635032277382 -5.9474547267344855 11.013805049508305 -5.9474547267344855&#10;S 1486.7896383890597 7.798375143062476 1486.7896383890597 28.50432863613809&#10;z" fill="none" stroke="none"/><circle cx="0" cy="0" r="3.4755429895499694" fill="#06080a"><animateMotion begin="-17.69234231873447s" dur="20s" repeatCount="indefinite"><mpath xlink:href="#path41"/></animateMotion></circle><path id="path42" d="M 1000.2571453823966 205.84298251906276&#10;c 0 33.43872637337079 -8.181816027526896 9.604740554053313 -17.786556581580207 9.604740554053313&#10;S 964.6840322192363 239.28170889243356 964.6840322192363 205.84298251906276&#10;s 8.181816027526896 -9.604740554053313 17.786556581580207 -9.604740554053313&#10;S 1000.2571453823966 172.40425614569196 1000.2571453823966 205.84298251906276&#10;z" fill="none" stroke="none"/><circle cx="0" cy="0" r="3.569084146612374" fill="#f7d8b4"><animateMotion begin="-12.277100411495777s" dur="20s" repeatCount="indefinite"><mpath xlink:href="#path42"/></animateMotion></circle><path id="path43" d="M 324.86272727411523 784.8063911828974&#10;c 0 26.15252170852484 -6.399021269107141 7.511894533299688 -13.91091580240683 7.511894533299688&#10;S 297.0408956693016 810.9589128914223 297.0408956693016 784.8063911828974&#10;s 6.399021269107141 -7.511894533299688 13.91091580240683 -7.511894533299688&#10;S 324.86272727411523 758.6538694743725 324.86272727411523 784.8063911828974&#10;z" fill="none" stroke="none"/><circle cx="0" cy="0" r="3.544276653428263" fill="#1b2124"><animateMotion begin="-17.735555251503836s" dur="20s" repeatCount="indefinite"><mpath xlink:href="#path43"/></animateMotion></circle><path id="path44" d="M 1138.474323491983 675.9409373483379&#10;c 0 27.96815747889873 -6.843272574624156 8.033406935428358 -14.876679510052515 8.033406935428358&#10;S 1108.7209644718778 703.9090948272367 1108.7209644718778 675.9409373483379&#10;s 6.843272574624156 -8.033406935428358 14.876679510052515 -8.033406935428358&#10;S 1138.474323491983 647.9727798694391 1138.474323491983 675.9409373483379&#10;z" fill="none" stroke="none"/><circle cx="0" cy="0" r="4.484403198005018" fill="#f7d8b4"><animateMotion begin="-7.486084295528701s" dur="20s" repeatCount="indefinite"><mpath xlink:href="#path44"/></animateMotion></circle><path id="path45" d="M 246.76138602852325 727.1774855336714&#10;c 0 33.09309706147934 -8.097247153340687 9.505464049573852 -17.60271120291454 9.505464049573852&#10;S 211.55596362269415 760.2705825951507 211.55596362269415 727.1774855336714&#10;s 8.097247153340687 -9.505464049573852 17.60271120291454 -9.505464049573852&#10;S 246.76138602852325 694.0843884721921 246.76138602852325 727.1774855336714&#10;z" fill="none" stroke="none"/><circle cx="0" cy="0" r="3.6879284246101505" fill="#fdf4af"><animateMotion begin="-12.82546099814958s" dur="20s" repeatCount="indefinite"><mpath xlink:href="#path45"/></animateMotion></circle><path id="path46" d="M 755.0637218303982 408.3529118102757&#10;c 0 35.58800883200155 -8.70770428868123 10.222087643234488 -18.92979193191572 10.222087643234488&#10;S 717.2041379665668 443.94092064227726 717.2041379665668 408.3529118102757&#10;s 8.70770428868123 -10.222087643234488 18.92979193191572 -10.222087643234488&#10;S 755.0637218303982 372.76490297827416 755.0637218303982 408.3529118102757&#10;z" fill="none" stroke="none"/><circle cx="0" cy="0" r="3.665471539340603" fill="#1b2124"><animateMotion begin="-19.390776067144415s" dur="20s" repeatCount="indefinite"><mpath xlink:href="#path46"/></animateMotion></circle><path id="path47" d="M 481.8030016316447 164.35731858165005&#10;c 0 19.66848229941225 -4.812500988154061 5.649457681746072 -10.461958669900133 5.649457681746072&#10;S 460.87908429184444 184.0258008810623 460.87908429184444 164.35731858165005&#10;s 4.812500988154061 -5.649457681746072 10.461958669900133 -5.649457681746072&#10;S 481.8030016316447 144.6888362822378 481.8030016316447 164.35731858165005&#10;z" fill="none" stroke="none"/><circle cx="0" cy="0" r="3.1892162451938355" fill="#edb870"><animateMotion begin="-2.7692324788444145s" dur="20s" repeatCount="indefinite"><mpath xlink:href="#path47"/></animateMotion></circle><path id="path48" d="M 1700.6452743777527 312.0133719091338&#10;c 0 28.484118973876058 -6.969518472331375 8.181608641432485 -15.15112711376386 8.181608641432485&#10;S 1670.3430201502251 340.49749088300985 1670.3430201502251 312.0133719091338&#10;s 6.969518472331375 -8.181608641432485 15.15112711376386 -8.181608641432485&#10;S 1700.6452743777527 283.5292529352578 1700.6452743777527 312.0133719091338&#10;z" fill="none" stroke="none"/><circle cx="0" cy="0" r="4.293618985342507" fill="#1b2124"><animateMotion begin="-7.51373260984832s" dur="20s" repeatCount="indefinite"><mpath xlink:href="#path48"/></animateMotion></circle><path id="path49" d="M 1124.996187442165 815.0256759005885&#10;c 0 30.48217820897055 -7.45840530645024 8.755519272789414 -16.213924579239652 8.755519272789414&#10;S 1092.5683382836858 845.507854109559 1092.5683382836858 815.0256759005885&#10;s 7.45840530645024 -8.755519272789414 16.213924579239652 -8.755519272789414&#10;S 1124.996187442165 784.5434976916179 1124.996187442165 815.0256759005885&#10;z" fill="none" stroke="none"/><circle cx="0" cy="0" r="2.2530188230606507" fill="#edb870"><animateMotion begin="-0.5720218087845774s" dur="20s" repeatCount="indefinite"><mpath xlink:href="#path49"/></animateMotion></circle><path id="path50" d="M 1501.3014174397974 909.4854982168904&#10;c 0 33.50329507323025 -8.197614751960591 9.623286882736348 -17.820901634696938 9.623286882736348&#10;S 1465.6596141704038 942.9887932901206 1465.6596141704038 909.4854982168904&#10;s 8.197614751960591 -9.623286882736348 17.820901634696938 -9.623286882736348&#10;S 1501.3014174397974 875.9822031436602 1501.3014174397974 909.4854982168904&#10;z" fill="none" stroke="none"/><circle cx="0" cy="0" r="4.235416535234705" fill="#edb870"><animateMotion begin="-14.659439403623114s" dur="20s" repeatCount="indefinite"><mpath xlink:href="#path50"/></animateMotion></circle><path id="path51" d="M 660.8055811416222 975.0007325821706&#10;c 0 23.585545398333984 -5.770931320868953 6.774571550585294 -12.545502871454246 6.774571550585294&#10;S 635.7145753987137 998.5862779805046 635.7145753987137 975.0007325821706&#10;s 5.770931320868953 -6.774571550585294 12.545502871454246 -6.774571550585294&#10;S 660.8055811416222 951.4151871838366 660.8055811416222 975.0007325821706&#10;z" fill="none" stroke="none"/><circle cx="0" cy="0" r="3.00406006892684" fill="#fdf4af"><animateMotion begin="-16.581503006947077s" dur="20s" repeatCount="indefinite"><mpath xlink:href="#path51"/></animateMotion></circle><path id="path52" d="M 1475.5577955351362 246.79645802299768&#10;c 0 26.26723003250956 -6.427088199443828 7.54484266891232 -13.971930868356148 7.54484266891232&#10;S 1447.613933798424 273.0636880555072 1447.613933798424 246.79645802299768&#10;s 6.427088199443828 -7.54484266891232 13.971930868356148 -7.54484266891232&#10;S 1475.5577955351362 220.52922799048812 1475.5577955351362 246.79645802299768&#10;z" fill="none" stroke="none"/><circle cx="0" cy="0" r="4.271139613664961" fill="#1b2124"><animateMotion begin="-0.5227897462055875s" dur="20s" repeatCount="indefinite"><mpath xlink:href="#path52"/></animateMotion></circle><path id="path53" d="M 1556.0682999085109 558.3171958247473&#10;c 0 24.49284945267234 -5.992931249058125 7.0351801619378 -13.028111410995924 7.0351801619378&#10;S 1530.012077086519 582.8100452774196 1530.012077086519 558.3171958247473&#10;s 5.992931249058125 -7.0351801619378 13.028111410995924 -7.0351801619378&#10;S 1556.0682999085109 533.824346372075 1556.0682999085109 558.3171958247473&#10;z" fill="none" stroke="none"/><circle cx="0" cy="0" r="2.325333081062156" fill="#06080a"><animateMotion begin="-2.792872066091774s" dur="20s" repeatCount="indefinite"><mpath xlink:href="#path53"/></animateMotion></circle><path id="path54" d="M 1456.4061357703908 86.98128586682927&#10;c 0 34.10083924306765 -8.343822367984636 9.794921910242836 -18.13874427822747 9.794921910242836&#10;S 1420.128647213936 121.08212510989691 1420.128647213936 86.98128586682927&#10;s 8.343822367984636 -9.794921910242836 18.13874427822747 -9.794921910242836&#10;S 1456.4061357703908 52.88044662376162 1456.4061357703908 86.98128586682927&#10;z" fill="none" stroke="none"/><circle cx="0" cy="0" r="3.017863736684943" fill="#1b2124"><animateMotion begin="-17.032189395673477s" dur="20s" repeatCount="indefinite"><mpath xlink:href="#path54"/></animateMotion></circle><path id="path55" d="M 1544.3778841657765 16.391590272198762&#10;c 0 24.439512258785822 -5.979880659064616 7.019859904119333 -12.999740563183948 7.019859904119333&#10;S 1518.3784030394088 40.83110253098458 1518.3784030394088 16.391590272198762&#10;s 5.979880659064616 -7.019859904119333 12.999740563183948 -7.019859904119333&#10;S 1544.3778841657765 -8.04792198658706 1544.3778841657765 16.391590272198762&#10;z" fill="none" stroke="none"/><circle cx="0" cy="0" r="3.1488536257539934" fill="#f7d8b4"><animateMotion begin="-16.51071320408072s" dur="20s" repeatCount="indefinite"><mpath xlink:href="#path55"/></animateMotion></circle><path id="path56" d="M 1769.1169187468754 528.133398730192&#10;c 0 32.760152339553585 -8.015781955422685 9.409830991148372 -17.425612946571057 9.409830991148372&#10;S 1734.265692853733 560.8935510697455 1734.265692853733 528.133398730192&#10;s 8.015781955422685 -9.409830991148372 17.425612946571057 -9.409830991148372&#10;S 1769.1169187468754 495.37324639063837 1769.1169187468754 528.133398730192&#10;z" fill="none" stroke="none"/><circle cx="0" cy="0" r="4.334126556322424" fill="#edb870"><animateMotion begin="-8.355624882176178s" dur="20s" repeatCount="indefinite"><mpath xlink:href="#path56"/></animateMotion></circle><path id="path57" d="M 717.5264507261232 80.33019280054974&#10;c 0 25.725762477086437 -6.294601457159446 7.389314754056743 -13.68391621121619 7.389314754056743&#10;S 690.1586183036908 106.05595527763617 690.1586183036908 80.33019280054974&#10;s 6.294601457159446 -7.389314754056743 13.68391621121619 -7.389314754056743&#10;S 717.5264507261232 54.604430323463305 717.5264507261232 80.33019280054974&#10;z" fill="none" stroke="none"/><circle cx="0" cy="0" r="3.244215092408111" fill="#e86e38"><animateMotion begin="-0.3417407303036146s" dur="20s" repeatCount="indefinite"><mpath xlink:href="#path57"/></animateMotion></circle><path id="path58" d="M 528.8099601555713 475.9457885572975&#10;c 0 27.45653364587588 -6.718088019735587 7.886451153602646 -14.604539173338233 7.886451153602646&#10;S 499.60088180889477 503.40232220317336 499.60088180889477 475.9457885572975&#10;s 6.718088019735587 -7.886451153602646 14.604539173338233 -7.886451153602646&#10;S 528.8099601555713 448.4892549114216 528.8099601555713 475.9457885572975&#10;z" fill="none" stroke="none"/><circle cx="0" cy="0" r="3.2436885886235065" fill="#e86e38"><animateMotion begin="-15.593726545875946s" dur="20s" repeatCount="indefinite"><mpath xlink:href="#path58"/></animateMotion></circle><path id="path59" d="M 56.74706901474147 997.393261689643&#10;c 0 18.88708663418317 -4.621308431768222 5.425014245988783 -10.046322677757004 5.425014245988783&#10;S 36.65442365922746 1016.2803483238263 36.65442365922746 997.393261689643&#10;s 4.621308431768222 -5.425014245988783 10.046322677757004 -5.425014245988783&#10;S 56.74706901474147 978.5061750554598 56.74706901474147 997.393261689643&#10;z" fill="none" stroke="none"/><circle cx="0" cy="0" r="2.8525539397872515" fill="#f7d8b4"><animateMotion begin="-3.026051197344275s" dur="20s" repeatCount="indefinite"><mpath xlink:href="#path59"/></animateMotion></circle><path id="path60" d="M 1743.4788965449989 263.4005773438643&#10;c 0 25.54164462218649 -6.2495513437264805 7.336429838287608 -13.585981182014088 7.336429838287608&#10;S 1716.3069341809705 288.9422219660508 1716.3069341809705 263.4005773438643&#10;s 6.2495513437264805 -7.336429838287608 13.585981182014088 -7.336429838287608&#10;S 1743.4788965449989 237.85893272167783 1743.4788965449989 263.4005773438643&#10;z" fill="none" stroke="none"/><circle cx="0" cy="0" r="2.8472011147707073" fill="#f7d8b4"><animateMotion begin="-4.502519484195124s" dur="20s" repeatCount="indefinite"><mpath xlink:href="#path60"/></animateMotion></circle><path id="path61" d="M 1161.8039285332459 402.5339304297457&#10;c 0 33.91039971560824 -8.297225462329676 9.740221194908752 -18.037446657238426 9.740221194908752&#10;S 1125.729035218769 436.44433014535394 1125.729035218769 402.5339304297457&#10;s 8.297225462329676 -9.740221194908752 18.037446657238426 -9.740221194908752&#10;S 1161.8039285332459 368.6235307141374 1161.8039285332459 402.5339304297457&#10;z" fill="none" stroke="none"/><circle cx="0" cy="0" r="4.205774524900516" fill="#06080a"><animateMotion begin="-11.393056730976227s" dur="20s" repeatCount="indefinite"><mpath xlink:href="#path61"/></animateMotion></circle><path id="path62" d="M 494.48731793719367 686.6261728247938&#10;c 0 29.676606723153096 -7.261297389707671 8.524131718352486 -15.785429108060157 8.524131718352486&#10;S 462.91645972107335 716.3027795479469 462.91645972107335 686.6261728247938&#10;s 7.261297389707671 -8.524131718352486 15.785429108060157 -8.524131718352486&#10;S 494.48731793719367 656.9495661016407 494.48731793719367 686.6261728247938&#10;z" fill="none" stroke="none"/><circle cx="0" cy="0" r="2.3698653588641467" fill="#edb870"><animateMotion begin="-7.767037239247374s" dur="20s" repeatCount="indefinite"><mpath xlink:href="#path62"/></animateMotion></circle><path id="path63" d="M 269.45792835587315 320.8720139621619&#10;c 0 34.24034147657175 -8.377955893203724 9.834991700717417 -18.212947593921143 9.834991700717417&#10;S 233.0320331680309 355.11235543873363 233.0320331680309 320.8720139621619&#10;s 8.377955893203724 -9.834991700717417 18.212947593921143 -9.834991700717417&#10;S 269.45792835587315 286.6316724855901 269.45792835587315 320.8720139621619&#10;z" fill="none" stroke="none"/><circle cx="0" cy="0" r="3.3514664810921717" fill="#e86e38"><animateMotion begin="-15.880743803743602s" dur="20s" repeatCount="indefinite"><mpath xlink:href="#path63"/></animateMotion></circle><path id="path64" d="M 859.4039300519378 542.7002532793598&#10;c 0 36.59447081145789 -8.953966262377993 10.511177786269819 -19.46514404864781 10.511177786269819&#10;S 820.4736419546421 579.2947240908177 820.4736419546421 542.7002532793598&#10;s 8.953966262377993 -10.511177786269819 19.46514404864781 -10.511177786269819&#10;S 859.4039300519378 506.1057824679019 859.4039300519378 542.7002532793598&#10;z" fill="none" stroke="none"/><circle cx="0" cy="0" r="4.3394322217479395" fill="#f72405"><animateMotion begin="-7.623461779495626s" dur="20s" repeatCount="indefinite"><mpath xlink:href="#path64"/></animateMotion></circle><path id="path65" d="M 369.8621990631564 440.6390129861189&#10;c 0 29.748529411851223 -7.278895494389128 8.544790362978542 -15.823685857367671 8.544790362978542&#10;S 338.2148273484211 470.38754239797015 338.2148273484211 440.6390129861189&#10;s 7.278895494389128 -8.544790362978542 15.823685857367671 -8.544790362978542&#10;S 369.8621990631564 410.8904835742677 369.8621990631564 440.6390129861189&#10;z" fill="none" stroke="none"/><circle cx="0" cy="0" r="2.583744865681247" fill="#06080a"><animateMotion begin="-15.091239481926223s" dur="20s" repeatCount="indefinite"><mpath xlink:href="#path65"/></animateMotion></circle><path id="path66" d="M 378.54588813820413 208.89895830275384&#10;c 0 36.157863669548874 -8.847136855315147 10.385769351891698 -19.232906207206845 10.385769351891698&#10;S 340.08007572379046 245.0568219723027 340.08007572379046 208.89895830275384&#10;s 8.847136855315147 -10.385769351891698 19.232906207206845 -10.385769351891698&#10;S 378.54588813820413 172.74109463320497 378.54588813820413 208.89895830275384&#10;z" fill="none" stroke="none"/><circle cx="0" cy="0" r="2.9381720300867293" fill="#e86e38"><animateMotion begin="-3.777182621516162s" dur="20s" repeatCount="indefinite"><mpath xlink:href="#path66"/></animateMotion></circle><path id="path67" d="M 726.3029840312385 567.4149312304929&#10;c 0 35.85069092697613 -8.771977567238839 10.297538883280378 -19.069516450519217 10.297538883280378&#10;S 688.1639511302 603.265622157469 688.1639511302 567.4149312304929&#10;s 8.771977567238839 -10.297538883280378 19.069516450519217 -10.297538883280378&#10;S 726.3029840312385 531.5642403035168 726.3029840312385 567.4149312304929&#10;z" fill="none" stroke="none"/><circle cx="0" cy="0" r="3.684534838302368" fill="#f7d8b4"><animateMotion begin="-8.208340684982375s" dur="20s" repeatCount="indefinite"><mpath xlink:href="#path67"/></animateMotion></circle><path id="path68" d="M 248.6548634969534 818.0630627862658&#10;c 0 36.99427391056336 -9.051790424925075 10.626014846651177 -19.67780527157625 10.626014846651177&#10;S 209.29925295380087 855.0573366968292 209.29925295380087 818.0630627862658&#10;s 9.051790424925075 -10.626014846651177 19.67780527157625 -10.626014846651177&#10;S 248.6548634969534 781.0687888757025 248.6548634969534 818.0630627862658&#10;z" fill="none" stroke="none"/><circle cx="0" cy="0" r="4.180362863658672" fill="#edb870"><animateMotion begin="-12.875829531871377s" dur="20s" repeatCount="indefinite"><mpath xlink:href="#path68"/></animateMotion></circle><path id="path69" d="M 1272.5601272788185 144.92280679147382&#10;c 0 24.36653930006923 -5.962025573421194 6.998899586190098 -12.960925159611293 6.998899586190098&#10;S 1246.6382769595957 169.28934609154305 1246.6382769595957 144.92280679147382&#10;s 5.962025573421194 -6.998899586190098 12.960925159611293 -6.998899586190098&#10;S 1272.5601272788185 120.55626749140458 1272.5601272788185 144.92280679147382&#10;z" fill="none" stroke="none"/><circle cx="0" cy="0" r="2.916441659378992" fill="#f72405"><animateMotion begin="-12.158908951240853s" dur="20s" repeatCount="indefinite"><mpath xlink:href="#path69"/></animateMotion></circle><path id="path70" d="M 156.73997500005606 917.5342601327246&#10;c 0 35.2612101658415 -8.627742912918663 10.128219941252345 -18.755962854171006 10.128219941252345&#10;S 119.22804929171406 952.7954702985661 119.22804929171406 917.5342601327246&#10;s 8.627742912918663 -10.128219941252345 18.755962854171006 -10.128219941252345&#10;S 156.73997500005606 882.2730499668831 156.73997500005606 917.5342601327246&#10;z" fill="none" stroke="none"/><circle cx="0" cy="0" r="4.4287810140257795" fill="#06080a"><animateMotion begin="-9.294945117344916s" dur="20s" repeatCount="indefinite"><mpath xlink:href="#path70"/></animateMotion></circle><path id="path71" d="M 1433.118335594284 6.6815339867431645&#10;c 0 22.03120307623621 -5.39061351865354 6.328111521897634 -11.718725040551174 6.328111521897634&#10;S 1409.6808855131817 28.712737062979375 1409.6808855131817 6.6815339867431645&#10;s 5.39061351865354 -6.328111521897634 11.718725040551174 -6.328111521897634&#10;S 1433.118335594284 -15.349669089493045 1433.118335594284 6.6815339867431645&#10;z" fill="none" stroke="none"/><circle cx="0" cy="0" r="2.828904983399683" fill="#e86e38"><animateMotion begin="-18.469980134208058s" dur="20s" repeatCount="indefinite"><mpath xlink:href="#path71"/></animateMotion></circle><path id="path72" d="M 420.47529959537184 191.01589463937054&#10;c 0 35.1984478474451 -8.612386175438695 10.110192466819338 -18.722578642258036 10.110192466819338&#10;S 383.03014231085575 226.21434248681564 383.03014231085575 191.01589463937054&#10;s 8.612386175438695 -10.110192466819338 18.722578642258036 -10.110192466819338&#10;S 420.47529959537184 155.81744679192545 420.47529959537184 191.01589463937054&#10;z" fill="none" stroke="none"/><circle cx="0" cy="0" r="3.860915352143246" fill="#1b2124"><animateMotion begin="-1.4137864563758873s" dur="20s" repeatCount="indefinite"><mpath xlink:href="#path72"/></animateMotion></circle><path id="path73" d="M 1254.1278668313246 226.75705239937855&#10;c 0 32.11090049338376 -7.8569224611470885 9.223343758737888 -17.080266219884976 9.223343758737888&#10;S 1219.9673343915545 258.86795289276233 1219.9673343915545 226.75705239937855&#10;s 7.8569224611470885 -9.223343758737888 17.080266219884976 -9.223343758737888&#10;S 1254.1278668313246 194.6461519059948 1254.1278668313246 226.75705239937855&#10;z" fill="none" stroke="none"/><circle cx="0" cy="0" r="3.784161313384789" fill="#f7d8b4"><animateMotion begin="-3.5103026496802414s" dur="20s" repeatCount="indefinite"><mpath xlink:href="#path73"/></animateMotion></circle><path id="path74" d="M 1385.9644248046316 351.72933712227797&#10;c 0 29.63913336551581 -7.252128376668761 8.513368094350286 -15.765496471019047 8.513368094350286&#10;S 1354.4334318625934 381.3684704877938 1354.4334318625934 351.72933712227797&#10;s 7.252128376668761 -8.513368094350286 15.765496471019047 -8.513368094350286&#10;S 1385.9644248046316 322.09020375676215 1385.9644248046316 351.72933712227797&#10;z" fill="none" stroke="none"/><circle cx="0" cy="0" r="3.3345883958271516" fill="#1b2124"><animateMotion begin="-0.517841853623997s" dur="20s" repeatCount="indefinite"><mpath xlink:href="#path74"/></animateMotion></circle><path id="path75" d="M 1245.954920637767 586.7330110144391&#10;c 0 26.667402012444118 -6.525002620066113 7.659785684425438 -14.184788304491551 7.659785684425438&#10;S 1217.5853440287838 613.4004130268831 1217.5853440287838 586.7330110144391&#10;s 6.525002620066113 -7.659785684425438 14.184788304491551 -7.659785684425438&#10;S 1245.954920637767 560.065609001995 1245.954920637767 586.7330110144391&#10;z" fill="none" stroke="none"/><circle cx="0" cy="0" r="2.6503429806825567" fill="#f7d8b4"><animateMotion begin="-17.719642577392534s" dur="20s" repeatCount="indefinite"><mpath xlink:href="#path75"/></animateMotion></circle><path id="path76" d="M 299.6064539629783 215.06583069449513&#10;c 0 35.53186752570096 -8.693967586075766 10.205961948871554 -18.89992953494732 10.205961948871554&#10;S 261.8065948930837 250.5976982201961 261.8065948930837 215.06583069449513&#10;s 8.693967586075766 -10.205961948871554 18.89992953494732 -10.205961948871554&#10;S 299.6064539629783 179.53396316879417 299.6064539629783 215.06583069449513&#10;z" fill="none" stroke="none"/><circle cx="0" cy="0" r="3.8425268790614275" fill="#fdf4af"><animateMotion begin="-15.282177498040394s" dur="20s" repeatCount="indefinite"><mpath xlink:href="#path76"/></animateMotion></circle><path id="path77" d="M 1403.4213336345588 735.6100748396018&#10;c 0 31.32426702659455 -7.664448315017815 8.997395848064393 -16.661844163082208 8.997395848064393&#10;S 1370.0976453083945 766.9343418661963 1370.0976453083945 735.6100748396018&#10;s 7.664448315017815 -8.997395848064393 16.661844163082208 -8.997395848064393&#10;S 1403.4213336345588 704.2858078130073 1403.4213336345588 735.6100748396018&#10;z" fill="none" stroke="none"/><circle cx="0" cy="0" r="3.006751905139528" fill="#edb870"><animateMotion begin="-9.13112886497499s" dur="20s" repeatCount="indefinite"><mpath xlink:href="#path77"/></animateMotion></circle><path id="path78" d="M 309.3090202862376 914.2217362206833&#10;c 0 35.8213312476851 -8.76479381592295 10.28910578390955 -19.0538995998325 10.28910578390955&#10;S 271.2012210865726 950.0430674683683 271.2012210865726 914.2217362206833&#10;s 8.76479381592295 -10.28910578390955 19.0538995998325 -10.28910578390955&#10;S 309.3090202862376 878.4004049729982 309.3090202862376 914.2217362206833&#10;z" fill="none" stroke="none"/><circle cx="0" cy="0" r="3.961738949669688" fill="#f72405"><animateMotion begin="-8.502358617512446s" dur="20s" repeatCount="indefinite"><mpath xlink:href="#path78"/></animateMotion></circle><path id="path79" d="M 688.9594972658858 1000.6206448879987&#10;c 0 25.151489111617693 -6.1540877613532645 7.224363893762528 -13.378451655115793 7.224363893762528&#10;S 662.2025939556543 1025.7721339996162 662.2025939556543 1000.6206448879987&#10;s 6.1540877613532645 -7.224363893762528 13.378451655115793 -7.224363893762528&#10;S 688.9594972658858 975.469155776381 688.9594972658858 1000.6206448879987&#10;z" fill="none" stroke="none"/><circle cx="0" cy="0" r="2.769042080478282" fill="#e86e38"><animateMotion begin="-5.229789875769595s" dur="20s" repeatCount="indefinite"><mpath xlink:href="#path79"/></animateMotion></circle><path id="path80" d="M 98.43918069779333 3.3135495548508462&#10;c 0 30.04849383965706 -7.352291045873535 8.630950358199367 -15.983241404072903 8.630950358199367&#10;S 66.47269788964753 33.36204339450791 66.47269788964753 3.3135495548508462&#10;s 7.352291045873535 -8.630950358199367 15.983241404072903 -8.630950358199367&#10;S 98.43918069779333 -26.73494428480621 98.43918069779333 3.3135495548508462&#10;z" fill="none" stroke="none"/><circle cx="0" cy="0" r="3.2013925533123797" fill="#f7d8b4"><animateMotion begin="-8.32614512912496s" dur="20s" repeatCount="indefinite"><mpath xlink:href="#path80"/></animateMotion></circle><path id="path81" d="M 855.1761660978734 953.6798301605694&#10;c 0 37.565886206048 -9.191653007862808 10.79020135705634 -19.981854364919148 10.79020135705634&#10;S 815.2124573680351 991.2457163666174 815.2124573680351 953.6798301605694&#10;s 9.191653007862808 -10.79020135705634 19.981854364919148 -10.79020135705634&#10;S 855.1761660978734 916.1139439545213 855.1761660978734 953.6798301605694&#10;z" fill="none" stroke="none"/><circle cx="0" cy="0" r="3.4883376280983174" fill="#fdf4af"><animateMotion begin="-12.99467596986608s" dur="20s" repeatCount="indefinite"><mpath xlink:href="#path81"/></animateMotion></circle><path id="path82" d="M 676.1281940815301 382.79413691056476&#10;c 0 33.75976606233798 -8.260368291848655 9.696954081735377 -17.957322373584034 9.696954081735377&#10;S 640.213549334362 416.55390297290273 640.213549334362 382.79413691056476&#10;s 8.260368291848655 -9.696954081735377 17.957322373584034 -9.696954081735377&#10;S 676.1281940815301 349.0343708482268 676.1281940815301 382.79413691056476&#10;z" fill="none" stroke="none"/><circle cx="0" cy="0" r="4.074185705956142" fill="#edb870"><animateMotion begin="-12.791637468456344s" dur="20s" repeatCount="indefinite"><mpath xlink:href="#path82"/></animateMotion></circle><path id="path83" d="M 1266.9323495372942 847.5773796158849&#10;c 0 27.563613261330186 -6.744288351176534 7.917208064424629 -14.661496415601164 7.917208064424629&#10;S 1237.6093567060916 875.140992877215 1237.6093567060916 847.5773796158849&#10;s 6.744288351176534 -7.917208064424629 14.661496415601164 -7.917208064424629&#10;S 1266.9323495372942 820.0137663545547 1266.9323495372942 847.5773796158849&#10;z" fill="none" stroke="none"/><circle cx="0" cy="0" r="3.5554073597295726" fill="#f7d8b4"><animateMotion begin="-13.952042666734311s" dur="20s" repeatCount="indefinite"><mpath xlink:href="#path83"/></animateMotion></circle><path id="path84" d="M 1584.63950780859 323.76210388229947&#10;c 0 22.15676380394763 -5.421335824370164 6.3641768373041065 -11.785512661674272 6.3641768373041065&#10;S 1561.0684824852412 345.9188676862471 1561.0684824852412 323.76210388229947&#10;s 5.421335824370164 -6.3641768373041065 11.785512661674272 -6.3641768373041065&#10;S 1584.63950780859 301.60534007835184 1584.63950780859 323.76210388229947&#10;z" fill="none" stroke="none"/><circle cx="0" cy="0" r="2.6164686166352955" fill="#e86e38"><animateMotion begin="-0.03982947787416258s" dur="20s" repeatCount="indefinite"><mpath xlink:href="#path84"/></animateMotion></circle><path id="path85" d="M 1005.0685903428281 37.50278992368263&#10;c 0 29.84643393328306 -7.302850856016066 8.572911874453645 -15.875762730469711 8.572911874453645&#10;S 973.3170648818888 67.3492238569657 973.3170648818888 37.50278992368263&#10;s 7.302850856016066 -8.572911874453645 15.875762730469711 -8.572911874453645&#10;S 1005.0685903428281 7.656355990399568 1005.0685903428281 37.50278992368263&#10;z" fill="none" stroke="none"/><circle cx="0" cy="0" r="4.2992847985611675" fill="#fdf4af"><animateMotion begin="-10.559823533609851s" dur="20s" repeatCount="indefinite"><mpath xlink:href="#path85"/></animateMotion></circle><path id="path86" d="M 337.40390630276016 939.1855037045096&#10;c 0 26.48899050279671 -6.481348740046003 7.608539825271396 -14.089888565317398 7.608539825271396&#10;S 309.2241291721254 965.6744942073063 309.2241291721254 939.1855037045096&#10;s 6.481348740046003 -7.608539825271396 14.089888565317398 -7.608539825271396&#10;S 337.40390630276016 912.696513201713 337.40390630276016 939.1855037045096&#10;z" fill="none" stroke="none"/><circle cx="0" cy="0" r="2.560684999819106" fill="#fdf4af"><animateMotion begin="-7.089582919805992s" dur="20s" repeatCount="indefinite"><mpath xlink:href="#path86"/></animateMotion></circle><path id="path87" d="M 1030.4540101681798 797.7937902304759&#10;c 0 22.372304437064567 -5.474074489920054 6.4260874446887595 -11.900161934608812 6.4260874446887595&#10;S 1006.6536862989623 820.1660946675405 1006.6536862989623 797.7937902304759&#10;s 5.474074489920054 -6.4260874446887595 11.900161934608812 -6.4260874446887595&#10;S 1030.4540101681798 775.4214857934113 1030.4540101681798 797.7937902304759&#10;z" fill="none" stroke="none"/><circle cx="0" cy="0" r="3.8089508021253784" fill="#06080a"><animateMotion begin="-15.818668763001806s" dur="20s" repeatCount="indefinite"><mpath xlink:href="#path87"/></animateMotion></circle><path id="path88" d="M 1117.804400607268 269.18455179009726&#10;c 0 21.623371177993516 -5.29082486270054 6.2109683170832435 -11.501793179783784 6.2109683170832435&#10;S 1094.8008142477004 290.8079229680908 1094.8008142477004 269.18455179009726&#10;s 5.29082486270054 -6.2109683170832435 11.501793179783784 -6.2109683170832435&#10;S 1117.804400607268 247.56118061210375 1117.804400607268 269.18455179009726&#10;z" fill="none" stroke="none"/><circle cx="0" cy="0" r="3.22501703348006" fill="#1b2124"><animateMotion begin="-15.994777842008743s" dur="20s" repeatCount="indefinite"><mpath xlink:href="#path88"/></animateMotion></circle><path id="path89" d="M 1064.928498594496 26.8303754729567&#10;c 0 34.13401607258416 -8.351940102866337 9.804451425103961 -18.156391527970296 9.804451425103961&#10;S 1028.6157155385554 60.96439154554086 1028.6157155385554 26.8303754729567&#10;s 8.351940102866337 -9.804451425103961 18.156391527970296 -9.804451425103961&#10;S 1064.928498594496 -7.30364059962746 1064.928498594496 26.8303754729567&#10;z" fill="none" stroke="none"/><circle cx="0" cy="0" r="4.361627067924097" fill="#06080a"><animateMotion begin="-9.660117437705882s" dur="20s" repeatCount="indefinite"><mpath xlink:href="#path89"/></animateMotion></circle><path id="path90" d="M 547.9984003155243 22.48941928054058&#10;c 0 35.648819515002415 -8.722583498351653 10.239554541543248 -18.9621380398949 10.239554541543248&#10;S 510.0741242357346 58.138238795542996 510.0741242357346 22.48941928054058&#10;s 8.722583498351653 -10.239554541543248 18.9621380398949 -10.239554541543248&#10;S 547.9984003155243 -13.159400234461835 547.9984003155243 22.48941928054058&#10;z" fill="none" stroke="none"/><circle cx="0" cy="0" r="2.8515524609799225" fill="#1b2124"><animateMotion begin="-2.852989238982997s" dur="20s" repeatCount="indefinite"><mpath xlink:href="#path90"/></animateMotion></circle><path id="path91" d="M 1416.5348027209568 436.6240560429294&#10;c 0 31.908221906297605 -7.807330891966434 9.165127568830163 -16.9724584607966 9.165127568830163&#10;S 1382.5898857993636 468.532277949227 1382.5898857993636 436.6240560429294&#10;s 7.807330891966434 -9.165127568830163 16.9724584607966 -9.165127568830163&#10;S 1416.5348027209568 404.71583413663177 1416.5348027209568 436.6240560429294&#10;z" fill="none" stroke="none"/><circle cx="0" cy="0" r="2.735532497906718" fill="#1b2124"><animateMotion begin="-16.794544314005954s" dur="20s" repeatCount="indefinite"><mpath xlink:href="#path91"/></animateMotion></circle><path id="path92" d="M 1414.9228526727911 944.7232049831168&#10;c 0 22.594465445702532 -5.528433034586789 6.489899649297536 -12.018332683884324 6.489899649297536&#10;S 1390.8861873050223 967.3176704288194 1390.8861873050223 944.7232049831168&#10;s 5.528433034586789 -6.489899649297536 12.018332683884324 -6.489899649297536&#10;S 1414.9228526727911 922.1287395374143 1414.9228526727911 944.7232049831168&#10;z" fill="none" stroke="none"/><circle cx="0" cy="0" r="3.85273427182806" fill="#06080a"><animateMotion begin="-13.973196846643487s" dur="20s" repeatCount="indefinite"><mpath xlink:href="#path92"/></animateMotion></circle><path id="path93" d="M 1024.1282476570802 285.4658584960936&#10;c 0 25.633319017282304 -6.271982312739286 7.362761845389598 -13.634744158128884 7.362761845389598&#10;S 996.8587593408225 311.0991775133759 996.8587593408225 285.4658584960936&#10;s 6.271982312739286 -7.362761845389598 13.634744158128884 -7.362761845389598&#10;S 1024.1282476570802 259.83253947881127 1024.1282476570802 285.4658584960936&#10;z" fill="none" stroke="none"/><circle cx="0" cy="0" r="3.619358095079402" fill="#1b2124"><animateMotion begin="-5.156744188977402s" dur="20s" repeatCount="indefinite"><mpath xlink:href="#path93"/></animateMotion></circle><path id="path94" d="M 1233.8859433029618 1003.0638508194418&#10;c 0 25.12536252671263 -6.147695086323303 7.216859449162139 -13.364554535485443 7.216859449162139&#10;S 1207.1568342319908 1028.1892133461545 1207.1568342319908 1003.0638508194418&#10;s 6.147695086323303 -7.216859449162139 13.364554535485443 -7.216859449162139&#10;S 1233.8859433029618 977.9384882927292 1233.8859433029618 1003.0638508194418&#10;z" fill="none" stroke="none"/><circle cx="0" cy="0" r="2.265012365604131" fill="#1b2124"><animateMotion begin="-4.917007531988569s" dur="20s" repeatCount="indefinite"><mpath xlink:href="#path94"/></animateMotion></circle><path id="path95" d="M 1231.615185213203 302.1960649476804&#10;c 0 20.62528882911263 -5.046613224144579 5.924285089213202 -10.970898313357782 5.924285089213202&#10;S 1209.6733885864874 322.821353776793 1209.6733885864874 302.1960649476804&#10;s 5.046613224144579 -5.924285089213202 10.970898313357782 -5.924285089213202&#10;S 1231.615185213203 281.5707761185678 1231.615185213203 302.1960649476804&#10;z" fill="none" stroke="none"/><circle cx="0" cy="0" r="2.528435769300607" fill="#06080a"><animateMotion begin="-4.035217327082838s" dur="20s" repeatCount="indefinite"><mpath xlink:href="#path95"/></animateMotion></circle><path id="path96" d="M 549.1984099469264 99.29311482169268&#10;c 0 26.018507518694815 -6.366230563084901 7.473401095795319 -13.83963165888022 7.473401095795319&#10;S 521.519146629166 125.3116223403875 521.519146629166 99.29311482169268&#10;s 6.366230563084901 -7.473401095795319 13.83963165888022 -7.473401095795319&#10;S 549.1984099469264 73.27460730299786 549.1984099469264 99.29311482169268&#10;z" fill="none" stroke="none"/><circle cx="0" cy="0" r="4.145652676740089" fill="#1b2124"><animateMotion begin="-11.630114919645633s" dur="20s" repeatCount="indefinite"><mpath xlink:href="#path96"/></animateMotion></circle><path id="path97" d="M 429.6460837420582 247.88128168524375&#10;c 0 19.81192499211617 -4.8475986682837435 5.690659306246135 -10.538257974529879 5.690659306246135&#10;S 408.56956779299844 267.6932066773599 408.56956779299844 247.88128168524375&#10;s 4.8475986682837435 -5.690659306246135 10.538257974529879 -5.690659306246135&#10;S 429.6460837420582 228.0693566931276 429.6460837420582 247.88128168524375&#10;z" fill="none" stroke="none"/><circle cx="0" cy="0" r="4.469615689515579" fill="#edb870"><animateMotion begin="-12.821299152727912s" dur="20s" repeatCount="indefinite"><mpath xlink:href="#path97"/></animateMotion></circle><path id="path98" d="M 934.3298344203765 220.84306135093775&#10;c 0 27.324090564606006 -6.685681733892959 7.8484089919613 -14.53409072585426 7.8484089919613&#10;S 905.2616529686679 248.16715191554374 905.2616529686679 220.84306135093775&#10;s 6.685681733892959 -7.8484089919613 14.53409072585426 -7.8484089919613&#10;S 934.3298344203765 193.51897078633175 934.3298344203765 220.84306135093775&#10;z" fill="none" stroke="none"/><circle cx="0" cy="0" r="2.8825009281106433" fill="#06080a"><animateMotion begin="-1.6280570638521752s" dur="20s" repeatCount="indefinite"><mpath xlink:href="#path98"/></animateMotion></circle><path id="path99" d="M 1567.9684779039771 542.0628754864655&#10;c 0 30.298680129137875 -7.4135068401082025 8.702812377518326 -16.11631921762653 8.702812377518326&#10;S 1535.735839468724 572.3615556156034 1535.735839468724 542.0628754864655&#10;s 7.4135068401082025 -8.702812377518326 16.11631921762653 -8.702812377518326&#10;S 1567.9684779039771 511.7641953573276 1567.9684779039771 542.0628754864655&#10;z" fill="none" stroke="none"/><circle cx="0" cy="0" r="2.5022810544065766" fill="#fdf4af"><animateMotion begin="-17.579798003503484s" dur="20s" repeatCount="indefinite"><mpath xlink:href="#path99"/></animateMotion></circle></g></svg>